Hack-Italic.ufo
<glyph name="exclam" format="1">
  <advance width="1233"/>
  <unicode hex="0021"/>
  <outline>
    <contour>
      <point x="647" y="1053" type="line" name="hr00"/>
      <point x="717" y="1498" type="line" name="at01"/>
      <point x="982" y="1498" type="line"/>
      <point x="912" y="1053" type="line"/>
      <point x="755" y="486" type="line"/>
      <point x="634" y="486" type="line"/>
    </contour>
    <contour>
      <point x="606" y="-60" type="qcurve" name="dv01"/>
      <point x="573" y="-60"/>
      <point x="523" y="-41"/>
      <point x="505" y="-19" type="qcurve"/>
      <point x="484" y="6"/>
      <point x="470" y="66"/>
      <point x="470" y="89" type="qcurve" name="dh01"/>
      <point x="470" y="130"/>
      <point x="502" y="200"/>
      <point x="531" y="229" type="qcurve"/>
      <point x="560" y="257"/>
      <point x="628" y="284"/>
      <point x="664" y="284" type="qcurve" name="dv02"/>
      <point x="695" y="284"/>
      <point x="749" y="264"/>
      <point x="768" y="244" type="qcurve"/>
      <point x="790" y="220"/>
      <point x="802" y="163"/>
      <point x="802" y="148" type="qcurve" name="dh02"/>
      <point x="802" y="105"/>
      <point x="766" y="20"/>
      <point x="731" y="-12" type="qcurve"/>
      <point x="707" y="-35"/>
      <point x="646" y="-60"/>
    </contour>
  </outline>
</glyph>
<glyph name="quotedbl" format="1">
  <advance width="1233"/>
  <unicode hex="0022"/>
  <outline>
    <contour>
      <point x="338" y="1493" type="line" name="hr00"/>
      <point x="512" y="1493" type="line" name="sh01"/>
      <point x="512" y="938" type="line" name="av01"/>
      <point x="338" y="938" type="line"/>
    </contour>
    <contour>
      <point x="721" y="1493" type="line" name="ah01"/>
      <point x="895" y="1493" type="line" name="sh02"/>
      <point x="895" y="938" type="line" name="av02"/>
      <point x="721" y="938" type="line"/>
    </contour>
  </outline>
</glyph>
<glyph name="numbersign" format="1">
  <advance width="1233"/>
  <unicode hex="0023"/>
  <outline>
    <contour>
      <point x="250" y="414" type="line" name="hr00"/>
      <point x="-6" y="414" type="line"/>
      <point x="33" y="567" type="line"/>
      <point x="289" y="567" type="line" name="dv01"/>
      <point x="373" y="901" type="line" name="dv02"/>
      <point x="115" y="901" type="line"/>
      <point x="154" y="1055" type="line"/>
      <point x="412" y="1055" type="line" name="dv03"/>
      <point x="516" y="1470" type="line" name="av01"/>
      <point x="676" y="1470" type="line"/>
      <point x="571" y="1055" type="line" name="sv01"/>
      <point x="817" y="1055" type="line"/>
      <point x="922" y="1470" type="line" name="av02"/>
      <point x="1081" y="1470" type="line"/>
      <point x="977" y="1055" type="line" name="sv02"/>
      <point x="1233" y="1055" type="line"/>
      <point x="1194" y="901" type="line" name="sv03"/>
      <point x="938" y="901" type="line"/>
      <point x="854" y="567" type="line" name="sv04"/>
      <point x="1112" y="567" type="line"/>
      <point x="1073" y="414" type="line" name="sv05"/>
      <point x="815" y="414" type="line"/>
      <point x="711" y="0" type="line" name="ab01"/>
      <point x="551" y="0" type="line"/>
      <point x="655" y="414" type="line" name="sv06"/>
      <point x="410" y="414" type="line"/>
      <point x="305" y="0" type="line" name="ab02"/>
      <point x="145" y="0" type="line"/>
    </contour>
    <contour>
      <point x="694" y="567" type="line" name="sv07"/>
      <point x="778" y="901" type="line" name="sv08"/>
      <point x="532" y="901" type="line"/>
      <point x="449" y="567" type="line"/>
    </contour>
  </outline>
</glyph>
<glyph name="dollar" format="1">
  <advance width="1233"/>
  <unicode hex="0024"/>
  <outline>
    <contour>
      <point x="373" y="0" type="line" name="ab01"/>
      <point x="338" y="2"/>
      <point x="287" y="11"/>
      <point x="222" y="26" type="curve" smooth="yes"/>
      <point x="154" y="42"/>
      <point x="92" y="64"/>
      <point x="31" y="92" type="curve"/>
      <point x="66" y="272" type="line" name="iv01"/>
      <point x="120" y="232"/>
      <point x="179" y="201"/>
      <point x="242" y="179" type="curve" smooth="yes"/>
      <point x="306" y="156"/>
      <point x="369" y="144"/>
      <point x="430" y="141" type="curve" name="sv01"/>
      <point x="520" y="606" type="line"/>
      <point x="420" y="629"/>
      <point x="332" y="662"/>
      <point x="275" y="714" type="curve" smooth="yes"/>
      <point x="224" y="761"/>
      <point x="195" y="821"/>
      <point x="195" y="912" type="curve" name="sh01" smooth="yes"/>
      <point x="195" y="1023"/>
      <point x="239" y="1123"/>
      <point x="328" y="1200" type="curve" smooth="yes"/>
      <point x="417" y="1277"/>
      <point x="550" y="1317"/>
      <point x="629" y="1321" type="curve"/>
      <point x="677" y="1556" type="line" name="at01"/>
      <point x="857" y="1556" type="line" name="hr01"/>
      <point x="810" y="1321" type="line"/>
      <point x="817" y="1317"/>
      <point x="893" y="1308"/>
      <point x="933" y="1300" type="curve" smooth="yes"/>
      <point x="973" y="1292"/>
      <point x="1039" y="1275"/>
      <point x="1083" y="1260" type="curve"/>
      <point x="1051" y="1087" type="line" name="iv02"/>
      <point x="959" y="1145"/>
      <point x="863" y="1170"/>
      <point x="753" y="1182" type="curve"/>
      <point x="672" y="756" type="line"/>
      <point x="782" y="733"/>
      <point x="866" y="694"/>
      <point x="925" y="639" type="curve" smooth="yes"/>
      <point x="985" y="583"/>
      <point x="1014" y="516"/>
      <point x="1014" y="421" type="curve" name="sh02" smooth="yes"/>
      <point x="1014" y="304"/>
      <point x="969" y="202"/>
      <point x="877" y="122" type="curve" smooth="yes"/>
      <point x="786" y="42"/>
      <point x="668" y="2"/>
      <point x="524" y="2" type="curve" name="ab02" smooth="yes"/>
      <point x="554" y="2" type="line"/>
      <point x="495" y="-301" type="line" name="av01"/>
      <point x="314" y="-301" type="line"/>
    </contour>
    <contour>
      <point x="633" y="1184" type="line"/>
      <point x="489" y="1175"/>
      <point x="373" y="1072"/>
      <point x="373" y="941" type="curve" name="sh03" smooth="yes"/>
      <point x="373" y="894"/>
      <point x="387" y="859"/>
      <point x="415" y="834" type="curve" smooth="yes"/>
      <point x="442" y="810"/>
      <point x="490" y="790"/>
      <point x="553" y="774" type="curve"/>
    </contour>
    <contour>
      <point x="553" y="145" type="line" name="sv02"/>
      <point x="633" y="145"/>
      <point x="699" y="169"/>
      <point x="752" y="218" type="curve" smooth="yes"/>
      <point x="803" y="265"/>
      <point x="831" y="326"/>
      <point x="831" y="402" type="curve" name="ah01" smooth="yes"/>
      <point x="831" y="461"/>
      <point x="815" y="500"/>
      <point x="784" y="527" type="curve" smooth="yes"/>
      <point x="753" y="554"/>
      <point x="705" y="575"/>
      <point x="639" y="588" type="curve"/>
    </contour>
  </outline>
</glyph>
<glyph name="percent" format="1">
  <advance width="1233"/>
  <unicode hex="0025"/>
  <outline>
    <contour>
      <point x="351" y="793" type="curve" name="dv05" smooth="yes"/>
      <point x="260" y="793"/>
      <point x="181" y="828"/>
      <point x="125" y="884" type="curve" smooth="yes"/>
      <point x="65" y="944"/>
      <point x="33" y="1024"/>
      <point x="33" y="1112" type="curve" name="dh01" smooth="yes"/>
      <point x="33" y="1298"/>
      <point x="171" y="1432"/>
      <point x="352" y="1432" type="curve" name="dv02" smooth="yes"/>
      <point x="395" y="1432"/>
      <point x="436" y="1424"/>
      <point x="475" y="1408" type="curve" smooth="yes"/>
      <point x="514" y="1392"/>
      <point x="548" y="1369"/>
      <point x="578" y="1339" type="curve" smooth="yes"/>
      <point x="609" y="1308"/>
      <point x="633" y="1272"/>
      <point x="648" y="1236" type="curve" smooth="yes"/>
      <point x="664" y="1197"/>
      <point x="672" y="1156"/>
      <point x="672" y="1113" type="curve" name="dh04" smooth="yes"/>
      <point x="672" y="1025"/>
      <point x="639" y="944"/>
      <point x="580" y="885" type="curve" smooth="yes"/>
      <point x="524" y="829"/>
      <point x="443" y="793"/>
    </contour>
    <contour>
      <point x="351" y="928" type="curve" name="dv06" smooth="yes"/>
      <point x="400" y="928"/>
      <point x="447" y="946"/>
      <point x="483" y="981" type="curve" smooth="yes"/>
      <point x="514" y="1012"/>
      <point x="537" y="1057"/>
      <point x="537" y="1113" type="curve" name="dh03" smooth="yes"/>
      <point x="537" y="1164"/>
      <point x="519" y="1207"/>
      <point x="483" y="1243" type="curve" smooth="yes"/>
      <point x="446" y="1278"/>
      <point x="403" y="1296"/>
      <point x="353" y="1296" type="curve" name="dv01" smooth="yes"/>
      <point x="302" y="1296"/>
      <point x="258" y="1279"/>
      <point x="222" y="1244" type="curve" smooth="yes"/>
      <point x="189" y="1212"/>
      <point x="168" y="1165"/>
      <point x="168" y="1112" type="curve" name="dh02" smooth="yes"/>
      <point x="168" y="1059"/>
      <point x="186" y="1015"/>
      <point x="221" y="980" type="curve" smooth="yes"/>
      <point x="250" y="951"/>
      <point x="295" y="928"/>
    </contour>
    <contour>
      <point x="42" y="560" type="line" name="sh01"/>
      <point x="1192" y="996" type="line" name="sh02"/>
      <point x="1192" y="883" type="line"/>
      <point x="42" y="453" type="line" name="ih01"/>
    </contour>
    <contour>
      <point x="879" y="0" type="curve" name="ab01" smooth="yes"/>
      <point x="788" y="0"/>
      <point x="712" y="31"/>
      <point x="651" y="92" type="curve" smooth="yes"/>
      <point x="591" y="153"/>
      <point x="561" y="231"/>
      <point x="561" y="318" type="curve" name="ih02" smooth="yes"/>
      <point x="561" y="505"/>
      <point x="699" y="639"/>
      <point x="879" y="639" type="curve" name="dv04" smooth="yes"/>
      <point x="923" y="639"/>
      <point x="962" y="631"/>
      <point x="1001" y="615" type="curve" smooth="yes"/>
      <point x="1039" y="599"/>
      <point x="1073" y="576"/>
      <point x="1104" y="545" type="curve" smooth="yes"/>
      <point x="1137" y="512"/>
      <point x="1160" y="475"/>
      <point x="1175" y="440" type="curve" smooth="yes"/>
      <point x="1192" y="402"/>
      <point x="1200" y="362"/>
      <point x="1200" y="319" type="curve" name="hr01" smooth="yes"/>
      <point x="1200" y="235"/>
      <point x="1171" y="156"/>
      <point x="1107" y="92" type="curve" smooth="yes"/>
      <point x="1044" y="31"/>
      <point x="967" y="0"/>
    </contour>
    <contour>
      <point x="879" y="135" type="curve" name="sv01" smooth="yes"/>
      <point x="930" y="135"/>
      <point x="974" y="153"/>
      <point x="1010" y="189" type="curve" smooth="yes"/>
      <point x="1045" y="224"/>
      <point x="1063" y="268"/>
      <point x="1063" y="319" type="curve" name="dh05" smooth="yes"/>
      <point x="1063" y="422"/>
      <point x="980" y="504"/>
      <point x="879" y="504" type="curve" name="dv03" smooth="yes"/>
      <point x="776" y="504"/>
      <point x="696" y="424"/>
      <point x="696" y="319" type="curve" name="sh03" smooth="yes"/>
      <point x="696" y="215"/>
      <point x="776" y="135"/>
    </contour>
  </outline>
</glyph>
<glyph name="ampersand" format="1">
  <advance width="1233"/>
  <unicode hex="0026"/>
  <outline>
    <contour>
      <point x="408" y="-29" type="curve" name="dv01" smooth="yes"/>
      <point x="283" y="-29"/>
      <point x="173" y="7"/>
      <point x="96" y="78" type="curve" smooth="yes"/>
      <point x="20" y="146"/>
      <point x="-20" y="242"/>
      <point x="-20" y="362" type="curve" name="sh01" smooth="yes"/>
      <point x="-20" y="584"/>
      <point x="116" y="781"/>
      <point x="367" y="920" type="curve"/>
      <point x="344" y="963"/>
      <point x="335" y="989"/>
      <point x="324" y="1026" type="curve" smooth="yes"/>
      <point x="315" y="1061"/>
      <point x="309" y="1092"/>
      <point x="309" y="1135" type="curve" name="ah01" smooth="yes"/>
      <point x="309" y="1247"/>
      <point x="349" y="1345"/>
      <point x="432" y="1416" type="curve" smooth="yes"/>
      <point x="512" y="1484"/>
      <point x="626" y="1520"/>
      <point x="761" y="1520" type="curve" name="at01" smooth="yes"/>
      <point x="805" y="1520"/>
      <point x="848" y="1516"/>
      <point x="889" y="1508" type="curve" name="at02" smooth="yes"/>
      <point x="929" y="1500"/>
      <point x="969" y="1488"/>
      <point x="1008" y="1473" type="curve"/>
      <point x="973" y="1290" type="line" name="hr01"/>
      <point x="945" y="1315"/>
      <point x="911" y="1334"/>
      <point x="870" y="1347" type="curve" smooth="yes"/>
      <point x="829" y="1360"/>
      <point x="782" y="1366"/>
      <point x="738" y="1366" type="curve" name="sv01" smooth="yes"/>
      <point x="658" y="1366"/>
      <point x="596" y="1347"/>
      <point x="551" y="1309" type="curve" smooth="yes"/>
      <point x="506" y="1270"/>
      <point x="483" y="1217"/>
      <point x="483" y="1157" type="curve" name="sh02" smooth="yes"/>
      <point x="483" y="1126"/>
      <point x="489" y="1092"/>
      <point x="505" y="1045" type="curve" smooth="yes"/>
      <point x="520" y="1002"/>
      <point x="536" y="962"/>
      <point x="567" y="907" type="curve" smooth="yes"/>
      <point x="874" y="350" type="line" name="iv01"/>
      <point x="915" y="394"/>
      <point x="948" y="450"/>
      <point x="973" y="519" type="curve" smooth="yes"/>
      <point x="998" y="588"/>
      <point x="1014" y="665"/>
      <point x="1022" y="760" type="curve"/>
      <point x="1190" y="760" type="line"/>
      <point x="1179" y="647"/>
      <point x="1155" y="550"/>
      <point x="1112" y="458" type="curve" smooth="yes"/>
      <point x="1071" y="368"/>
      <point x="1015" y="289"/>
      <point x="944" y="221" type="curve"/>
      <point x="1067" y="0" type="line" name="ab01"/>
      <point x="868" y="0" type="line"/>
      <point x="809" y="113" type="line"/>
      <point x="744" y="65"/>
      <point x="686" y="32"/>
      <point x="614" y="7" type="curve" name="ab02" smooth="yes"/>
      <point x="547" y="-17"/>
      <point x="478" y="-29"/>
    </contour>
    <contour>
      <point x="456" y="129" type="curve" name="dv02" smooth="yes"/>
      <point x="504" y="129"/>
      <point x="548" y="139"/>
      <point x="597" y="158" type="curve" smooth="yes"/>
      <point x="644" y="177"/>
      <point x="690" y="201"/>
      <point x="741" y="240" type="curve"/>
      <point x="432" y="795" type="line"/>
      <point x="342" y="746"/>
      <point x="274" y="689"/>
      <point x="228" y="624" type="curve" smooth="yes"/>
      <point x="181" y="557"/>
      <point x="158" y="483"/>
      <point x="158" y="411" type="curve" name="sh03" smooth="yes"/>
      <point x="158" y="324"/>
      <point x="191" y="257"/>
      <point x="243" y="209" type="curve" smooth="yes"/>
      <point x="298" y="158"/>
      <point x="372" y="129"/>
    </contour>
  </outline>
</glyph>
<glyph name="parenleft" format="1">
  <advance width="1233"/>
  <unicode hex="0028"/>
  <outline>
    <contour>
      <point x="426" y="-270" type="line" name="hr00"/>
      <point x="386" y="-175"/>
      <point x="329" y="-3"/>
      <point x="310" y="76" type="qcurve"/>
      <point x="291" y="155"/>
      <point x="273" y="303"/>
      <point x="273" y="381" type="qcurve" name="dh01"/>
      <point x="273" y="527"/>
      <point x="337" y="827"/>
      <point x="402" y="978" type="qcurve"/>
      <point x="465" y="1125"/>
      <point x="655" y="1413"/>
      <point x="783" y="1554" type="qcurve" name="at01"/>
      <point x="942" y="1554" type="line"/>
      <point x="824" y="1402"/>
      <point x="648" y="1104"/>
      <point x="587" y="948" type="qcurve"/>
      <point x="467" y="642"/>
      <point x="467" y="340" type="qcurve" name="dh02"/>
      <point x="467" y="261"/>
      <point x="483" y="117"/>
      <point x="497" y="43" type="qcurve"/>
      <point x="513" y="-38"/>
      <point x="556" y="-189"/>
      <point x="586" y="-270" type="qcurve" name="av01"/>
    </contour>
  </outline>
</glyph>
<glyph name="parenright" format="1">
  <advance width="1233"/>
  <unicode hex="0029"/>
  <outline>
    <contour>
      <point x="545" y="1635" type="line" name="hr00"/>
      <point x="1076.65" y="1523.33"/>
      <point x="1077.11" y="879.86"/>
      <point x="1045.01" y="680.428" type="curve" smooth="yes" name="dh01"/>
      <point x="981.778" y="287.624"/>
      <point x="759.387" y="-155.68"/>
      <point x="237.025" y="-270.045" type="curve" name="at01"/>
      <point x="260.475" y="-127.115" type="line"/>
      <point x="664.039" y="52.6201"/>
      <point x="802.403" y="291.089"/>
      <point x="866.01" y="680.989" type="curve" smooth="yes" name="dh02"/>
      <point x="930.069" y="1073.66"/>
      <point x="828.153" y="1364.11"/>
      <point x="521.551" y="1492.07" type="curve" name="av01"/>
    </contour>
  </outline>
</glyph>
<glyph name="asterisk" format="1">
  <advance width="1233"/>
  <unicode hex="002A"/>
  <outline>
    <contour>
      <point x="250" y="486" type="line" name="hr00"/>
      <point x="492" y="857" type="line"/>
      <point x="128" y="1015" type="line"/>
      <point x="164" y="1118" type="line"/>
      <point x="540" y="995" type="line" name="iv01"/>
      <point x="560" y="1420" type="line" name="at01"/>
      <point x="668" y="1420" type="line"/>
      <point x="688" y="995" type="line" name="iv02"/>
      <point x="1064" y="1118" type="line"/>
      <point x="1100" y="1015" type="line"/>
      <point x="736" y="857" type="line"/>
      <point x="978" y="486" type="line"/>
      <point x="884" y="419" type="line" name="av01"/>
      <point x="614" y="776" type="line" name="iv03"/>
      <point x="344" y="419" type="line" name="av02"/>
    </contour>
  </outline>
</glyph>
<glyph name="period" format="1">
  <advance width="1233"/>
  <unicode hex="002E"/>
  <outline>
    <contour>
      <point x="613" y="-27" type="qcurve" name="hr00"/>
      <point x="545" y="-27"/>
      <point x="498" y="20" type="qcurve"/>
      <point x="451" y="67"/>
      <point x="451" y="142" type="qcurve" name="dh01"/>
      <point x="451" y="217"/>
      <point x="498" y="264" type="qcurve"/>
      <point x="545" y="311"/>
      <point x="613" y="311" type="qcurve" name="sv01"/>
      <point x="681" y="311"/>
      <point x="728" y="264" type="qcurve"/>
      <point x="775" y="217"/>
      <point x="775" y="142" type="qcurve" name="dh02"/>
      <point x="775" y="67"/>
      <point x="728" y="20" type="qcurve"/>
      <point x="681" y="-27"/>
    </contour>
  </outline>
</glyph>
<glyph name="zero" format="1">
  <advance width="1233"/>
  <unicode hex="0030"/>
  <outline>
    <contour>
      <point x="480" y="-29" type="qcurve" name="hr00"/>
      <point x="286" y="-29"/>
      <point x="192" y="95" type="qcurve"/>
      <point x="98" y="219"/>
      <point x="98" y="464" type="qcurve" name="sh01"/>
      <point x="98" y="563"/>
      <point x="127" y="779"/>
      <point x="154" y="885" type="qcurve"/>
      <point x="181" y="991"/>
      <point x="255" y="1175"/>
      <point x="297" y="1244" type="qcurve" name="sh03"/>
      <point x="339" y="1315"/>
      <point x="435" y="1418"/>
      <point x="493" y="1453" type="qcurve"/>
      <point x="545" y="1485"/>
      <point x="671" y="1520"/>
      <point x="749" y="1520" type="qcurve" name="at01"/>
      <point x="850" y="1520"/>
      <point x="992" y="1459"/>
      <point x="1040" y="1396" type="qcurve"/>
      <point x="1085" y="1336"/>
      <point x="1135" y="1156"/>
      <point x="1135" y="1028" type="qcurve" name="sh04"/>
      <point x="1135" y="927"/>
      <point x="1105" y="707"/>
      <point x="1079" y="608" type="qcurve"/>
      <point x="1053" y="505"/>
      <point x="979" y="322"/>
      <point x="936" y="249" type="qcurve" name="sh05"/>
      <point x="894" y="177"/>
      <point x="798" y="73"/>
      <point x="741" y="39" type="qcurve"/>
      <point x="687" y="7"/>
      <point x="558" y="-29"/>
    </contour>
    <contour>
      <point x="502" y="135" type="qcurve" name="dv01"/>
      <point x="587" y="135"/>
      <point x="655" y="186" type="qcurve"/>
      <point x="694" y="215"/>
      <point x="750" y="296"/>
      <point x="770" y="334" type="qcurve"/>
      <point x="803" y="400"/>
      <point x="863" y="581"/>
      <point x="886" y="681" type="qcurve"/>
      <point x="909" y="784"/>
      <point x="932" y="976"/>
      <point x="932" y="1057" type="qcurve" name="ah01"/>
      <point x="932" y="1141"/>
      <point x="908" y="1252"/>
      <point x="883" y="1287" type="qcurve"/>
      <point x="858" y="1322"/>
      <point x="780" y="1356"/>
      <point x="732" y="1356" type="qcurve" name="sv01"/>
      <point x="690" y="1356"/>
      <point x="612" y="1331"/>
      <point x="578" y="1306" type="qcurve"/>
      <point x="542" y="1280"/>
      <point x="484" y="1203"/>
      <point x="461" y="1158" type="qcurve"/>
      <point x="427" y="1092"/>
      <point x="368" y="918"/>
      <point x="345" y="812" type="qcurve"/>
      <point x="321" y="702"/>
      <point x="299" y="506"/>
      <point x="299" y="429" type="qcurve" name="sh02"/>
      <point x="299" y="342"/>
      <point x="325" y="236"/>
      <point x="351" y="203" type="qcurve"/>
      <point x="375" y="172"/>
      <point x="451" y="135"/>
    </contour>
    <contour>
      <point x="550" y="401" type="qcurve"/>
      <point x="542" y="401"/>
      <point x="538" y="403" type="qcurve"/>
      <point x="515" y="411"/>
      <point x="497" y="477"/>
      <point x="497" y="526" type="qcurve"/>
      <point x="497" y="540"/>
      <point x="498" y="563"/>
      <point x="499" y="578" type="qcurve"/>
      <point x="501" y="616"/>
      <point x="507" y="678"/>
      <point x="514" y="730"/>
      <point x="523" y="775"/>
      <point x="528" y="798" type="qcurve"/>
      <point x="531" y="809"/>
      <point x="540" y="848"/>
      <point x="555" y="897"/>
      <point x="575" y="952"/>
      <point x="587" y="979" type="qcurve"/>
      <point x="613" y="1036"/>
      <point x="664" y="1089"/>
      <point x="686" y="1089" type="qcurve"/>
      <point x="688" y="1089"/>
      <point x="692" y="1089"/>
      <point x="697" y="1087" type="qcurve"/>
      <point x="716" y="1082"/>
      <point x="741" y="1030"/>
      <point x="741" y="969" type="qcurve"/>
      <point x="740" y="963"/>
      <point x="740" y="949"/>
      <point x="740" y="941" type="qcurve"/>
      <point x="738" y="903"/>
      <point x="734" y="845"/>
      <point x="728" y="800"/>
      <point x="722" y="765"/>
      <point x="718" y="750" type="qcurve"/>
      <point x="713" y="729"/>
      <point x="699" y="678"/>
      <point x="682" y="623"/>
      <point x="662" y="566"/>
      <point x="652" y="541" type="qcurve"/>
      <point x="626" y="474"/>
      <point x="576" y="401"/>
    </contour>
  </outline>
</glyph>
<glyph name="one" format="1">
  <advance width="1233"/>
  <unicode hex="0031"/>
  <outline>
    <contour>
      <point x="156" y="170" type="line" name="hr00"/>
      <point x="469" y="170" type="line"/>
      <point x="690" y="1311" type="line" name="iv01"/>
      <point x="338" y="1235" type="line" name="iv02"/>
      <point x="373" y="1419" type="line"/>
      <point x="725" y="1493" type="line" name="at01"/>
      <point x="928" y="1493" type="line"/>
      <point x="670" y="170" type="line" name="sv01"/>
      <point x="979" y="170" type="line" name="sv02"/>
      <point x="946" y="0" type="line" name="ab01"/>
      <point x="123" y="0" type="line"/>
    </contour>
  </outline>
</glyph>
<glyph name="two" format="1">
  <advance width="1233"/>
  <unicode hex="0032"/>
  <outline>
    <contour>
      <point x="32" y="136" type="line" name="hr00" smooth="yes"/>
      <point x="37" y="163"/>
      <point x="48" y="178"/>
      <point x="65" y="193" type="curve" smooth="yes"/>
      <point x="350" y="444" type="line"/>
      <point x="389" y="479" type="line" smooth="yes"/>
      <point x="738" y="791"/>
      <point x="926" y="1002"/>
      <point x="926" y="1160" type="curve" name="dh01" smooth="yes"/>
      <point x="926" y="1274"/>
      <point x="837" y="1352"/>
      <point x="684" y="1352" type="curve" name="sv01" smooth="yes"/>
      <point x="620" y="1352"/>
      <point x="550" y="1339"/>
      <point x="486" y="1319" type="curve" smooth="yes"/>
      <point x="419" y="1298"/>
      <point x="338" y="1262"/>
      <point x="254" y="1217" type="curve" name="iv01"/>
      <point x="295" y="1421" type="line"/>
      <point x="375" y="1456"/>
      <point x="449" y="1480"/>
      <point x="512" y="1495" type="curve" smooth="yes"/>
      <point x="588" y="1514"/>
      <point x="652" y="1520"/>
      <point x="709" y="1520" type="curve" name="at01" smooth="yes"/>
      <point x="965" y="1520"/>
      <point x="1126" y="1384"/>
      <point x="1126" y="1163" type="curve" name="dh02" smooth="yes"/>
      <point x="1126" y="1107"/>
      <point x="1117" y="1053"/>
      <point x="1090" y="989" type="curve" smooth="yes"/>
      <point x="1063" y="924"/>
      <point x="1024" y="861"/>
      <point x="973" y="799" type="curve" smooth="yes"/>
      <point x="949" y="770"/>
      <point x="920" y="739"/>
      <point x="854" y="678" type="curve" smooth="yes"/>
      <point x="722" y="555"/>
      <point x="623" y="472"/>
      <point x="588" y="444" type="curve" smooth="yes"/>
      <point x="258" y="170" type="line" name="sv02"/>
      <point x="952" y="170" type="line"/>
      <point x="920" y="0" type="line" name="sh01"/>
      <point x="6" y="0" type="line"/>
    </contour>
  </outline>
</glyph>
<glyph name="three" format="1">
  <advance width="1233"/>
  <unicode hex="0033"/>
  <note>
	three
  </note>
  <outline>
    <contour>
      <point x="583" y="-29"/>
      <point x="728" y="20"/>
      <point x="837" y="113" type="curve" smooth="yes"/>
      <point x="949" y="209"/>
      <point x="1004" y="335"/>
      <point x="1004" y="484" type="curve" smooth="yes"/>
      <point x="1004" y="576"/>
      <point x="983" y="641"/>
      <point x="940" y="697" type="curve" smooth="yes"/>
      <point x="897" y="752"/>
      <point x="837" y="786"/>
      <point x="762" y="799" type="curve"/>
      <point x="875" y="822"/>
      <point x="957" y="871"/>
      <point x="1013" y="936" type="curve" smooth="yes"/>
      <point x="1073" y="1005"/>
      <point x="1102" y="1091"/>
      <point x="1102" y="1187" type="curve" smooth="yes"/>
      <point x="1102" y="1295"/>
      <point x="1063" y="1377"/>
      <point x="994" y="1433" type="curve" smooth="yes"/>
      <point x="922" y="1492"/>
      <point x="821" y="1520"/>
      <point x="697" y="1520" type="curve" smooth="yes"/>
      <point x="641" y="1520"/>
      <point x="573" y="1514"/>
      <point x="517" y="1505" type="curve" smooth="yes"/>
      <point x="461" y="1497"/>
      <point x="372" y="1475"/>
      <point x="297" y="1456" type="curve"/>
      <point x="260" y="1270" type="line"/>
      <point x="337" y="1297"/>
      <point x="395" y="1315"/>
      <point x="470" y="1330" type="curve" smooth="yes"/>
      <point x="535" y="1343"/>
      <point x="593" y="1350"/>
      <point x="650" y="1350" type="curve" smooth="yes"/>
      <point x="735" y="1350"/>
      <point x="798" y="1334"/>
      <point x="839" y="1303" type="curve" smooth="yes"/>
      <point x="878" y="1274"/>
      <point x="901" y="1228"/>
      <point x="901" y="1157" type="curve" smooth="yes"/>
      <point x="901" y="1070"/>
      <point x="868" y="1002"/>
      <point x="808" y="955" type="curve" smooth="yes"/>
      <point x="745" y="906"/>
      <point x="658" y="881"/>
      <point x="557" y="881" type="curve" smooth="yes"/>
      <point x="403" y="881" type="line"/>
      <point x="371" y="715" type="line"/>
      <point x="524" y="715" type="line" smooth="yes"/>
      <point x="617" y="715"/>
      <point x="687" y="695"/>
      <point x="734" y="655" type="curve" smooth="yes"/>
      <point x="779" y="616"/>
      <point x="805" y="558"/>
      <point x="805" y="475" type="curve" smooth="yes"/>
      <point x="805" y="375"/>
      <point x="766" y="296"/>
      <point x="693" y="235" type="curve" smooth="yes"/>
      <point x="620" y="174"/>
      <point x="526" y="141"/>
      <point x="398" y="141" type="curve" smooth="yes"/>
      <point x="331" y="141"/>
      <point x="271" y="149"/>
      <point x="206" y="168" type="curve" smooth="yes"/>
      <point x="141" y="187"/>
      <point x="85" y="209"/>
      <point x="20" y="246" type="curve"/>
      <point x="-18" y="45" type="line"/>
      <point x="51" y="18"/>
      <point x="107" y="3"/>
      <point x="179" y="-10" type="curve" smooth="yes"/>
      <point x="247" y="-22"/>
      <point x="307" y="-29"/>
      <point x="383" y="-29" type="curve" smooth="yes"/>
    </contour>
  </outline>
</glyph>
<glyph name="four" format="1">
  <advance width="1233"/>
  <unicode hex="0034"/>
  <outline>
    <contour>
      <point x="659" y="356" type="line" name="hr00"/>
      <point x="25" y="356" type="line"/>
      <point x="61" y="547" type="line"/>
      <point x="846" y="1493" type="line" name="at01"/>
      <point x="1079" y="1493" type="line"/>
      <point x="889" y="520" type="line" name="sv01"/>
      <point x="1087" y="520" type="line"/>
      <point x="1057" y="356" type="line" name="sv02"/>
      <point x="858" y="356" type="line"/>
      <point x="788" y="0" type="line" name="ab01"/>
      <point x="590" y="0" type="line"/>
    </contour>
    <contour>
      <point x="690" y="520" type="line" name="dv01"/>
      <point x="842" y="1282" type="line"/>
      <point x="217" y="520" type="line"/>
    </contour>
  </outline>
</glyph>
<glyph name="five" format="1">
  <advance width="1233"/>
  <unicode hex="0035"/>
  <outline>
    <contour>
      <point x="366" y="-29" type="curve" name="hr00" smooth="yes"/>
      <point x="302" y="-29"/>
      <point x="233" y="-24"/>
      <point x="170" y="-13" type="curve" smooth="yes"/>
      <point x="107" y="-2"/>
      <point x="52" y="14"/>
      <point x="4" y="35" type="curve"/>
      <point x="45" y="240" type="line"/>
      <point x="106" y="203"/>
      <point x="164" y="179"/>
      <point x="217" y="164" type="curve" smooth="yes"/>
      <point x="277" y="147"/>
      <point x="339" y="139"/>
      <point x="395" y="139" type="curve" name="dv01" smooth="yes"/>
      <point x="519" y="139"/>
      <point x="628" y="178"/>
      <point x="708" y="255" type="curve" smooth="yes"/>
      <point x="781" y="326"/>
      <point x="829" y="429"/>
      <point x="829" y="545" type="curve" name="dh01" smooth="yes"/>
      <point x="829" y="718"/>
      <point x="717" y="821"/>
      <point x="525" y="821" type="curve" name="dv02" smooth="yes"/>
      <point x="423" y="821"/>
      <point x="306" y="793"/>
      <point x="207" y="743" type="curve"/>
      <point x="352" y="1493" type="line" name="at01"/>
      <point x="1108" y="1493" type="line"/>
      <point x="1075" y="1323" type="line" name="sv01"/>
      <point x="504" y="1323" type="line"/>
      <point x="432" y="956" type="line" name="iv01"/>
      <point x="463" y="967"/>
      <point x="493" y="975"/>
      <point x="524" y="980" type="curve" smooth="yes"/>
      <point x="553" y="985"/>
      <point x="584" y="987"/>
      <point x="612" y="987" type="curve" name="dv03" smooth="yes"/>
      <point x="740" y="987"/>
      <point x="842" y="947"/>
      <point x="915" y="875" type="curve" smooth="yes"/>
      <point x="991" y="802"/>
      <point x="1030" y="698"/>
      <point x="1030" y="574" type="curve" name="dh02" smooth="yes"/>
      <point x="1030" y="491"/>
      <point x="1013" y="411"/>
      <point x="978" y="334" type="curve" smooth="yes"/>
      <point x="943" y="256"/>
      <point x="893" y="188"/>
      <point x="829" y="131" type="curve" smooth="yes"/>
      <point x="772" y="80"/>
      <point x="707" y="39"/>
      <point x="628" y="11" type="curve" smooth="yes"/>
      <point x="552" y="-16"/>
      <point x="470" y="-29"/>
    </contour>
  </outline>
</glyph>
<glyph name="six" format="1">
  <advance width="1233"/>
  <unicode hex="0036"/>
  <outline>
    <contour>
      <point x="515" y="-29" type="curve" name="hr00" smooth="yes"/>
      <point x="391" y="-29"/>
      <point x="279" y="7"/>
      <point x="202" y="87" type="curve" smooth="yes"/>
      <point x="130" y="162"/>
      <point x="92" y="274"/>
      <point x="92" y="433" type="curve" name="sh01" smooth="yes"/>
      <point x="92" y="525"/>
      <point x="104" y="645"/>
      <point x="131" y="765" type="curve" smooth="yes"/>
      <point x="156" y="881"/>
      <point x="195" y="999"/>
      <point x="238" y="1091" type="curve" smooth="yes"/>
      <point x="306" y="1239"/>
      <point x="392" y="1345"/>
      <point x="489" y="1413" type="curve" smooth="yes"/>
      <point x="590" y="1484"/>
      <point x="709" y="1520"/>
      <point x="846" y="1520" type="curve" name="sh02" smooth="yes"/>
      <point x="897" y="1520"/>
      <point x="949" y="1516"/>
      <point x="994" y="1505" type="curve" smooth="yes"/>
      <point x="1035" y="1496"/>
      <point x="1085" y="1479"/>
      <point x="1128" y="1460" type="curve"/>
      <point x="1092" y="1274" type="line"/>
      <point x="1053" y="1299"/>
      <point x="1011" y="1318"/>
      <point x="966" y="1331" type="curve" smooth="yes"/>
      <point x="921" y="1344"/>
      <point x="872" y="1350"/>
      <point x="825" y="1350" type="curve" name="sv01" smooth="yes"/>
      <point x="692" y="1350"/>
      <point x="589" y="1303"/>
      <point x="505" y="1207" type="curve" smooth="yes"/>
      <point x="422" y="1112"/>
      <point x="361" y="969"/>
      <point x="324" y="780" type="curve" name="ih01"/>
      <point x="417" y="919"/>
      <point x="538" y="987"/>
      <point x="696" y="987" type="curve" name="dv03" smooth="yes"/>
      <point x="813" y="987"/>
      <point x="906" y="952"/>
      <point x="967" y="888" type="curve" smooth="yes"/>
      <point x="1034" y="820"/>
      <point x="1063" y="723"/>
      <point x="1063" y="603" type="curve" name="sh03" smooth="yes"/>
      <point x="1063" y="531"/>
      <point x="1052" y="453"/>
      <point x="1023" y="366" type="curve" smooth="yes"/>
      <point x="995" y="282"/>
      <point x="959" y="220"/>
      <point x="915" y="164" type="curve" smooth="yes"/>
      <point x="864" y="99"/>
      <point x="805" y="51"/>
      <point x="738" y="19" type="curve" smooth="yes"/>
      <point x="675" y="-12"/>
      <point x="603" y="-29"/>
    </contour>
    <contour>
      <point x="521" y="129" type="curve" name="dv01" smooth="yes"/>
      <point x="610" y="129"/>
      <point x="697" y="171"/>
      <point x="764" y="263" type="curve" smooth="yes"/>
      <point x="827" y="351"/>
      <point x="860" y="466"/>
      <point x="860" y="583" type="curve" name="ah01" smooth="yes"/>
      <point x="860" y="666"/>
      <point x="843" y="726"/>
      <point x="802" y="769" type="curve" smooth="yes"/>
      <point x="763" y="809"/>
      <point x="704" y="829"/>
      <point x="639" y="829" type="curve" name="dv02" smooth="yes"/>
      <point x="539" y="829"/>
      <point x="454" y="783"/>
      <point x="391" y="703" type="curve" smooth="yes"/>
      <point x="326" y="619"/>
      <point x="293" y="507"/>
      <point x="293" y="394" type="curve" name="sh04" smooth="yes"/>
      <point x="293" y="306"/>
      <point x="313" y="243"/>
      <point x="353" y="198" type="curve" smooth="yes"/>
      <point x="396" y="151"/>
      <point x="457" y="129"/>
    </contour>
  </outline>
</glyph>
<glyph name="seven" format="1">
  <advance width="1233"/>
  <unicode hex="0037"/>
  <outline>
    <contour>
      <point x="952" y="1323" type="line" name="hr00"/>
      <point x="244" y="1323" type="line"/>
      <point x="276" y="1493" type="line" name="at01"/>
      <point x="1212" y="1493" type="line"/>
      <point x="1196" y="1399" type="line"/>
      <point x="391" y="0" type="line" name="ab01"/>
      <point x="174" y="0" type="line"/>
    </contour>
  </outline>
</glyph>
<glyph name="eight" format="1">
  <advance width="1233"/>
  <unicode hex="0038"/>
  <outline>
    <contour>
      <point x="483" y="-29" type="qcurve" name="dv01"/>
      <point x="383" y="-29"/>
      <point x="219" y="22"/>
      <point x="159" y="73" type="qcurve"/>
      <point x="105" y="120"/>
      <point x="41" y="260"/>
      <point x="41" y="354" type="qcurve" name="dh01"/>
      <point x="41" y="441"/>
      <point x="97" y="584"/>
      <point x="146" y="639" type="qcurve"/>
      <point x="195" y="694"/>
      <point x="337" y="774"/>
      <point x="430" y="793" type="qcurve" name="ih02"/>
      <point x="373" y="813"/>
      <point x="295" y="869"/>
      <point x="269" y="904" type="qcurve"/>
      <point x="240" y="942"/>
      <point x="215" y="1031"/>
      <point x="215" y="1081" type="qcurve" name="ih03"/>
      <point x="215" y="1171"/>
      <point x="291" y="1332"/>
      <point x="362" y="1393" type="qcurve"/>
      <point x="437" y="1457"/>
      <point x="625" y="1520"/>
      <point x="726" y="1520" type="qcurve" name="at01"/>
      <point x="813" y="1520"/>
      <point x="960" y="1475"/>
      <point x="1015" y="1430" type="qcurve"/>
      <point x="1067" y="1388"/>
      <point x="1126" y="1268"/>
      <point x="1126" y="1191" type="qcurve" name="sh01"/>
      <point x="1126" y="1121"/>
      <point x="1076" y="990"/>
      <point x="1029" y="936" type="qcurve" name="hr01"/>
      <point x="982" y="882"/>
      <point x="850" y="801"/>
      <point x="772" y="782" type="qcurve" name="ih04"/>
      <point x="897" y="752"/>
      <point x="962" y="669" type="qcurve"/>
      <point x="994" y="627"/>
      <point x="1026" y="520"/>
      <point x="1026" y="455" type="qcurve" name="dh04"/>
      <point x="1026" y="352"/>
      <point x="949" y="173"/>
      <point x="875" y="107" type="qcurve"/>
      <point x="803" y="42"/>
      <point x="604" y="-29"/>
    </contour>
    <contour>
      <point x="634" y="866" type="qcurve" name="dv03"/>
      <point x="758" y="866"/>
      <point x="842" y="953" type="qcurve"/>
      <point x="884" y="997"/>
      <point x="926" y="1103"/>
      <point x="926" y="1162" type="qcurve" name="ih01"/>
      <point x="926" y="1212"/>
      <point x="896" y="1283"/>
      <point x="866" y="1310" type="qcurve"/>
      <point x="806" y="1364"/>
      <point x="706" y="1364" type="qcurve" name="hr02"/>
      <point x="640" y="1364"/>
      <point x="536" y="1322"/>
      <point x="498" y="1284" type="qcurve"/>
      <point x="416" y="1203"/>
      <point x="416" y="1081" type="qcurve" name="sh02"/>
      <point x="416" y="980"/>
      <point x="475" y="923" type="qcurve"/>
      <point x="533" y="866"/>
    </contour>
    <contour>
      <point x="494" y="127" type="qcurve" name="hr03"/>
      <point x="566" y="127"/>
      <point x="686" y="174"/>
      <point x="731" y="219" type="qcurve"/>
      <point x="776" y="265"/>
      <point x="821" y="386"/>
      <point x="821" y="458" type="qcurve" name="dh03"/>
      <point x="821" y="520"/>
      <point x="788" y="610"/>
      <point x="755" y="643" type="qcurve"/>
      <point x="689" y="709"/>
      <point x="572" y="709" type="qcurve" name="dv02"/>
      <point x="428" y="709"/>
      <point x="338" y="611" type="qcurve"/>
      <point x="292" y="561"/>
      <point x="246" y="435"/>
      <point x="246" y="364" type="qcurve" name="dh02"/>
      <point x="246" y="304"/>
      <point x="279" y="222"/>
      <point x="313" y="190" type="qcurve"/>
      <point x="347" y="158"/>
      <point x="435" y="127"/>
    </contour>
  </outline>
</glyph>
<glyph name="nine" format="1">
  <advance width="1233"/>
  <unicode hex="0039"/>
  <outline>
    <contour>
      <point x="343" y="-29" type="curve" name="hr00" smooth="yes"/>
      <point x="292" y="-29"/>
      <point x="244" y="-24"/>
      <point x="197" y="-14" type="curve" smooth="yes"/>
      <point x="154" y="-5"/>
      <point x="110" y="8"/>
      <point x="63" y="31" type="curve"/>
      <point x="98" y="217" type="line"/>
      <point x="137" y="192"/>
      <point x="179" y="174"/>
      <point x="224" y="161" type="curve" smooth="yes"/>
      <point x="270" y="148"/>
      <point x="317" y="141"/>
      <point x="366" y="141" type="curve" name="dv01" smooth="yes"/>
      <point x="495" y="141"/>
      <point x="602" y="189"/>
      <point x="686" y="285" type="curve" smooth="yes"/>
      <point x="769" y="380"/>
      <point x="829" y="522"/>
      <point x="866" y="711" type="curve" name="ih01"/>
      <point x="821" y="644"/>
      <point x="768" y="592"/>
      <point x="705" y="557" type="curve" smooth="yes"/>
      <point x="637" y="518"/>
      <point x="568" y="504"/>
      <point x="492" y="504" type="curve" name="dv02" smooth="yes"/>
      <point x="376" y="504"/>
      <point x="288" y="539"/>
      <point x="224" y="604" type="curve" smooth="yes"/>
      <point x="159" y="671"/>
      <point x="127" y="766"/>
      <point x="127" y="889" type="curve" name="sh01" smooth="yes"/>
      <point x="127" y="973"/>
      <point x="142" y="1052"/>
      <point x="167" y="1127" type="curve" smooth="yes"/>
      <point x="194" y="1204"/>
      <point x="231" y="1274"/>
      <point x="274" y="1327" type="curve" smooth="yes"/>
      <point x="323" y="1388"/>
      <point x="385" y="1440"/>
      <point x="452" y="1472" type="curve" smooth="yes"/>
      <point x="518" y="1504"/>
      <point x="593" y="1520"/>
      <point x="676" y="1520" type="curve" name="at01" smooth="yes"/>
      <point x="811" y="1520"/>
      <point x="918" y="1479"/>
      <point x="990" y="1403" type="curve" smooth="yes"/>
      <point x="1063" y="1326"/>
      <point x="1100" y="1211"/>
      <point x="1100" y="1059" type="curve" name="sh03" smooth="yes"/>
      <point x="1100" y="967"/>
      <point x="1088" y="846"/>
      <point x="1061" y="726" type="curve" smooth="yes"/>
      <point x="1034" y="605"/>
      <point x="998" y="497"/>
      <point x="954" y="401" type="curve" smooth="yes"/>
      <point x="885" y="252"/>
      <point x="803" y="150"/>
      <point x="703" y="79" type="curve" smooth="yes"/>
      <point x="595" y="3"/>
      <point x="476" y="-29"/>
    </contour>
    <contour>
      <point x="551" y="662" type="curve" name="dv03" smooth="yes"/>
      <point x="751" y="662"/>
      <point x="897" y="855"/>
      <point x="897" y="1097" type="curve" name="ah01" smooth="yes"/>
      <point x="897" y="1274"/>
      <point x="811" y="1362"/>
      <point x="671" y="1362" type="curve" name="sv01" smooth="yes"/>
      <point x="575" y="1362"/>
      <point x="490" y="1315"/>
      <point x="427" y="1228" type="curve" smooth="yes"/>
      <point x="367" y="1144"/>
      <point x="330" y="1027"/>
      <point x="330" y="907" type="curve" name="sh02" smooth="yes"/>
      <point x="330" y="831"/>
      <point x="345" y="766"/>
      <point x="388" y="722" type="curve" smooth="yes"/>
      <point x="427" y="682"/>
      <point x="486" y="662"/>
    </contour>
  </outline>
</glyph>
<glyph name="colon" format="1">
  <advance width="1233"/>
  <unicode hex="003A"/>
  <note>
	colon
  </note>
  <outline>
    <contour>
      <point x="772" y="716"/>
      <point x="824" y="733"/>
      <point x="864" y="770" type="curve" smooth="yes"/>
      <point x="907" y="809"/>
      <point x="925" y="862"/>
      <point x="925" y="913" type="curve" smooth="yes"/>
      <point x="925" y="956"/>
      <point x="911" y="990"/>
      <point x="890" y="1013" type="curve" smooth="yes"/>
      <point x="867" y="1037"/>
      <point x="837" y="1054"/>
      <point x="790" y="1054" type="curve" smooth="yes"/>
      <point x="739" y="1054"/>
      <point x="693" y="1033"/>
      <point x="657" y="1000" type="curve" smooth="yes"/>
      <point x="616" y="963"/>
      <point x="595" y="915"/>
      <point x="595" y="863" type="curve" smooth="yes"/>
      <point x="595" y="824"/>
      <point x="603" y="788"/>
      <point x="631" y="757" type="curve" smooth="yes"/>
      <point x="658" y="728"/>
      <point x="691" y="716"/>
      <point x="728" y="716" type="curve" smooth="yes"/>
    </contour>
    <contour>
      <point x="666" y="0"/>
      <point x="713" y="19"/>
      <point x="750" y="54" type="curve" smooth="yes"/>
      <point x="791" y="92"/>
      <point x="812" y="139"/>
      <point x="812" y="194" type="curve" smooth="yes"/>
      <point x="812" y="241"/>
      <point x="798" y="274"/>
      <point x="777" y="297" type="curve" smooth="yes"/>
      <point x="750" y="328"/>
      <point x="714" y="338"/>
      <point x="677" y="338" type="curve" smooth="yes"/>
      <point x="626" y="338"/>
      <point x="579" y="317"/>
      <point x="544" y="285" type="curve" smooth="yes"/>
      <point x="501" y="246"/>
      <point x="482" y="195"/>
      <point x="482" y="143" type="curve" smooth="yes"/>
      <point x="482" y="106"/>
      <point x="492" y="69"/>
      <point x="516" y="42" type="curve" smooth="yes"/>
      <point x="539" y="15"/>
      <point x="574" y="0"/>
      <point x="617" y="0" type="curve" smooth="yes"/>
    </contour>
  </outline>
</glyph>
<glyph name="semicolon" format="1">
  <advance width="1233"/>
  <unicode hex="003B"/>
  <outline>
    <contour>
      <point x="723" y="713" type="qcurve" name="hr00"/>
      <point x="652" y="713"/>
      <point x="611" y="763" type="qcurve"/>
      <point x="579" y="801"/>
      <point x="579" y="856" type="qcurve"/>
      <point x="579" y="865"/>
      <point x="581" y="883"/>
      <point x="583" y="892" type="qcurve"/>
      <point x="590" y="934"/>
      <point x="626" y="997"/>
      <point x="652" y="1019" type="qcurve"/>
      <point x="678" y="1042"/>
      <point x="744" y="1068"/>
      <point x="779" y="1068" type="qcurve" name="dv01"/>
      <point x="814" y="1068"/>
      <point x="873" y="1043"/>
      <point x="893" y="1020" type="qcurve"/>
      <point x="926" y="982"/>
      <point x="926" y="926" type="qcurve"/>
      <point x="926" y="910"/>
      <point x="923" y="892" type="qcurve"/>
      <point x="908" y="812"/>
      <point x="852" y="763" type="qcurve"/>
      <point x="826" y="740"/>
      <point x="761" y="713"/>
    </contour>
    <contour>
      <point x="339" y="-351" type="line"/>
      <point x="614" y="-237"/>
      <point x="659" y="0" type="qcurve" name="ab01"/>
      <point x="645" y="-3"/>
      <point x="627" y="-5"/>
      <point x="617" y="-5" type="qcurve" name="ab02"/>
      <point x="584" y="-5"/>
      <point x="528" y="16"/>
      <point x="508" y="36" type="qcurve"/>
      <point x="478" y="67"/>
      <point x="478" y="120" type="qcurve"/>
      <point x="478" y="129" type="line"/>
      <point x="478" y="134"/>
      <point x="479" y="146"/>
      <point x="480" y="153" type="qcurve"/>
      <point x="486" y="188"/>
      <point x="518" y="246"/>
      <point x="547" y="269" type="qcurve"/>
      <point x="576" y="292"/>
      <point x="640" y="312"/>
      <point x="672" y="312" type="qcurve" name="sv01"/>
      <point x="763" y="312"/>
      <point x="802" y="241" type="qcurve"/>
      <point x="815" y="218"/>
      <point x="827" y="160"/>
      <point x="827" y="132" type="qcurve"/>
      <point x="827" y="115"/>
      <point x="823" y="65"/>
      <point x="820" y="44" type="qcurve"/>
      <point x="806" y="-48"/>
      <point x="731" y="-205"/>
      <point x="674" y="-267" type="qcurve"/>
      <point x="618" y="-328"/>
      <point x="462" y="-429"/>
      <point x="371" y="-460" type="qcurve" name="av01"/>
    </contour>
  </outline>
</glyph>
<glyph name="equal" format="1">
  <advance width="1233"/>
  <unicode hex="003D"/>
  <outline>
    <contour>
      <point x="88" y="930" type="line" name="hr00"/>
      <point x="1145" y="930" type="line" name="dv04"/>
      <point x="1145" y="760" type="line" name="dv03"/>
      <point x="88" y="760" type="line"/>
    </contour>
    <contour>
      <point x="88" y="524" type="line"/>
      <point x="1145" y="524" type="line" name="dv02"/>
      <point x="1145" y="352" type="line" name="dv01"/>
      <point x="88" y="352" type="line"/>
    </contour>
  </outline>
</glyph>
<glyph name="greater" format="1">
  <advance width="1233"/>
  <unicode hex="003E"/>
  <note>
	greater
  </note>
  <outline>
    <contour>
      <point x="88" y="141" type="line"/>
      <point x="1145" y="559" type="line"/>
      <point x="1145" y="725" type="line"/>
      <point x="88" y="1143" type="line"/>
      <point x="88" y="961" type="line"/>
      <point x="938" y="641" type="line"/>
      <point x="88" y="324" type="line"/>
    </contour>
  </outline>
</glyph>
<glyph name="question" format="1">
  <advance width="1233"/>
  <unicode hex="003F"/>
  <outline>
    <contour>
      <point x="546" y="583" type="line" name="hr00" smooth="yes"/>
      <point x="554" y="635"/>
      <point x="572" y="684"/>
      <point x="599" y="729" type="curve" smooth="yes"/>
      <point x="627" y="776"/>
      <point x="666" y="819"/>
      <point x="738" y="880" type="curve" smooth="yes"/>
      <point x="842" y="969" type="line" smooth="yes"/>
      <point x="898" y="1016"/>
      <point x="925" y="1045"/>
      <point x="944" y="1072" type="curve" smooth="yes"/>
      <point x="965" y="1102"/>
      <point x="978" y="1133"/>
      <point x="983" y="1165" type="curve" name="sh01" smooth="yes"/>
      <point x="985" y="1177"/>
      <point x="986" y="1188"/>
      <point x="986" y="1199" type="curve" name="ah01" smooth="yes"/>
      <point x="986" y="1242"/>
      <point x="971" y="1280"/>
      <point x="940" y="1309" type="curve" smooth="yes"/>
      <point x="904" y="1344"/>
      <point x="848" y="1364"/>
      <point x="775" y="1364" type="curve" name="dv03" smooth="yes"/>
      <point x="722" y="1364"/>
      <point x="664" y="1353"/>
      <point x="602" y="1330" type="curve" smooth="yes"/>
      <point x="538" y="1307"/>
      <point x="471" y="1272"/>
      <point x="398" y="1227" type="curve"/>
      <point x="428" y="1415" type="line" name="sh03"/>
      <point x="562" y="1489"/>
      <point x="700" y="1528"/>
      <point x="833" y="1528" type="curve" name="dv04" smooth="yes"/>
      <point x="954" y="1528"/>
      <point x="1049" y="1499"/>
      <point x="1116" y="1432" type="curve" smooth="yes"/>
      <point x="1164" y="1384"/>
      <point x="1192" y="1318"/>
      <point x="1192" y="1250" type="curve" name="sh04" smooth="yes"/>
      <point x="1192" y="1227"/>
      <point x="1189" y="1196"/>
      <point x="1186" y="1175" type="curve" name="sh05" smooth="yes"/>
      <point x="1179" y="1126"/>
      <point x="1162" y="1081"/>
      <point x="1130" y="1034" type="curve" smooth="yes"/>
      <point x="1095" y="983"/>
      <point x="1043" y="932"/>
      <point x="978" y="876" type="curve" name="sh06" smooth="yes"/>
      <point x="876" y="790" type="line" smooth="yes"/>
      <point x="819" y="742"/>
      <point x="788" y="709"/>
      <point x="771" y="682" type="curve" smooth="yes"/>
      <point x="756" y="659"/>
      <point x="743" y="626"/>
      <point x="739" y="599" type="curve" smooth="yes"/>
      <point x="731" y="552" type="line" name="sh08"/>
      <point x="719" y="472" type="line"/>
      <point x="529" y="472" type="line"/>
    </contour>
    <contour>
      <point x="542" y="-40" type="curve" name="dv01" smooth="yes"/>
      <point x="507" y="-40"/>
      <point x="478" y="-30"/>
      <point x="454" y="-3" type="curve" smooth="yes"/>
      <point x="429" y="26"/>
      <point x="421" y="58"/>
      <point x="421" y="93" type="curve" name="sh02" smooth="yes"/>
      <point x="421" y="195"/>
      <point x="509" y="264"/>
      <point x="596" y="264" type="curve" name="dv02" smooth="yes"/>
      <point x="627" y="264"/>
      <point x="663" y="254"/>
      <point x="687" y="227" type="curve" smooth="yes"/>
      <point x="707" y="204"/>
      <point x="718" y="171"/>
      <point x="718" y="134" type="curve" name="sh07" smooth="yes"/>
      <point x="718" y="89"/>
      <point x="701" y="44"/>
      <point x="664" y="9" type="curve" smooth="yes"/>
      <point x="633" y="-19"/>
      <point x="590" y="-40"/>
    </contour>
  </outline>
</glyph>
<glyph name="at" format="1">
  <advance width="1233"/>
  <unicode hex="0040"/>
  <outline>
    <contour>
      <point x="607" y="-317" type="qcurve" name="hr00"/>
      <point x="456" y="-317"/>
      <point x="224" y="-217"/>
      <point x="144" y="-129" type="qcurve"/>
      <point x="57" y="-34"/>
      <point x="-29" y="226"/>
      <point x="-29" y="379" type="qcurve" name="dh01"/>
      <point x="-29" y="476"/>
      <point x="6" y="678"/>
      <point x="43" y="781" type="qcurve"/>
      <point x="77" y="875"/>
      <point x="175" y="1052"/>
      <point x="238" y="1125" type="qcurve"/>
      <point x="290" y="1186"/>
      <point x="420" y="1290"/>
      <point x="495" y="1326" type="qcurve"/>
      <point x="567" y="1361"/>
      <point x="721" y="1397"/>
      <point x="800" y="1397" type="qcurve" name="dv03"/>
      <point x="895" y="1397"/>
      <point x="1047" y="1345"/>
      <point x="1102" y="1294" type="qcurve"/>
      <point x="1159" y="1241"/>
      <point x="1214" y="1099"/>
      <point x="1214" y="1015" type="qcurve" name="dh06"/>
      <point x="1214" y="1001"/>
      <point x="1212" y="963"/>
      <point x="1210" y="944" type="qcurve" name="sh01"/>
      <point x="1208" y="925"/>
      <point x="1201" y="881"/>
      <point x="1196" y="858" type="qcurve"/>
      <point x="1059" y="135" type="line"/>
      <point x="915" y="135" type="line"/>
      <point x="936" y="246" type="line" name="ih01"/>
      <point x="910" y="214"/>
      <point x="847" y="165"/>
      <point x="814" y="149" type="qcurve"/>
      <point x="779" y="132"/>
      <point x="702" y="115"/>
      <point x="662" y="115" type="qcurve" name="dv04"/>
      <point x="591" y="115"/>
      <point x="487" y="164"/>
      <point x="448" y="207" type="qcurve"/>
      <point x="406" y="253"/>
      <point x="365" y="370"/>
      <point x="365" y="451" type="qcurve" name="dh03"/>
      <point x="365" y="554"/>
      <point x="431" y="742"/>
      <point x="497" y="821" type="qcurve"/>
      <point x="560" y="896"/>
      <point x="716" y="977"/>
      <point x="810" y="977" type="qcurve" name="dv07"/>
      <point x="895" y="977"/>
      <point x="960" y="941" type="qcurve"/>
      <point x="1025" y="905"/>
      <point x="1053" y="844" type="qcurve" name="ih02"/>
      <point x="1061" y="887" type="line"/>
      <point x="1063" y="899"/>
      <point x="1068" y="935"/>
      <point x="1070" y="948" type="qcurve"/>
      <point x="1072" y="961"/>
      <point x="1073" y="981"/>
      <point x="1073" y="993" type="qcurve" name="dh05"/>
      <point x="1073" y="1052"/>
      <point x="1037" y="1150"/>
      <point x="1000" y="1185" type="qcurve"/>
      <point x="927" y="1255"/>
      <point x="796" y="1255" type="qcurve" name="dv02"/>
      <point x="724" y="1255"/>
      <point x="589" y="1215"/>
      <point x="524" y="1177" type="qcurve"/>
      <point x="461" y="1139"/>
      <point x="347" y="1031"/>
      <point x="297" y="957" type="qcurve"/>
      <point x="257" y="897"/>
      <point x="192" y="758"/>
      <point x="169" y="682" type="qcurve"/>
      <point x="148" y="610"/>
      <point x="125" y="455"/>
      <point x="125" y="377" type="qcurve" name="dh02"/>
      <point x="125" y="249"/>
      <point x="189" y="44"/>
      <point x="253" y="-29" type="qcurve"/>
      <point x="316" y="-101"/>
      <point x="495" y="-176"/>
      <point x="603" y="-176" type="qcurve" name="dv01"/>
      <point x="633" y="-176"/>
      <point x="697" y="-170"/>
      <point x="725" y="-164" type="qcurve"/>
      <point x="746" y="-159"/>
      <point x="810" y="-141"/>
      <point x="852" y="-125" type="qcurve"/>
      <point x="897" y="-256" type="line"/>
      <point x="859" y="-274"/>
      <point x="791" y="-295"/>
      <point x="760" y="-302" type="qcurve"/>
      <point x="689" y="-317"/>
    </contour>
    <contour>
      <point x="710" y="260" type="qcurve" name="dv05"/>
      <point x="773" y="260"/>
      <point x="881" y="316"/>
      <point x="922" y="366" type="qcurve"/>
      <point x="962" y="415"/>
      <point x="1008" y="545"/>
      <point x="1008" y="618" type="qcurve"/>
      <point x="1008" y="667"/>
      <point x="984" y="745"/>
      <point x="958" y="774" type="qcurve"/>
      <point x="908" y="829"/>
      <point x="820" y="829" type="qcurve" name="dv06"/>
      <point x="760" y="829"/>
      <point x="652" y="777"/>
      <point x="610" y="726" type="qcurve"/>
      <point x="568" y="675"/>
      <point x="524" y="544"/>
      <point x="524" y="474" type="qcurve" name="dh04"/>
      <point x="524" y="426"/>
      <point x="548" y="344"/>
      <point x="574" y="315" type="qcurve"/>
      <point x="624" y="260"/>
    </contour>
  </outline>
</glyph>
<glyph name="A" format="1">
  <advance width="1233"/>
  <unicode hex="0041"/>
  <outline>
    <contour>
      <point x="639" y="1493" type="line" name="hr00"/>
      <point x="885" y="1493" type="line"/>
      <point x="1051" y="0" type="line" name="ab01"/>
      <point x="850" y="0" type="line"/>
      <point x="815" y="389" type="line" name="dv01"/>
      <point x="295" y="389" type="line"/>
      <point x="111" y="0" type="line" name="ab02"/>
      <point x="-106" y="0" type="line"/>
    </contour>
    <contour>
      <point x="801" y="551" type="line" name="dv02"/>
      <point x="735" y="1325" type="line"/>
      <point x="371" y="551" type="line"/>
    </contour>
  </outline>
</glyph>
<glyph name="B" format="1">
  <advance width="1233"/>
  <unicode hex="0042"/>
  <outline>
    <contour>
      <point x="313" y="1493" type="line"/>
      <point x="756" y="1493" type="line" smooth="yes"/>
      <point x="980.227" y="1493"/>
      <point x="1167" y="1349.85"/>
      <point x="1167" y="1178" type="curve" smooth="yes"/>
      <point x="1167" y="973.814"/>
      <point x="1033.2" y="824.664"/>
      <point x="827" y="799" type="curve"/>
      <point x="996.412" y="768.523"/>
      <point x="1085" y="661.05"/>
      <point x="1085" y="477.32" type="curve" smooth="yes"/>
      <point x="1085" y="182.156"/>
      <point x="856.368" y="-0"/>
      <point x="475" y="0" type="curve" smooth="yes"/>
      <point x="23" y="0" type="line"/>
    </contour>
    <contour>
      <point x="639" y="877" type="line" smooth="yes"/>
      <point x="806.85" y="877"/>
      <point x="963" y="1007.61"/>
      <point x="963" y="1148" type="curve" smooth="yes"/>
      <point x="963" y="1273.07"/>
      <point x="891.896" y="1327"/>
      <point x="727" y="1327" type="curve" smooth="yes"/>
      <point x="483" y="1327" type="line"/>
      <point x="395" y="877" type="line"/>
    </contour>
    <contour>
      <point x="506" y="166" type="line" smooth="yes"/>
      <point x="708.775" y="166"/>
      <point x="885" y="319.442"/>
      <point x="885" y="496" type="curve" smooth="yes"/>
      <point x="885" y="645.342"/>
      <point x="798.011" y="713"/>
      <point x="606" y="713" type="curve" smooth="yes"/>
      <point x="365" y="713" type="line"/>
      <point x="258" y="166" type="line"/>
    </contour>
  </outline>
</glyph>
<glyph name="C" format="2">
  <advance width="1233"/>
  <unicode hex="0043"/>
  <outline>
    <contour>
      <point x="598.527" y="-29" type="curve" smooth="yes"/>
      <point x="318.179" y="-29"/>
      <point x="115" y="193.24"/>
      <point x="115" y="499.889" type="curve" smooth="yes"/>
      <point x="115" y="628.144"/>
      <point x="138.74" y="769.937"/>
      <point x="183.268" y="907.645" type="curve" smooth="yes"/>
      <point x="310.684" y="1301.69"/>
      <point x="561.193" y="1520"/>
      <point x="887.489" y="1520" type="curve" smooth="yes"/>
      <point x="1003.49" y="1520"/>
      <point x="1113.21" y="1492.41"/>
      <point x="1212" y="1438" type="curve"/>
      <point x="1171" y="1231" type="line"/>
      <point x="1081.07" y="1316.83"/>
      <point x="992.05" y="1356"/>
      <point x="896.179" y="1356" type="curve" smooth="yes"/>
      <point x="589.643" y="1356"/>
      <point x="326" y="955.534"/>
      <point x="326" y="503.961" type="curve" smooth="yes"/>
      <point x="326" y="262.373"/>
      <point x="429.836" y="135"/>
      <point x="626.782" y="135" type="curve" smooth="yes"/>
      <point x="742.064" y="135"/>
      <point x="865.431" y="178.29"/>
      <point x="983" y="260" type="curve"/>
      <point x="944" y="53" type="line"/>
      <point x="828.236" y="-2.80685"/>
      <point x="717.882" y="-29"/>
    </contour>
  </outline>
</glyph>
<glyph name="D" format="2">
  <advance width="1233"/>
  <unicode hex="0044"/>
  <outline>
    <contour>
      <point x="283" y="1493" type="line"/>
      <point x="586" y="1493" type="line" smooth="yes"/>
      <point x="903.109" y="1493"/>
      <point x="1130" y="1276.85"/>
      <point x="1130" y="974.742" type="curve" smooth="yes"/>
      <point x="1130" y="591.049"/>
      <point x="952.253" y="207.999"/>
      <point x="711.778" y="79.7485" type="curve" smooth="yes"/>
      <point x="613.776" y="27.4815"/>
      <point x="472.48" y="0"/>
      <point x="295" y="0" type="curve" smooth="yes"/>
      <point x="-8" y="0" type="line"/>
    </contour>
    <contour>
      <point x="324" y="166" type="line" smooth="yes"/>
      <point x="612.811" y="166"/>
      <point x="814.402" y="356.203"/>
      <point x="888.113" y="698.244" type="curve" smooth="yes"/>
      <point x="912.367" y="810.788"/>
      <point x="924" y="904.743"/>
      <point x="924" y="988.081" type="curve" smooth="yes"/>
      <point x="924" y="1233.73"/>
      <point x="825.756" y="1327"/>
      <point x="567" y="1327" type="curve" smooth="yes"/>
      <point x="453" y="1327" type="line"/>
      <point x="227" y="166" type="line"/>
    </contour>
  </outline>
</glyph>
<glyph name="F" format="1">
  <advance width="1233"/>
  <unicode hex="0046"/>
  <outline>
    <contour>
      <point x="383" y="1493" type="line" name="hr00"/>
      <point x="1262" y="1493" type="line"/>
      <point x="1229" y="1323" type="line" name="sv01"/>
      <point x="553" y="1323" type="line"/>
      <point x="467" y="873" type="line"/>
      <point x="1079" y="873" type="line" name="dv02"/>
      <point x="1047" y="703" type="line" name="dv01"/>
      <point x="434" y="703" type="line"/>
      <point x="295" y="0" type="line" name="ab01"/>
      <point x="92" y="0" type="line"/>
    </contour>
  </outline>
</glyph>
<glyph name="G" format="2">
  <advance width="1233"/>
  <unicode hex="0047"/>
  <outline>
    <contour>
      <point x="560.014" y="-29" type="curve" smooth="yes"/>
      <point x="283.611" y="-29"/>
      <point x="78" y="192.776"/>
      <point x="78" y="490.909" type="curve" smooth="yes"/>
      <point x="78" y="609.167"/>
      <point x="100.047" y="748.439"/>
      <point x="140.117" y="883.298" type="curve" smooth="yes"/>
      <point x="262.664" y="1295.74"/>
      <point x="511.182" y="1520"/>
      <point x="847.103" y="1520" type="curve" smooth="yes"/>
      <point x="964.517" y="1520"/>
      <point x="1074.88" y="1492.6"/>
      <point x="1176" y="1438" type="curve"/>
      <point x="1135" y="1231" type="line"/>
      <point x="1045.78" y="1316.38"/>
      <point x="952.262" y="1356"/>
      <point x="841.623" y="1356" type="curve" smooth="yes"/>
      <point x="616.094" y="1356"/>
      <point x="449.994" y="1191.39"/>
      <point x="350.265" y="868.428" type="curve" smooth="yes"/>
      <point x="310.306" y="739.026"/>
      <point x="287" y="603.627"/>
      <point x="287" y="495.776" type="curve" smooth="yes"/>
      <point x="287" y="263.986"/>
      <point x="394.649" y="135"/>
      <point x="590.169" y="135" type="curve" smooth="yes"/>
      <point x="665.875" y="135"/>
      <point x="759.307" y="166.608"/>
      <point x="803" y="207" type="curve"/>
      <point x="879" y="600" type="line"/>
      <point x="662" y="600" type="line"/>
      <point x="692" y="766" type="line"/>
      <point x="1102" y="766" type="line"/>
      <point x="969" y="96" type="line"/>
      <point x="856.221" y="14.885"/>
      <point x="712.634" y="-29"/>
    </contour>
  </outline>
</glyph>
<glyph name="H" format="1">
  <advance width="1233"/>
  <unicode hex="0048"/>
  <outline>
    <contour>
      <point x="283" y="1493" type="line" name="hr00"/>
      <point x="485" y="1493" type="line"/>
      <point x="367" y="881" type="line"/>
      <point x="920" y="881" type="line" name="dv02"/>
      <point x="1038" y="1493" type="line" name="at01"/>
      <point x="1241" y="1493" type="line"/>
      <point x="950" y="0" type="line" name="ab01"/>
      <point x="748" y="0" type="line"/>
      <point x="887" y="711" type="line" name="dv01"/>
      <point x="332" y="711" type="line"/>
      <point x="195" y="0" type="line" name="ab02"/>
      <point x="-8" y="0" type="line"/>
    </contour>
  </outline>
</glyph>
<glyph name="J" format="1">
  <advance width="1233"/>
  <unicode hex="004A"/>
  <outline>
    <contour>
      <point x="381.255" y="-29" type="curve" smooth="yes"/>
      <point x="257.173" y="-29"/>
      <point x="104.78" y="4.76044"/>
      <point x="-25" y="61" type="curve"/>
      <point x="20" y="297" type="line"/>
      <point x="116.096" y="191.426"/>
      <point x="242.831" y="135"/>
      <point x="388.459" y="135" type="curve" smooth="yes"/>
      <point x="570.533" y="135"/>
      <point x="650.25" y="223.202"/>
      <point x="702" y="487" type="curve" smooth="yes"/>
      <point x="866" y="1323" type="line"/>
      <point x="485" y="1323" type="line"/>
      <point x="518" y="1493" type="line"/>
      <point x="1102" y="1493" type="line"/>
      <point x="905" y="487" type="line" smooth="yes"/>
      <point x="831.477" y="111.549"/>
      <point x="688.819" y="-29"/>
    </contour>
  </outline>
</glyph>
<glyph name="L" format="1">
  <advance width="1233"/>
  <unicode hex="004C"/>
  <outline>
    <contour>
      <point x="369" y="1493" type="line" name="hr00"/>
      <point x="571" y="1493" type="line"/>
      <point x="313" y="170" type="line" name="sv01"/>
      <point x="1034" y="170" type="line"/>
      <point x="1001" y="0" type="line" name="ab01"/>
      <point x="78" y="0" type="line"/>
    </contour>
  </outline>
</glyph>
<glyph name="M" format="1">
  <advance width="1233"/>
  <unicode hex="004D"/>
  <outline>
    <contour>
      <point x="229" y="1493" type="line" name="hr00"/>
      <point x="498" y="1493" type="line"/>
      <point x="608" y="737" type="line" name="iv01"/>
      <point x="1022" y="1493" type="line" name="at01"/>
      <point x="1292" y="1493" type="line"/>
      <point x="1001" y="0" type="line" name="ab01"/>
      <point x="815" y="0" type="line"/>
      <point x="1073" y="1327" type="line" name="iv02"/>
      <point x="639" y="532" type="line"/>
      <point x="498" y="532" type="line"/>
      <point x="383" y="1327" type="line" name="iv03"/>
      <point x="127" y="0" type="line" name="ab02"/>
      <point x="-59" y="0" type="line"/>
    </contour>
  </outline>
</glyph>
<glyph name="N" format="1">
  <advance width="1233"/>
  <unicode hex="004E"/>
  <outline>
    <contour>
      <point x="285" y="1493" type="line" name="hr00"/>
      <point x="541" y="1493" type="line"/>
      <point x="805" y="264" type="line" name="iv01"/>
      <point x="1044" y="1493" type="line" name="at01"/>
      <point x="1239" y="1493" type="line"/>
      <point x="948" y="0" type="line" name="ab01"/>
      <point x="692" y="0" type="line"/>
      <point x="428" y="1229" type="line" name="iv02"/>
      <point x="188" y="0" type="line" name="ab02"/>
      <point x="-6" y="0" type="line"/>
    </contour>
  </outline>
</glyph>
<glyph name="O" format="1">
  <advance width="1233"/>
  <unicode hex="004F"/>
  <outline>
    <contour>
      <point x="477.106" y="-29" type="curve" smooth="yes"/>
      <point x="233.394" y="-29"/>
      <point x="82" y="156.328"/>
      <point x="82" y="454.665" type="curve" smooth="yes"/>
      <point x="82" y="887.829"/>
      <point x="268.523" y="1332.84"/>
      <point x="508.458" y="1464.08" type="curve" smooth="yes"/>
      <point x="574.757" y="1500.34"/>
      <point x="658.567" y="1520"/>
      <point x="752.718" y="1520" type="curve" smooth="yes"/>
      <point x="1020.25" y="1520"/>
      <point x="1151" y="1358.94"/>
      <point x="1151" y="1029.4" type="curve" smooth="yes"/>
      <point x="1151" y="885.734"/>
      <point x="1118.77" y="692.195"/>
      <point x="1068.3" y="532.733" type="curve" smooth="yes"/>
      <point x="947.836" y="152.176"/>
      <point x="757.158" y="-29"/>
    </contour>
    <contour>
      <point x="494.808" y="135" type="curve" smooth="yes"/>
      <point x="555.783" y="135"/>
      <point x="613.53" y="152.654"/>
      <point x="651.151" y="179.65" type="curve" smooth="yes"/>
      <point x="796.393" y="283.873"/>
      <point x="944" y="744.281"/>
      <point x="944" y="1074.75" type="curve" smooth="yes"/>
      <point x="944" y="1265.19"/>
      <point x="877.131" y="1356"/>
      <point x="736.895" y="1356" type="curve" smooth="yes"/>
      <point x="674.514" y="1356"/>
      <point x="618.014" y="1338.54"/>
      <point x="576.43" y="1308.23" type="curve" smooth="yes"/>
      <point x="423.096" y="1196.46"/>
      <point x="287" y="774.654"/>
      <point x="287" y="421.439" type="curve" smooth="yes"/>
      <point x="287" y="228.879"/>
      <point x="355.108" y="135"/>
    </contour>
  </outline>
</glyph>
<glyph name="P" format="1">
  <advance width="1233"/>
  <unicode hex="0050"/>
  <outline>
    <contour>
      <point x="321" y="1493" type="line"/>
      <point x="761" y="1493" type="line" smooth="yes"/>
      <point x="1009.79" y="1493"/>
      <point x="1183" y="1394.8"/>
      <point x="1183" y="1115.98" type="curve" smooth="yes"/>
      <point x="1183" y="769.168"/>
      <point x="915.019" y="600"/>
      <point x="583" y="600" type="curve" smooth="yes"/>
      <point x="350" y="600" type="line"/>
      <point x="233" y="0" type="line"/>
      <point x="30" y="0" type="line"/>
    </contour>
    <contour>
      <point x="616" y="766" type="line" smooth="yes"/>
      <point x="825.317" y="766"/>
      <point x="978" y="895.289"/>
      <point x="978" y="1106.87" type="curve" smooth="yes"/>
      <point x="978" y="1278.96"/>
      <point x="877.006" y="1327"/>
      <point x="724" y="1327" type="curve" smooth="yes"/>
      <point x="491" y="1327" type="line"/>
      <point x="382" y="766" type="line"/>
    </contour>
  </outline>
</glyph>
<glyph name="Q" format="1">
  <advance width="1233"/>
  <unicode hex="0051"/>
  <outline>
    <contour>
      <point x="504" y="-27" type="line" name="hr00"/>
      <point x="494" y="-27" type="line"/>
      <point x="383" y="-27"/>
      <point x="231" y="33"/>
      <point x="181" y="93" type="qcurve"/>
      <point x="131" y="153"/>
      <point x="82" y="338"/>
      <point x="82" y="472" type="qcurve" name="sh01"/>
      <point x="82" y="538"/>
      <point x="93" y="649"/>
      <point x="104" y="712" type="qcurve"/>
      <point x="109" y="743"/>
      <point x="121" y="802"/>
      <point x="136" y="865"/>
      <point x="155" y="934"/>
      <point x="168" y="975" type="qcurve"/>
      <point x="184" y="1025"/>
      <point x="214" y="1103"/>
      <point x="231" y="1141" type="qcurve"/>
      <point x="238" y="1156"/>
      <point x="255" y="1190"/>
      <point x="274" y="1226"/>
      <point x="294" y="1259"/>
      <point x="303" y="1272" type="qcurve"/>
      <point x="341" y="1329"/>
      <point x="442" y="1428"/>
      <point x="501" y="1460" type="qcurve"/>
      <point x="557" y="1491"/>
      <point x="681" y="1520"/>
      <point x="753" y="1520" type="qcurve" name="at01"/>
      <point x="855" y="1520"/>
      <point x="1004" y="1460"/>
      <point x="1054" y="1397" type="qcurve"/>
      <point x="1102" y="1337"/>
      <point x="1151" y="1154"/>
      <point x="1151" y="1029" type="qcurve" name="sh02"/>
      <point x="1151" y="981"/>
      <point x="1144" y="886"/>
      <point x="1137" y="839" type="qcurve" name="sh03"/>
      <point x="1130" y="792"/>
      <point x="1108" y="685"/>
      <point x="1094" y="629" type="qcurve"/>
      <point x="1080" y="576"/>
      <point x="1047" y="468"/>
      <point x="1032" y="427" type="qcurve"/>
      <point x="1016" y="384"/>
      <point x="980" y="305"/>
      <point x="963" y="274" type="qcurve"/>
      <point x="941" y="235"/>
      <point x="880" y="150"/>
      <point x="839" y="111" type="qcurve"/>
      <point x="808" y="81"/>
      <point x="733" y="27"/>
      <point x="690" y="10" type="qcurve" name="ih01"/>
      <point x="926" y="-270" type="line" name="ih02"/>
      <point x="690" y="-270" type="line"/>
    </contour>
    <contour>
      <point x="498" y="135" type="qcurve" name="sv01"/>
      <point x="541" y="135"/>
      <point x="623" y="160"/>
      <point x="660" y="186" type="qcurve"/>
      <point x="700" y="215"/>
      <point x="757" y="291"/>
      <point x="778" y="331" type="qcurve"/>
      <point x="797" y="367"/>
      <point x="832" y="453"/>
      <point x="862" y="545"/>
      <point x="888" y="639"/>
      <point x="898" y="684" type="qcurve"/>
      <point x="921" y="787"/>
      <point x="944" y="986"/>
      <point x="944" y="1067" type="qcurve" name="ah01"/>
      <point x="944" y="1153"/>
      <point x="918" y="1256"/>
      <point x="892" y="1289" type="qcurve"/>
      <point x="866" y="1321"/>
      <point x="787" y="1356"/>
      <point x="734" y="1356" type="qcurve" name="sv02"/>
      <point x="690" y="1356"/>
      <point x="608" y="1331"/>
      <point x="572" y="1305" type="qcurve"/>
      <point x="537" y="1279"/>
      <point x="478" y="1205"/>
      <point x="455" y="1160" type="qcurve"/>
      <point x="420" y="1094"/>
      <point x="356" y="911"/>
      <point x="333" y="808" type="qcurve"/>
      <point x="310" y="708"/>
      <point x="287" y="513"/>
      <point x="287" y="429" type="qcurve" name="sh04"/>
      <point x="287" y="385"/>
      <point x="294" y="316"/>
      <point x="307" y="262"/>
      <point x="327" y="220"/>
      <point x="340" y="203" type="qcurve"/>
      <point x="369" y="167"/>
      <point x="450" y="135"/>
    </contour>
  </outline>
</glyph>
<glyph name="R" format="1">
  <advance width="1233"/>
  <unicode hex="0052"/>
  <outline>
    <contour>
      <point x="281" y="1493" type="line"/>
      <point x="697" y="1493" type="line" smooth="yes"/>
      <point x="929.052" y="1493"/>
      <point x="1131" y="1406.12"/>
      <point x="1131" y="1137.53" type="curve" smooth="yes"/>
      <point x="1131" y="906.681"/>
      <point x="981.817" y="734.178"/>
      <point x="746" y="705" type="curve"/>
      <point x="878.753" y="681.323"/>
      <point x="920.167" y="540.228"/>
      <point x="953.601" y="426.324" type="curve" smooth="yes"/>
      <point x="955.42" y="420.128"/>
      <point x="957.215" y="414.012"/>
      <point x="959" y="408" type="curve" smooth="yes"/>
      <point x="1080" y="0" type="line"/>
      <point x="879" y="0" type="line"/>
      <point x="773" y="377" type="line" smooth="yes"/>
      <point x="729.255" y="532.285"/>
      <point x="690.553" y="631"/>
      <point x="510" y="631" type="curve" smooth="yes"/>
      <point x="318" y="631" type="line"/>
      <point x="195" y="0" type="line"/>
      <point x="-8" y="0" type="line"/>
    </contour>
    <contour>
      <point x="570" y="797" type="line" smooth="yes"/>
      <point x="763.144" y="797"/>
      <point x="928" y="899.767"/>
      <point x="928" y="1110.75" type="curve" smooth="yes"/>
      <point x="928" y="1281.46"/>
      <point x="820.066" y="1327"/>
      <point x="666" y="1327" type="curve" smooth="yes"/>
      <point x="453" y="1327" type="line"/>
      <point x="351" y="797" type="line"/>
    </contour>
  </outline>
</glyph>
<glyph name="S" format="1">
  <advance width="1233"/>
  <unicode hex="0053"/>
  <outline>
    <contour>
      <point x="435" y="-29" type="qcurve" name="hr00"/>
      <point x="377" y="-29"/>
      <point x="277" y="-17"/>
      <point x="226" y="-6" type="qcurve"/>
      <point x="123" y="17"/>
      <point x="25" y="61" type="qcurve"/>
      <point x="66" y="270" type="line"/>
      <point x="163" y="202"/>
      <point x="265" y="168" type="qcurve"/>
      <point x="316" y="151"/>
      <point x="421" y="135"/>
      <point x="475" y="135" type="qcurve" name="dv01"/>
      <point x="561" y="135"/>
      <point x="693" y="178"/>
      <point x="745" y="223" type="qcurve"/>
      <point x="848" y="311"/>
      <point x="848" y="444" type="qcurve" name="ah01"/>
      <point x="848" y="488"/>
      <point x="826" y="550"/>
      <point x="804" y="573" type="qcurve"/>
      <point x="778" y="599"/>
      <point x="693" y="638"/>
      <point x="627" y="659" type="qcurve"/>
      <point x="526" y="692" type="line"/>
      <point x="445" y="718"/>
      <point x="313" y="780"/>
      <point x="269" y="824" type="qcurve"/>
      <point x="232" y="861"/>
      <point x="195" y="956"/>
      <point x="195" y="1025" type="qcurve" name="sh01"/>
      <point x="195" y="1126"/>
      <point x="276" y="1309"/>
      <point x="360" y="1380" type="qcurve"/>
      <point x="443" y="1450"/>
      <point x="659" y="1520"/>
      <point x="783" y="1520" type="qcurve" name="at01"/>
      <point x="831" y="1520"/>
      <point x="917" y="1510"/>
      <point x="962" y="1500" type="qcurve"/>
      <point x="1008" y="1490"/>
      <point x="1097" y="1462"/>
      <point x="1147" y="1442" type="qcurve"/>
      <point x="1108" y="1237" type="line"/>
      <point x="1026" y="1296"/>
      <point x="940" y="1326" type="qcurve"/>
      <point x="853" y="1356"/>
      <point x="759" y="1356" type="qcurve" name="sv01"/>
      <point x="674" y="1356"/>
      <point x="538" y="1312"/>
      <point x="490" y="1274" type="qcurve"/>
      <point x="442" y="1236"/>
      <point x="387" y="1130"/>
      <point x="387" y="1068" type="qcurve" name="sh02"/>
      <point x="387" y="1029"/>
      <point x="411" y="972"/>
      <point x="436" y="950" type="qcurve"/>
      <point x="461" y="928"/>
      <point x="548" y="887"/>
      <point x="614" y="866" type="qcurve"/>
      <point x="735" y="827" type="line"/>
      <point x="820" y="800"/>
      <point x="934" y="738"/>
      <point x="974" y="694" type="qcurve"/>
      <point x="1012" y="652"/>
      <point x="1049" y="547"/>
      <point x="1049" y="473" type="qcurve" name="sh03"/>
      <point x="1049" y="363"/>
      <point x="967" y="178"/>
      <point x="883" y="109" type="qcurve"/>
      <point x="799" y="40"/>
      <point x="573" y="-29"/>
    </contour>
  </outline>
</glyph>
<glyph name="U" format="1">
  <advance width="1233"/>
  <unicode hex="0055"/>
  <outline>
    <contour>
      <point x="491.118" y="-29" type="curve" smooth="yes"/>
      <point x="285.735" y="-29"/>
      <point x="80" y="112.707"/>
      <point x="80" y="334.572" type="curve" smooth="yes"/>
      <point x="80" y="392.87"/>
      <point x="94.205" y="465.979"/>
      <point x="108.259" y="538.312" type="curve" smooth="yes"/>
      <point x="293" y="1493" type="line"/>
      <point x="496" y="1493" type="line"/>
      <point x="317" y="573" type="line" smooth="yes"/>
      <point x="313.55" y="555.27"/>
      <point x="309.76" y="537.412"/>
      <point x="305.95" y="519.462" type="curve" smooth="yes"/>
      <point x="292.595" y="456.536"/>
      <point x="279" y="392.481"/>
      <point x="279" y="335.116" type="curve" smooth="yes"/>
      <point x="279" y="185.328"/>
      <point x="371.693" y="135"/>
      <point x="503.959" y="135" type="curve" smooth="yes"/>
      <point x="766.812" y="135"/>
      <point x="804.545" y="333.767"/>
      <point x="843.674" y="539.887" type="curve" smooth="yes"/>
      <point x="845.767" y="550.913"/>
      <point x="847.864" y="561.961"/>
      <point x="850" y="573" type="curve" smooth="yes"/>
      <point x="1028" y="1493" type="line"/>
      <point x="1231" y="1493" type="line"/>
      <point x="1053" y="573" type="line" smooth="yes"/>
      <point x="1005.1" y="325.691"/>
      <point x="947.903" y="90.2204"/>
      <point x="680.528" y="2.48627" type="curve" smooth="yes"/>
      <point x="617.354" y="-18.243"/>
      <point x="547.704" y="-29"/>
    </contour>
  </outline>
</glyph>
<glyph name="V" format="1">
  <advance width="1233"/>
  <unicode hex="0056"/>
  <outline>
    <contour>
      <point x="199" y="1493" type="line" name="hr00"/>
      <point x="397" y="1493" type="line"/>
      <point x="510" y="190" type="line" name="iv01"/>
      <point x="1108" y="1493" type="line" name="at01"/>
      <point x="1323" y="1493" type="line"/>
      <point x="604" y="0" type="line" name="ab01"/>
      <point x="346" y="0" type="line"/>
    </contour>
  </outline>
</glyph>
<glyph name="W" format="2">
  <advance width="1233"/>
  <unicode hex="0057"/>
  <outline>
    <contour>
      <point x="145" y="1493" type="line"/>
      <point x="336" y="1493" type="line"/>
      <point x="246" y="283" type="line"/>
      <point x="575" y="1083" type="line"/>
      <point x="793.5" y="1083" type="line"/>
      <point x="793.5" y="281" type="line"/>
      <point x="1178" y="1493" type="line"/>
      <point x="1376" y="1493" type="line"/>
      <point x="866" y="0" type="line"/>
      <point x="672" y="0" type="line"/>
      <point x="641" y="870" type="line"/>
      <point x="270" y="0" type="line"/>
      <point x="82" y="0" type="line"/>
    </contour>
  </outline>
</glyph>
<glyph name="X" format="2">
  <advance width="1233"/>
  <unicode hex="0058"/>
  <outline>
    <contour>
      <point x="546" y="797" type="line"/>
      <point x="258" y="1493" type="line"/>
      <point x="458" y="1493" type="line"/>
      <point x="682" y="961" type="line"/>
      <point x="1122" y="1493" type="line"/>
      <point x="1353" y="1493" type="line"/>
      <point x="757" y="774" type="line"/>
      <point x="1081" y="0" type="line"/>
      <point x="880" y="0" type="line"/>
      <point x="626" y="612" type="line"/>
      <point x="120" y="0" type="line"/>
      <point x="-111" y="0" type="line"/>
    </contour>
  </outline>
</glyph>
<glyph name="Y" format="1">
  <advance width="1233"/>
  <unicode hex="0059"/>
  <outline>
    <contour>
      <point x="508" y="670" type="line"/>
      <point x="195" y="1493" type="line"/>
      <point x="397" y="1493" type="line"/>
      <point x="633" y="842" type="line"/>
      <point x="1130" y="1493" type="line"/>
      <point x="1348" y="1493" type="line"/>
      <point x="713" y="670" type="line"/>
      <point x="584" y="0" type="line"/>
      <point x="377" y="0" type="line"/>
    </contour>
  </outline>
</glyph>
<glyph name="Z" format="1">
  <advance width="1233"/>
  <unicode hex="005A"/>
  <outline>
    <contour>
      <point x="32" y="154" type="line" name="hr00"/>
      <point x="1008" y="1323" type="line" name="sv01"/>
      <point x="281" y="1323" type="line"/>
      <point x="314" y="1493" type="line" name="at01"/>
      <point x="1283" y="1493" type="line"/>
      <point x="1254" y="1339" type="line"/>
      <point x="275" y="170" type="line" name="sv02"/>
      <point x="1049" y="170" type="line"/>
      <point x="1015" y="0" type="line" name="ab01"/>
      <point x="3" y="0" type="line"/>
    </contour>
  </outline>
</glyph>
<glyph name="bracketleft" format="1">
  <advance width="1233"/>
  <unicode hex="005B"/>
  <outline>
    <contour>
      <point x="682" y="1636" type="line" name="hr00"/>
      <point x="1106" y="1636" type="line" name="dv04"/>
      <point x="1083" y="1493" type="line" name="dv03"/>
      <point x="843" y="1493" type="line"/>
      <point x="587" y="-127" type="line"/>
      <point x="827" y="-127" type="line" name="dv02"/>
      <point x="804" y="-270" type="line" name="dv01"/>
      <point x="380" y="-270" type="line"/>
    </contour>
  </outline>
</glyph>
<glyph name="bracketright" format="1">
  <advance width="1233"/>
  <unicode hex="005D"/>
  <note>
	bracketright
  </note>
  <outline>
    <contour>
      <point x="343" y="-270" type="line"/>
      <point x="767" y="-270" type="line"/>
      <point x="1069" y="1635" type="line"/>
      <point x="645" y="1635" type="line"/>
      <point x="622" y="1492" type="line"/>
      <point x="862" y="1492" type="line"/>
      <point x="606" y="-127" type="line"/>
      <point x="366" y="-127" type="line"/>
    </contour>
  </outline>
</glyph>
<glyph name="asciicircum" format="1">
  <advance width="1233"/>
  <unicode hex="005E"/>
  <outline>
    <contour>
      <point x="528" y="1493" type="line" name="hr00"/>
      <point x="705" y="1493" type="line"/>
      <point x="1161" y="936" type="line" name="av01"/>
      <point x="983" y="936" type="line"/>
      <point x="616" y="1331" type="line"/>
      <point x="250" y="936" type="line" name="av02"/>
      <point x="72" y="936" type="line"/>
    </contour>
  </outline>
</glyph>
<glyph name="underscore" format="1">
  <advance width="1233"/>
  <unicode hex="005F"/>
  <outline>
    <contour>
      <point x="94" y="-190" type="line" name="hr00"/>
      <point x="1138" y="-190" type="line"/>
      <point x="1138" y="-310" type="line"/>
      <point x="94" y="-310" type="line"/>
    </contour>
  </outline>
</glyph>
<glyph name="grave" format="1">
  <advance width="1233"/>
  <unicode hex="0060"/>
  <note>
	grave
  </note>
  <outline>
    <contour>
      <point x="705" y="1262" type="line"/>
      <point x="848" y="1262" type="line"/>
      <point x="651" y="1638" type="line"/>
      <point x="453" y="1638" type="line"/>
    </contour>
  </outline>
</glyph>
<glyph name="a" format="1">
  <advance width="1233"/>
  <unicode hex="0061"/>
  <outline>
    <contour>
      <point x="401.481" y="-29" type="curve" smooth="yes"/>
      <point x="200.172" y="-29"/>
      <point x="72" y="92.7696"/>
      <point x="72" y="284.023" type="curve" smooth="yes"/>
      <point x="72" y="538.951"/>
      <point x="299.653" y="707"/>
      <point x="645" y="707" type="curve" smooth="yes"/>
      <point x="891" y="707" type="line"/>
      <point x="904" y="789" type="line"/>
      <point x="904" y="920.068"/>
      <point x="817.269" y="991"/>
      <point x="657.006" y="991" type="curve" smooth="yes"/>
      <point x="544.766" y="991"/>
      <point x="411.94" y="956.172"/>
      <point x="268" y="889" type="curve"/>
      <point x="303" y="1069" type="line"/>
      <point x="442.432" y="1120.68"/>
      <point x="573.956" y="1147"/>
      <point x="692.74" y="1147" type="curve" smooth="yes"/>
      <point x="942.24" y="1147"/>
      <point x="1087" y="1030.87"/>
      <point x="1087" y="830.711" type="curve" smooth="yes"/>
      <point x="1087" y="785.666"/>
      <point x="1079.67" y="727.109"/>
      <point x="1063" y="639" type="curve" smooth="yes"/>
      <point x="938" y="0" type="line"/>
      <point x="774" y="0" type="line"/>
      <point x="786" y="166" type="line"/>
      <point x="690.311" y="40.4081"/>
      <point x="553.446" y="-29"/>
    </contour>
    <contour>
      <point x="463" y="125" type="curve" smooth="yes"/>
      <point x="652.074" y="125"/>
      <point x="808.129" y="282.643"/>
      <point x="856" y="522" type="curve" smooth="yes"/>
      <point x="864" y="563" type="line"/>
      <point x="692" y="563" type="line" smooth="yes"/>
      <point x="539.909" y="563"/>
      <point x="479.244" y="557.018"/>
      <point x="422.084" y="533.347" type="curve" smooth="yes"/>
      <point x="319.672" y="490.939"/>
      <point x="264" y="406.447"/>
      <point x="264" y="307.413" type="curve" smooth="yes"/>
      <point x="264" y="193.32"/>
      <point x="338.533" y="125"/>
    </contour>
  </outline>
</glyph>
<glyph name="b" format="1">
  <advance width="1233"/>
  <unicode hex="0062"/>
  <outline>
    <contour>
      <point x="535" y="-29" type="curve" name="dv01" smooth="yes"/>
      <point x="470" y="-29"/>
      <point x="416" y="-15"/>
      <point x="371" y="14" type="curve" name="ab01" smooth="yes"/>
      <point x="327" y="43"/>
      <point x="293" y="85"/>
      <point x="270" y="141" type="curve" name="iv01"/>
      <point x="224" y="0" type="line" name="ab02"/>
      <point x="59" y="0" type="line"/>
      <point x="362" y="1556" type="line" name="at01"/>
      <point x="547" y="1556" type="line"/>
      <point x="434" y="977" type="line" name="iv02"/>
      <point x="475" y="1032"/>
      <point x="523" y="1075"/>
      <point x="578" y="1104" type="curve" smooth="yes"/>
      <point x="633" y="1133"/>
      <point x="694" y="1147"/>
      <point x="763" y="1147" type="curve" name="at02" smooth="yes"/>
      <point x="868" y="1147"/>
      <point x="957" y="1113"/>
      <point x="1018" y="1044" type="curve" smooth="yes"/>
      <point x="1078" y="976"/>
      <point x="1108" y="877"/>
      <point x="1108" y="748" type="curve" name="dh02" smooth="yes"/>
      <point x="1108" y="660"/>
      <point x="1094" y="561"/>
      <point x="1067" y="465" type="curve" smooth="yes"/>
      <point x="1042" y="376"/>
      <point x="1006" y="292"/>
      <point x="954" y="213" type="curve" smooth="yes"/>
      <point x="902" y="136"/>
      <point x="841" y="76"/>
      <point x="770" y="35" type="curve" smooth="yes"/>
      <point x="695" y="-8"/>
      <point x="616" y="-29"/>
    </contour>
    <contour>
      <point x="540" y="127" type="curve" name="dv02" smooth="yes"/>
      <point x="595" y="127"/>
      <point x="646" y="142"/>
      <point x="691" y="172" type="curve" smooth="yes"/>
      <point x="738" y="203"/>
      <point x="773" y="244"/>
      <point x="805" y="304" type="curve" smooth="yes"/>
      <point x="838" y="365"/>
      <point x="866" y="441"/>
      <point x="883" y="513" type="curve" smooth="yes"/>
      <point x="902" y="590"/>
      <point x="911" y="666"/>
      <point x="911" y="733" type="curve" name="dh01" smooth="yes"/>
      <point x="911" y="816"/>
      <point x="897" y="882"/>
      <point x="861" y="929" type="curve" smooth="yes"/>
      <point x="827" y="972"/>
      <point x="777" y="993"/>
      <point x="710" y="993" type="curve" name="sv01" smooth="yes"/>
      <point x="594" y="993"/>
      <point x="507" y="932"/>
      <point x="438" y="812" type="curve" smooth="yes"/>
      <point x="403" y="751"/>
      <point x="380" y="684"/>
      <point x="361" y="611" type="curve" name="hr01"/>
      <point x="342" y="532"/>
      <point x="332" y="454"/>
      <point x="332" y="389" type="curve" smooth="yes"/>
      <point x="332" y="305"/>
      <point x="348" y="241"/>
      <point x="385" y="194" type="curve" smooth="yes"/>
      <point x="425" y="143"/>
      <point x="481" y="127"/>
    </contour>
  </outline>
</glyph>
<glyph name="c" format="1">
  <advance width="1233"/>
  <unicode hex="0063"/>
  <outline>
    <contour>
      <point x="595.022" y="-29" type="curve" smooth="yes"/>
      <point x="303.067" y="-29"/>
      <point x="146" y="124.584"/>
      <point x="146" y="425.915" type="curve" smooth="yes"/>
      <point x="146" y="828.694"/>
      <point x="426.629" y="1147"/>
      <point x="801.739" y="1147" type="curve" smooth="yes"/>
      <point x="912.79" y="1147"/>
      <point x="1020.81" y="1119.1"/>
      <point x="1127" y="1061" type="curve"/>
      <point x="1090" y="879" type="line"/>
      <point x="1003.53" y="955.529"/>
      <point x="911.688" y="991"/>
      <point x="804.359" y="991" type="curve" smooth="yes"/>
      <point x="492.275" y="991"/>
      <point x="340" y="691.094"/>
      <point x="340" y="427.129" type="curve" smooth="yes"/>
      <point x="340" y="223.186"/>
      <point x="430.898" y="127"/>
      <point x="617.099" y="127" type="curve" smooth="yes"/>
      <point x="740.814" y="127"/>
      <point x="861.065" y="169.461"/>
      <point x="969" y="252" type="curve"/>
      <point x="930" y="51" type="line"/>
      <point x="833.644" y="-1.40427"/>
      <point x="718.777" y="-29"/>
    </contour>
  </outline>
</glyph>
<glyph name="d" format="1">
  <advance width="1233"/>
  <unicode hex="0064"/>
  <outline>
    <contour>
      <point x="462.615" y="-29" type="curve" smooth="yes"/>
      <point x="245.171" y="-29"/>
      <point x="119" y="119.242"/>
      <point x="119" y="405.539" type="curve" smooth="yes"/>
      <point x="119" y="803.591"/>
      <point x="362.896" y="1147"/>
      <point x="673.172" y="1147" type="curve" smooth="yes"/>
      <point x="801.048" y="1147"/>
      <point x="899.18" y="1088.67"/>
      <point x="954" y="977" type="curve"/>
      <point x="1069" y="1556" type="line"/>
      <point x="1253" y="1556" type="line"/>
      <point x="950" y="0" type="line"/>
      <point x="786" y="0" type="line"/>
      <point x="793" y="141" type="line"/>
      <point x="703.401" y="26.3972"/>
      <point x="595.54" y="-29"/>
    </contour>
    <contour>
      <point x="506.984" y="127" type="curve" smooth="yes"/>
      <point x="725.729" y="127"/>
      <point x="893" y="394.633"/>
      <point x="893" y="698.745" type="curve" smooth="yes"/>
      <point x="893" y="899.656"/>
      <point x="819.994" y="991"/>
      <point x="683.7" y="991" type="curve" smooth="yes"/>
      <point x="403.941" y="991"/>
      <point x="315" y="606.146"/>
      <point x="315" y="396.399" type="curve" smooth="yes"/>
      <point x="315" y="213.732"/>
      <point x="382.458" y="127"/>
    </contour>
  </outline>
</glyph>
<glyph name="e" format="1">
  <advance width="1233"/>
  <unicode hex="0065"/>
  <outline>
    <contour>
      <point x="554.084" y="-29" type="curve" smooth="yes"/>
      <point x="254.546" y="-29"/>
      <point x="98" y="120.4"/>
      <point x="98" y="410.81" type="curve" smooth="yes"/>
      <point x="98" y="805.282"/>
      <point x="386.835" y="1149"/>
      <point x="728.961" y="1149" type="curve" smooth="yes"/>
      <point x="966.048" y="1149"/>
      <point x="1126" y="983.939"/>
      <point x="1126" y="725.146" type="curve" smooth="yes"/>
      <point x="1126" y="671.027"/>
      <point x="1119" y="603.301"/>
      <point x="1104" y="516" type="curve"/>
      <point x="297" y="516" type="line"/>
      <point x="288.926" y="475.631"/>
      <point x="285" y="440.622"/>
      <point x="285" y="406.192" type="curve" smooth="yes"/>
      <point x="285" y="227.145"/>
      <point x="391.182" y="127"/>
      <point x="581.795" y="127" type="curve" smooth="yes"/>
      <point x="702.536" y="127"/>
      <point x="849.396" y="167.182"/>
      <point x="997" y="240" type="curve"/>
      <point x="961" y="57" type="line"/>
      <point x="820.882" y="-0.153194"/>
      <point x="685.705" y="-29"/>
    </contour>
    <contour>
      <point x="938" y="659" type="line"/>
      <point x="944.978" y="692.145"/>
      <point x="948" y="716.926"/>
      <point x="948" y="744.304" type="curve" smooth="yes"/>
      <point x="948" y="895.624"/>
      <point x="855.676" y="991"/>
      <point x="709.188" y="991" type="curve" smooth="yes"/>
      <point x="536.687" y="991"/>
      <point x="387.697" y="858.742"/>
      <point x="332" y="659" type="curve"/>
    </contour>
  </outline>
</glyph>
<glyph name="f" format="1">
  <advance width="1233"/>
  <unicode hex="0066"/>
  <outline>
    <contour>
      <point x="523" y="977" type="line" name="hr00"/>
      <point x="224" y="977" type="line" name="sv01"/>
      <point x="253" y="1120" type="line" name="at02"/>
      <point x="550" y="1120" type="line"/>
      <point x="566" y="1198" type="line" smooth="yes"/>
      <point x="594" y="1335"/>
      <point x="636" y="1418"/>
      <point x="701" y="1474" type="curve" smooth="yes"/>
      <point x="768" y="1530"/>
      <point x="859" y="1556"/>
      <point x="984" y="1556" type="curve" name="at01" smooth="yes"/>
      <point x="1205" y="1556" type="line"/>
      <point x="1174" y="1403" type="line" name="sv02"/>
      <point x="966" y="1403" type="line" smooth="yes"/>
      <point x="903" y="1403"/>
      <point x="856" y="1389"/>
      <point x="823" y="1362" type="curve" smooth="yes"/>
      <point x="788" y="1331"/>
      <point x="770" y="1284"/>
      <point x="755" y="1219" type="curve" smooth="yes"/>
      <point x="734" y="1120" type="line" name="at03"/>
      <point x="1119" y="1120" type="line"/>
      <point x="1093" y="977" type="line" name="sv03"/>
      <point x="708" y="977" type="line" name="sv04"/>
      <point x="517" y="0" type="line" name="ab01"/>
      <point x="333" y="0" type="line"/>
    </contour>
  </outline>
</glyph>
<glyph name="g" format="1">
  <advance width="1233"/>
  <unicode hex="0067"/>
  <outline>
    <contour>
      <point x="382.066" y="-440" type="curve" smooth="yes"/>
      <point x="266.66" y="-440"/>
      <point x="154.307" y="-420.507"/>
      <point x="59" y="-385" type="curve"/>
      <point x="96" y="-203" type="line"/>
      <point x="198.811" y="-263.135"/>
      <point x="301.68" y="-293"/>
      <point x="409.444" y="-293" type="curve" smooth="yes"/>
      <point x="604.599" y="-293"/>
      <point x="703.676" y="-195.056"/>
      <point x="756" y="53" type="curve" smooth="yes"/>
      <point x="780" y="170" type="line"/>
      <point x="703.08" y="55.6065"/>
      <point x="582.657" y="-8"/>
      <point x="443.487" y="-8" type="curve" smooth="yes"/>
      <point x="228.951" y="-8"/>
      <point x="102" y="143.15"/>
      <point x="102" y="409.258" type="curve" smooth="yes"/>
      <point x="102" y="711.77"/>
      <point x="293.969" y="1147"/>
      <point x="643.419" y="1147" type="curve" smooth="yes"/>
      <point x="781.545" y="1147"/>
      <point x="888.399" y="1079"/>
      <point x="934" y="965" type="curve"/>
      <point x="981" y="1116" type="line"/>
      <point x="1145" y="1116" type="line"/>
      <point x="942" y="72" type="line" smooth="yes"/>
      <point x="872.39" y="-287.984"/>
      <point x="704.341" y="-440"/>
    </contour>
    <contour>
      <point x="508.157" y="145" type="curve" smooth="yes"/>
      <point x="709.082" y="145"/>
      <point x="874" y="413.62"/>
      <point x="874" y="700.365" type="curve" smooth="yes"/>
      <point x="874" y="896.35"/>
      <point x="796.959" y="991"/>
      <point x="671.138" y="991" type="curve" smooth="yes"/>
      <point x="463.293" y="991"/>
      <point x="297" y="732.724"/>
      <point x="297" y="424.188" type="curve" smooth="yes"/>
      <point x="297" y="282.326"/>
      <point x="341.536" y="145"/>
    </contour>
  </outline>
</glyph>
<glyph name="h" format="1">
  <advance width="1233"/>
  <unicode hex="0068"/>
  <outline>
    <contour>
      <point x="387" y="1556" type="line" name="hr00"/>
      <point x="571" y="1556" type="line"/>
      <point x="455" y="952" type="line" name="iv01"/>
      <point x="504" y="1016"/>
      <point x="559" y="1065"/>
      <point x="618" y="1098" type="curve" smooth="yes"/>
      <point x="675" y="1130"/>
      <point x="732" y="1147"/>
      <point x="807" y="1147" type="curve" name="at01" smooth="yes"/>
      <point x="895" y="1147"/>
      <point x="968" y="1123"/>
      <point x="1019" y="1075" type="curve" smooth="yes"/>
      <point x="1070" y="1028"/>
      <point x="1096" y="957"/>
      <point x="1096" y="877" type="curve" name="dh02" smooth="yes"/>
      <point x="1096" y="818"/>
      <point x="1092" y="778"/>
      <point x="1075" y="694" type="curve" smooth="yes"/>
      <point x="940" y="0" type="line" name="ab01"/>
      <point x="756" y="0" type="line"/>
      <point x="891" y="695" type="line"/>
      <point x="895" y="707"/>
      <point x="891" y="701"/>
      <point x="894" y="709" type="curve"/>
      <point x="905" y="764"/>
      <point x="909" y="783"/>
      <point x="909" y="817" type="curve" name="dh01" smooth="yes"/>
      <point x="909" y="876"/>
      <point x="894" y="915"/>
      <point x="863" y="944" type="curve" smooth="yes"/>
      <point x="832" y="973"/>
      <point x="788" y="987"/>
      <point x="730" y="987" type="curve" name="sv01" smooth="yes"/>
      <point x="644" y="987"/>
      <point x="572" y="956"/>
      <point x="513" y="894" type="curve" smooth="yes"/>
      <point x="454" y="831"/>
      <point x="413" y="744"/>
      <point x="391" y="633" type="curve" smooth="yes"/>
      <point x="268" y="0" type="line" name="ab02"/>
      <point x="84" y="0" type="line"/>
    </contour>
  </outline>
</glyph>
<glyph name="i" format="1">
  <advance width="1233"/>
  <unicode hex="0069"/>
  <outline>
    <contour>
      <point x="627" y="1323" type="line" name="hr00"/>
      <point x="612" y="1323"/>
      <point x="597" y="1341"/>
      <point x="600" y="1356" type="qcurve"/>
      <point x="634" y="1529" type="line"/>
      <point x="638" y="1556"/>
      <point x="666" y="1556" type="qcurve" name="at01"/>
      <point x="790" y="1556" type="line"/>
      <point x="805" y="1556"/>
      <point x="820" y="1538"/>
      <point x="817" y="1523" type="qcurve"/>
      <point x="783" y="1350" type="line"/>
      <point x="778" y="1323"/>
      <point x="751" y="1323" type="qcurve"/>
    </contour>
    <contour>
      <point x="749" y="-4" type="line" name="ab01"/>
      <point x="575" y="-4"/>
      <point x="492" y="60" type="qcurve"/>
      <point x="407" y="124"/>
      <point x="407" y="252" type="qcurve" name="dh01"/>
      <point x="407" y="269"/>
      <point x="410" y="302"/>
      <point x="412" y="322" type="qcurve" name="sh01"/>
      <point x="414" y="342"/>
      <point x="421" y="386"/>
      <point x="426" y="408" type="qcurve"/>
      <point x="559" y="976" type="line" name="sv01"/>
      <point x="313" y="976" type="line"/>
      <point x="342" y="1120" type="line" name="at02"/>
      <point x="772" y="1120" type="line"/>
      <point x="610" y="404" type="line"/>
      <point x="606" y="388"/>
      <point x="601" y="350"/>
      <point x="600" y="342" type="qcurve"/>
      <point x="598" y="326"/>
      <point x="596" y="307"/>
      <point x="596" y="297" type="qcurve" name="dh02"/>
      <point x="596" y="223"/>
      <point x="640" y="188" type="qcurve"/>
      <point x="685" y="152"/>
      <point x="776" y="152" type="qcurve" name="sv02"/>
      <point x="987" y="152" type="line"/>
      <point x="956" y="-4" type="line"/>
    </contour>
  </outline>
</glyph>
<glyph name="j" format="1">
  <advance width="1233"/>
  <unicode hex="006A"/>
  <note>
	j
  </note>
  <outline>
    <contour>
      <point x="935" y="1323" type="line" smooth="yes"/>
      <point x="953" y="1323"/>
      <point x="964" y="1332"/>
      <point x="967" y="1350" type="curve" smooth="yes"/>
      <point x="1001" y="1523" type="line" smooth="yes"/>
      <point x="1005" y="1543"/>
      <point x="994" y="1556"/>
      <point x="974" y="1556" type="curve" smooth="yes"/>
      <point x="850" y="1556" type="line" smooth="yes"/>
      <point x="831" y="1556"/>
      <point x="821" y="1547"/>
      <point x="818" y="1529" type="curve" smooth="yes"/>
      <point x="784" y="1356" type="line" smooth="yes"/>
      <point x="780" y="1336"/>
      <point x="791" y="1323"/>
      <point x="811" y="1323" type="curve" smooth="yes"/>
    </contour>
    <contour>
      <point x="24" y="-426" type="line"/>
      <point x="278" y="-426" type="line" smooth="yes"/>
      <point x="399" y="-426"/>
      <point x="493" y="-394"/>
      <point x="560" y="-330" type="curve" smooth="yes"/>
      <point x="633" y="-259"/>
      <point x="677" y="-149"/>
      <point x="702" y="-20" type="curve" smooth="yes"/>
      <point x="923" y="1120" type="line"/>
      <point x="421" y="1120" type="line"/>
      <point x="393" y="977" type="line"/>
      <point x="710" y="977" type="line"/>
      <point x="518" y="-20" type="line" smooth="yes"/>
      <point x="501" y="-109"/>
      <point x="474" y="-172"/>
      <point x="438" y="-211" type="curve" smooth="yes"/>
      <point x="401" y="-251"/>
      <point x="348" y="-270"/>
      <point x="288" y="-270" type="curve" smooth="yes"/>
      <point x="55" y="-270" type="line"/>
    </contour>
  </outline>
</glyph>
<glyph name="k" format="1">
  <advance width="1233"/>
  <unicode hex="006B"/>
  <outline>
    <contour>
      <point x="393" y="1556" type="line"/>
      <point x="584" y="1556" type="line"/>
      <point x="414" y="682" type="line"/>
      <point x="963" y="1120" type="line"/>
      <point x="1204" y="1120" type="line"/>
      <point x="684" y="698" type="line"/>
      <point x="1057" y="0" type="line"/>
      <point x="844" y="0" type="line"/>
      <point x="537" y="582" type="line"/>
      <point x="369" y="449" type="line"/>
      <point x="281" y="0" type="line"/>
      <point x="90" y="0" type="line"/>
    </contour>
  </outline>
</glyph>
<glyph name="l" format="1">
  <advance width="1233"/>
  <unicode hex="006C"/>
  <note>
	l
  </note>
  <outline>
    <contour>
      <point x="946" y="-8" type="line"/>
      <point x="977" y="148" type="line"/>
      <point x="766" y="148" type="line" smooth="yes"/>
      <point x="705" y="148"/>
      <point x="660" y="160"/>
      <point x="630" y="184" type="curve" smooth="yes"/>
      <point x="601" y="207"/>
      <point x="586" y="244"/>
      <point x="586" y="295" type="curve" smooth="yes"/>
      <point x="586" y="328"/>
      <point x="592" y="333"/>
      <point x="592" y="340" type="curve" smooth="yes"/>
      <point x="592" y="344"/>
      <point x="589" y="352"/>
      <point x="600" y="400" type="curve" smooth="yes"/>
      <point x="840" y="1556" type="line"/>
      <point x="340" y="1556" type="line"/>
      <point x="311" y="1412" type="line"/>
      <point x="627" y="1412" type="line"/>
      <point x="416" y="404" type="line" smooth="yes"/>
      <point x="409" y="369"/>
      <point x="405" y="343"/>
      <point x="402" y="318" type="curve" smooth="yes"/>
      <point x="399" y="293"/>
      <point x="397" y="271"/>
      <point x="397" y="248" type="curve" smooth="yes"/>
      <point x="397" y="160"/>
      <point x="427" y="97"/>
      <point x="482" y="56" type="curve" smooth="yes"/>
      <point x="537" y="13"/>
      <point x="623" y="-8"/>
      <point x="739" y="-8" type="curve" smooth="yes"/>
    </contour>
  </outline>
</glyph>
<glyph name="m" format="1">
  <advance width="1233"/>
  <unicode hex="006D"/>
  <outline>
    <contour>
      <point x="203" y="1120" type="line" name="at01"/>
      <point x="351" y="1120" type="line"/>
      <point x="352" y="1024" type="line" name="iv01"/>
      <point x="381" y="1064"/>
      <point x="414" y="1095"/>
      <point x="452" y="1116" type="curve" name="at02" smooth="yes"/>
      <point x="489" y="1137"/>
      <point x="529" y="1147"/>
      <point x="572" y="1147" type="curve" name="at05" smooth="yes"/>
      <point x="621" y="1147"/>
      <point x="661" y="1135"/>
      <point x="692" y="1110" type="curve" name="at03" smooth="yes"/>
      <point x="722" y="1085"/>
      <point x="741" y="1051"/>
      <point x="748" y="1006" type="curve" name="iv02"/>
      <point x="775" y="1053"/>
      <point x="811" y="1088"/>
      <point x="850" y="1111" type="curve" name="at04" smooth="yes"/>
      <point x="891" y="1135"/>
      <point x="940" y="1147"/>
      <point x="987" y="1147" type="curve" name="at06" smooth="yes"/>
      <point x="1043" y="1147"/>
      <point x="1092" y="1130"/>
      <point x="1127" y="1094" type="curve" smooth="yes"/>
      <point x="1167" y="1051"/>
      <point x="1178" y="994"/>
      <point x="1178" y="943" type="curve" smooth="yes"/>
      <point x="1178" y="916"/>
      <point x="1176" y="869"/>
      <point x="1169" y="824" type="curve"/>
      <point x="1164" y="776"/>
      <point x="1155" y="732"/>
      <point x="1139" y="649" type="curve" smooth="yes"/>
      <point x="1012" y="0" type="line" name="ab01"/>
      <point x="844" y="0" type="line"/>
      <point x="969" y="641" type="line" smooth="yes"/>
      <point x="977" y="682"/>
      <point x="994" y="773"/>
      <point x="997" y="792" type="curve"/>
      <point x="1004" y="827"/>
      <point x="1006" y="861"/>
      <point x="1006" y="881" type="curve" smooth="yes"/>
      <point x="1006" y="913"/>
      <point x="998" y="946"/>
      <point x="983" y="965" type="curve" smooth="yes"/>
      <point x="968" y="984"/>
      <point x="944" y="993"/>
      <point x="909" y="993" type="curve" name="sv01" smooth="yes"/>
      <point x="854" y="993"/>
      <point x="820" y="972"/>
      <point x="793" y="929" type="curve" smooth="yes"/>
      <point x="761" y="878"/>
      <point x="738" y="794"/>
      <point x="707" y="641" type="curve"/>
      <point x="582" y="0" type="line" name="ab02"/>
      <point x="414" y="0" type="line"/>
      <point x="539" y="641" type="line"/>
      <point x="547" y="676"/>
      <point x="562" y="753"/>
      <point x="567" y="795" type="curve" smooth="yes"/>
      <point x="571" y="822"/>
      <point x="575" y="857"/>
      <point x="575" y="881" type="curve" smooth="yes"/>
      <point x="575" y="912"/>
      <point x="569" y="940"/>
      <point x="552" y="963" type="curve" smooth="yes"/>
      <point x="537" y="983"/>
      <point x="512" y="993"/>
      <point x="478" y="993" type="curve" name="sv02" smooth="yes"/>
      <point x="431" y="993"/>
      <point x="394" y="977"/>
      <point x="366" y="934" type="curve" smooth="yes"/>
      <point x="336" y="888"/>
      <point x="311" y="805"/>
      <point x="279" y="641" type="curve" smooth="yes"/>
      <point x="154" y="0" type="line" name="hr01"/>
      <point x="-14" y="0" type="line"/>
    </contour>
  </outline>
</glyph>
<glyph name="n" format="1">
  <advance width="1233"/>
  <unicode hex="006E"/>
  <outline>
    <contour>
      <point x="303" y="1120" type="line" name="at01"/>
      <point x="467" y="1120" type="line"/>
      <point x="455" y="952" type="line" name="iv01"/>
      <point x="504" y="1016"/>
      <point x="559" y="1065"/>
      <point x="618" y="1098" type="curve" smooth="yes"/>
      <point x="675" y="1130"/>
      <point x="732" y="1147"/>
      <point x="807" y="1147" type="curve" name="at02" smooth="yes"/>
      <point x="895" y="1147"/>
      <point x="968" y="1123"/>
      <point x="1019" y="1075" type="curve" smooth="yes"/>
      <point x="1070" y="1028"/>
      <point x="1096" y="957"/>
      <point x="1096" y="877" type="curve" name="dh02" smooth="yes"/>
      <point x="1096" y="818"/>
      <point x="1092" y="778"/>
      <point x="1075" y="694" type="curve" smooth="yes"/>
      <point x="940" y="0" type="line" name="ab01"/>
      <point x="756" y="0" type="line"/>
      <point x="891" y="695" type="line"/>
      <point x="895" y="707"/>
      <point x="891" y="701"/>
      <point x="894" y="709" type="curve"/>
      <point x="905" y="764"/>
      <point x="909" y="783"/>
      <point x="909" y="817" type="curve" name="dh01" smooth="yes"/>
      <point x="909" y="876"/>
      <point x="894" y="915"/>
      <point x="863" y="944" type="curve" smooth="yes"/>
      <point x="832" y="973"/>
      <point x="788" y="987"/>
      <point x="730" y="987" type="curve" name="sv01" smooth="yes"/>
      <point x="644" y="987"/>
      <point x="572" y="956"/>
      <point x="513" y="894" type="curve" smooth="yes"/>
      <point x="454" y="831"/>
      <point x="413" y="744"/>
      <point x="391" y="633" type="curve" smooth="yes"/>
      <point x="268" y="0" type="line" name="hr01"/>
      <point x="84" y="0" type="line"/>
    </contour>
  </outline>
</glyph>
<glyph name="o" format="1">
  <advance width="1233"/>
  <unicode hex="006F"/>
  <outline>
    <contour>
      <point x="514.256" y="-29" type="curve" smooth="yes"/>
      <point x="254.776" y="-29"/>
      <point x="117" y="119.995"/>
      <point x="117" y="397.161" type="curve" smooth="yes"/>
      <point x="117" y="685.041"/>
      <point x="265.633" y="981.023"/>
      <point x="469.837" y="1090.07" type="curve" smooth="yes"/>
      <point x="539.133" y="1127.07"/>
      <point x="623.167" y="1147"/>
      <point x="717.873" y="1147" type="curve" smooth="yes"/>
      <point x="975.229" y="1147"/>
      <point x="1114" y="999.84"/>
      <point x="1114" y="724.009" type="curve" smooth="yes"/>
      <point x="1114" y="544.718"/>
      <point x="1055.37" y="349.657"/>
      <point x="957.769" y="207.465" type="curve" smooth="yes"/>
      <point x="848.695" y="48.5582"/>
      <point x="701.466" y="-29"/>
    </contour>
    <contour>
      <point x="520.077" y="127" type="curve" smooth="yes"/>
      <point x="751.601" y="127"/>
      <point x="920" y="384.167"/>
      <point x="920" y="698.221" type="curve" smooth="yes"/>
      <point x="920" y="902.113"/>
      <point x="849.021" y="991"/>
      <point x="713.525" y="991" type="curve" smooth="yes"/>
      <point x="482.969" y="991"/>
      <point x="313" y="733.643"/>
      <point x="313" y="419.121" type="curve" smooth="yes"/>
      <point x="313" y="215.792"/>
      <point x="384.034" y="127"/>
    </contour>
  </outline>
</glyph>
<glyph name="p" format="1">
  <advance width="1233"/>
  <unicode hex="0070"/>
  <outline>
    <contour>
      <point x="299" y="1120" type="line"/>
      <point x="463" y="1120" type="line"/>
      <point x="455" y="977" type="line"/>
      <point x="536.149" y="1086.2"/>
      <point x="655.244" y="1147"/>
      <point x="793.509" y="1147" type="curve" smooth="yes"/>
      <point x="1006.4" y="1147"/>
      <point x="1128" y="1002.86"/>
      <point x="1128" y="719.43" type="curve" smooth="yes"/>
      <point x="1128" y="316.461"/>
      <point x="882.2" y="-29"/>
      <point x="571.178" y="-29" type="curve" smooth="yes"/>
      <point x="445.431" y="-29"/>
      <point x="350.761" y="27.4695"/>
      <point x="293" y="141" type="curve"/>
      <point x="182" y="-426" type="line"/>
      <point x="-2" y="-426" type="line"/>
    </contour>
    <contour>
      <point x="555.349" y="127" type="curve" smooth="yes"/>
      <point x="769.905" y="127"/>
      <point x="934" y="397.064"/>
      <point x="934" y="707.785" type="curve" smooth="yes"/>
      <point x="934" y="906.388"/>
      <point x="866.962" y="991"/>
      <point x="742.798" y="991" type="curve" smooth="yes"/>
      <point x="521.627" y="991"/>
      <point x="354" y="722.528"/>
      <point x="354" y="421.795" type="curve" smooth="yes"/>
      <point x="354" y="220.467"/>
      <point x="429.126" y="127"/>
    </contour>
  </outline>
</glyph>
<glyph name="q" format="1">
  <advance width="1233"/>
  <unicode hex="0071"/>
  <outline>
    <contour>
      <point x="774" y="141" type="line" name="iv01"/>
      <point x="733" y="85"/>
      <point x="685" y="43"/>
      <point x="631" y="14" type="curve" smooth="yes"/>
      <point x="576" y="-15"/>
      <point x="515" y="-29"/>
      <point x="446" y="-29" type="curve" name="dv01" smooth="yes"/>
      <point x="338" y="-29"/>
      <point x="251" y="5"/>
      <point x="190" y="73" type="curve" smooth="yes"/>
      <point x="131" y="138"/>
      <point x="98" y="236"/>
      <point x="98" y="372" type="curve" name="dh01" smooth="yes"/>
      <point x="98" y="459"/>
      <point x="112" y="555"/>
      <point x="139" y="652" type="curve" smooth="yes"/>
      <point x="166" y="745"/>
      <point x="203" y="833"/>
      <point x="252" y="909" type="curve" smooth="yes"/>
      <point x="304" y="990"/>
      <point x="361" y="1047"/>
      <point x="432" y="1087" type="curve" smooth="yes"/>
      <point x="502" y="1127"/>
      <point x="579" y="1147"/>
      <point x="663" y="1147" type="curve" name="at02" smooth="yes"/>
      <point x="739" y="1147"/>
      <point x="793" y="1132"/>
      <point x="834" y="1105" type="curve" smooth="yes"/>
      <point x="879" y="1076"/>
      <point x="913" y="1034"/>
      <point x="936" y="977" type="curve" name="iv02"/>
      <point x="983" y="1120" type="line" name="at01"/>
      <point x="1147" y="1120" type="line"/>
      <point x="848" y="-426" type="line" name="av01"/>
      <point x="664" y="-426" type="line"/>
    </contour>
    <contour>
      <point x="496" y="127" type="curve" name="hr01" smooth="yes"/>
      <point x="553" y="127"/>
      <point x="604" y="142"/>
      <point x="650" y="173" type="curve" smooth="yes"/>
      <point x="698" y="205"/>
      <point x="739" y="254"/>
      <point x="768" y="305" type="curve" smooth="yes"/>
      <point x="800" y="361"/>
      <point x="826" y="429"/>
      <point x="845" y="508" type="curve" smooth="yes"/>
      <point x="864" y="587"/>
      <point x="874" y="664"/>
      <point x="874" y="731" type="curve" name="hr02" smooth="yes"/>
      <point x="874" y="815"/>
      <point x="858" y="881"/>
      <point x="821" y="926" type="curve" smooth="yes"/>
      <point x="786" y="969"/>
      <point x="734" y="991"/>
      <point x="667" y="991" type="curve" name="sv01" smooth="yes"/>
      <point x="611" y="991"/>
      <point x="560" y="976"/>
      <point x="515" y="947" type="curve" smooth="yes"/>
      <point x="468" y="916"/>
      <point x="432" y="875"/>
      <point x="401" y="816" type="curve" smooth="yes"/>
      <point x="368" y="755"/>
      <point x="343" y="682"/>
      <point x="324" y="607" type="curve" smooth="yes"/>
      <point x="305" y="528"/>
      <point x="295" y="455"/>
      <point x="295" y="386" type="curve" name="dh02" smooth="yes"/>
      <point x="295" y="211"/>
      <point x="364" y="127"/>
    </contour>
  </outline>
</glyph>
<glyph name="r" format="1">
  <advance width="1233"/>
  <unicode hex="0072"/>
  <outline>
    <contour>
      <point x="404" y="1120" type="line" name="at01"/>
      <point x="568" y="1120" type="line"/>
      <point x="548" y="901" type="line" name="iv01"/>
      <point x="593" y="981"/>
      <point x="651" y="1042"/>
      <point x="722" y="1084" type="curve" smooth="yes"/>
      <point x="793" y="1126"/>
      <point x="872" y="1147"/>
      <point x="961" y="1147" type="curve" name="at03" smooth="yes"/>
      <point x="1008" y="1147"/>
      <point x="1055" y="1141"/>
      <point x="1092" y="1129" type="curve" name="at02" smooth="yes"/>
      <point x="1125" y="1118"/>
      <point x="1161" y="1099"/>
      <point x="1189" y="1075" type="curve"/>
      <point x="1154" y="889" type="line" name="iv02"/>
      <point x="1123" y="918"/>
      <point x="1087" y="940"/>
      <point x="1050" y="955" type="curve" smooth="yes"/>
      <point x="1010" y="970"/>
      <point x="964" y="977"/>
      <point x="917" y="977" type="curve" name="sv01" smooth="yes"/>
      <point x="695" y="977"/>
      <point x="530" y="815"/>
      <point x="478" y="549" type="curve" smooth="yes"/>
      <point x="371" y="0" type="line" name="hr01"/>
      <point x="187" y="0" type="line"/>
    </contour>
  </outline>
</glyph>
<glyph name="s" format="1">
  <advance width="1233"/>
  <unicode hex="0073"/>
  <outline>
    <contour>
      <point x="471.772" y="-29" type="curve" smooth="yes"/>
      <point x="364.027" y="-29"/>
      <point x="246.596" y="-6.29222"/>
      <point x="115" y="41" type="curve"/>
      <point x="152" y="231" type="line"/>
      <point x="283.84" y="158.9"/>
      <point x="397.373" y="125"/>
      <point x="497.113" y="125" type="curve" smooth="yes"/>
      <point x="627.864" y="125"/>
      <point x="807" y="183.258"/>
      <point x="807" y="323.928" type="curve" smooth="yes"/>
      <point x="807" y="403.25"/>
      <point x="750.041" y="449.166"/>
      <point x="611" y="487" type="curve" smooth="yes"/>
      <point x="516" y="512" type="line" smooth="yes"/>
      <point x="341.34" y="558.174"/>
      <point x="266" y="638.939"/>
      <point x="266" y="783.471" type="curve" smooth="yes"/>
      <point x="266" y="1049.33"/>
      <point x="520.925" y="1147"/>
      <point x="759.537" y="1147" type="curve" smooth="yes"/>
      <point x="873.773" y="1147"/>
      <point x="982.986" y="1124.61"/>
      <point x="1077" y="1081" type="curve"/>
      <point x="1042" y="901" type="line"/>
      <point x="951.732" y="960.538"/>
      <point x="841.997" y="993"/>
      <point x="731.925" y="993" type="curve" smooth="yes"/>
      <point x="564.07" y="993"/>
      <point x="449" y="917.511"/>
      <point x="449" y="808.726" type="curve" smooth="yes"/>
      <point x="449" y="732.509"/>
      <point x="505.484" y="690.849"/>
      <point x="670" y="645" type="curve"/>
      <point x="681.952" y="640.817"/>
      <point x="684.976" y="640.562"/>
      <point x="686.968" y="640.394" type="curve" smooth="yes"/>
      <point x="688.309" y="640.281"/>
      <point x="689.183" y="640.207"/>
      <point x="692" y="639" type="curve"/>
      <point x="764" y="621" type="line" smooth="yes"/>
      <point x="918.966" y="582.259"/>
      <point x="997" y="497.861"/>
      <point x="997" y="356.385" type="curve" smooth="yes"/>
      <point x="997" y="88.1575"/>
      <point x="716.507" y="-29"/>
    </contour>
  </outline>
</glyph>
<glyph name="t" format="1">
  <advance width="1233"/>
  <unicode hex="0074"/>
  <outline>
    <contour>
      <point x="682" y="-4" type="line" name="ab01" smooth="yes"/>
      <point x="563" y="-4"/>
      <point x="488" y="17"/>
      <point x="437" y="52" type="curve" smooth="yes"/>
      <point x="384" y="89"/>
      <point x="358" y="142"/>
      <point x="358" y="222" type="curve" name="dh01" smooth="yes"/>
      <point x="358" y="238"/>
      <point x="359" y="261"/>
      <point x="362" y="284" type="curve" smooth="yes"/>
      <point x="365" y="301"/>
      <point x="368" y="330"/>
      <point x="375" y="365" type="curve" smooth="yes"/>
      <point x="494" y="977" type="line" name="sv01"/>
      <point x="195" y="977" type="line" name="sv02"/>
      <point x="223" y="1120" type="line" name="at01"/>
      <point x="522" y="1120" type="line"/>
      <point x="584" y="1438" type="line" name="sv03"/>
      <point x="768" y="1438" type="line"/>
      <point x="707" y="1120" type="line" name="hr01"/>
      <point x="1124" y="1120" type="line"/>
      <point x="1096" y="977" type="line" name="hr02"/>
      <point x="678" y="977" type="line" name="sv04"/>
      <point x="559" y="365" type="line"/>
      <point x="551" y="319"/>
      <point x="552" y="322"/>
      <point x="550" y="310" type="curve" name="sh01"/>
      <point x="548" y="293"/>
      <point x="547" y="277"/>
      <point x="547" y="263" type="curve" name="dh02" smooth="yes"/>
      <point x="547" y="218"/>
      <point x="560" y="187"/>
      <point x="586" y="170" type="curve" smooth="yes"/>
      <point x="612" y="152"/>
      <point x="659" y="143"/>
      <point x="727" y="143" type="curve" name="sv05" smooth="yes"/>
      <point x="934" y="143" type="line" name="sv06"/>
      <point x="905" y="-4" type="line" name="ab02"/>
    </contour>
  </outline>
</glyph>
<glyph name="u" format="1">
  <advance width="1233"/>
  <unicode hex="0075"/>
  <outline>
    <contour>
      <point x="407.924" y="-27" type="curve" smooth="yes"/>
      <point x="232.608" y="-27"/>
      <point x="125" y="77.1979"/>
      <point x="125" y="261.464" type="curve" smooth="yes"/>
      <point x="125" y="304.57"/>
      <point x="130.889" y="362.803"/>
      <point x="143" y="426" type="curve" smooth="yes"/>
      <point x="276" y="1120" type="line"/>
      <point x="461" y="1120" type="line"/>
      <point x="326" y="426" type="line" smooth="yes"/>
      <point x="315.653" y="372.81"/>
      <point x="311" y="333.103"/>
      <point x="311" y="303.375" type="curve" smooth="yes"/>
      <point x="311" y="192.74"/>
      <point x="375.447" y="133"/>
      <point x="488.848" y="133" type="curve" smooth="yes"/>
      <point x="656.984" y="133"/>
      <point x="781.632" y="264.325"/>
      <point x="825" y="487" type="curve" smooth="yes"/>
      <point x="948" y="1120" type="line"/>
      <point x="1133" y="1120" type="line"/>
      <point x="915" y="0" type="line"/>
      <point x="751" y="0" type="line"/>
      <point x="764" y="168" type="line"/>
      <point x="666.599" y="38.6501"/>
      <point x="547.082" y="-27"/>
    </contour>
  </outline>
</glyph>
<glyph name="v" format="1">
  <advance width="1233"/>
  <unicode hex="0076"/>
  <outline>
    <contour>
      <point x="182" y="1120" type="line"/>
      <point x="360" y="1120" type="line"/>
      <point x="514" y="164" type="line"/>
      <point x="1016" y="1120" type="line"/>
      <point x="1214" y="1120" type="line"/>
      <point x="600" y="0" type="line"/>
      <point x="362" y="0" type="line"/>
    </contour>
  </outline>
</glyph>
<glyph name="w" format="1">
  <advance width="1233"/>
  <unicode hex="0077"/>
  <outline>
    <contour>
      <point x="92" y="1120" type="line" name="hr00"/>
      <point x="268" y="1120" type="line"/>
      <point x="283" y="215" type="line" name="iv01"/>
      <point x="551" y="793" type="line"/>
      <point x="713" y="793" type="line"/>
      <point x="762" y="215" type="line" name="iv02"/>
      <point x="1124" y="1120" type="line" name="at01"/>
      <point x="1315" y="1120" type="line"/>
      <point x="829" y="0" type="line" name="ab01"/>
      <point x="664" y="0" type="line"/>
      <point x="604" y="623" type="line" name="iv03"/>
      <point x="307" y="0" type="line" name="ab02"/>
      <point x="141" y="0" type="line"/>
    </contour>
  </outline>
</glyph>
<glyph name="x" format="1">
  <advance width="1233"/>
  <unicode hex="0078"/>
  <outline>
    <contour>
      <point x="524" y="596" type="line" name="hr00"/>
      <point x="231" y="1120" type="line" name="at01"/>
      <point x="427" y="1120" type="line"/>
      <point x="644" y="725" type="line" name="iv01"/>
      <point x="1013" y="1120" type="line" name="at02"/>
      <point x="1238" y="1120" type="line"/>
      <point x="726" y="573" type="line"/>
      <point x="1044" y="0" type="line" name="ab01"/>
      <point x="847" y="0" type="line"/>
      <point x="603" y="444" type="line" name="iv02"/>
      <point x="186" y="0" type="line" name="ab02"/>
      <point x="-40" y="0" type="line"/>
    </contour>
  </outline>
</glyph>
<glyph name="y" format="1">
  <advance width="1233"/>
  <unicode hex="0079"/>
  <outline>
    <contour>
      <point x="20" y="-272" type="line" name="hr00"/>
      <point x="128" y="-272" type="line" smooth="yes" name="dv02"/>
      <point x="283.945" y="-272"/>
      <point x="352.011" y="-135.818"/>
      <point x="412.956" y="-13.8848" type="curve" smooth="yes"/>
      <point x="421.006" y="2.22077"/>
      <point x="424.996" y="10.1506"/>
      <point x="429" y="18" type="curve"/>
      <point x="212" y="1120" type="line" name="at01"/>
      <point x="395" y="1120" type="line"/>
      <point x="567" y="258" type="line"/>
      <point x="1050" y="1120" type="line" name="at02"/>
      <point x="1255" y="1120" type="line"/>
      <point x="1199.51" y="1023.97"/>
      <point x="1143.86" y="928.016"/>
      <point x="1088.21" y="832.053" type="curve" smooth="yes"/>
      <point x="941.593" y="579.215"/>
      <point x="794.948" y="326.334"/>
      <point x="677.24" y="118.362" type="curve" smooth="yes"/>
      <point x="636.952" y="47.1788"/>
      <point x="622.818" y="21.4784"/>
      <point x="608.471" y="-4.61063" type="curve" smooth="yes"/>
      <point x="530.788" y="-145.869"/>
      <point x="489.987" y="-212.757"/>
      <point x="450.744" y="-263.659" type="curve" smooth="yes"/>
      <point x="362.062" y="-378.686"/>
      <point x="270.598" y="-426"/>
      <point x="139" y="-426" type="curve" smooth="yes" name="dv01"/>
      <point x="-9" y="-426" type="line"/>
    </contour>
  </outline>
</glyph>
<glyph name="z" format="1">
  <advance width="1233"/>
  <unicode hex="007A"/>
  <note>
	z
  </note>
  <outline>
    <contour>
      <point x="78" y="0" type="line"/>
      <point x="915" y="0" type="line"/>
      <point x="944" y="147" type="line"/>
      <point x="315" y="147" type="line"/>
      <point x="1100" y="952" type="line"/>
      <point x="1133" y="1120" type="line"/>
      <point x="319" y="1120" type="line"/>
      <point x="291" y="973" type="line"/>
      <point x="895" y="973" type="line"/>
      <point x="111" y="168" type="line"/>
    </contour>
  </outline>
</glyph>
<glyph name="braceleft" format="2">
  <advance width="1233"/>
  <unicode hex="007B"/>
  <outline>
    <contour>
      <point x="685" y="-197" type="line" smooth="yes" name="hr00"/>
      <point x="448.348" y="-197"/>
      <point x="334.813" y="-121.782"/>
      <point x="334.813" y="35" type="curve" smooth="yes"/>
      <point x="334.813" y="60.9062" type="line" smooth="yes"/>
      <point x="334.813" y="137.335"/>
      <point x="352.985" y="218.611"/>
      <point x="369.888" y="294.208" type="curve" smooth="yes"/>
      <point x="374.057" y="312.856"/>
      <point x="378.15" y="331.159"/>
      <point x="381.873" y="348.958" type="curve" smooth="yes"/>
      <point x="383.189" y="355.249"/>
      <point x="384.533" y="361.535"/>
      <point x="385.813" y="367.457" type="curve" smooth="yes"/>
      <point x="402.09" y="442.749"/>
      <point x="407" y="476.455"/>
      <point x="407" y="508.548" type="curve" smooth="yes"/>
      <point x="407" y="627.12"/>
      <point x="339.982" y="674.436"/>
      <point x="173.673" y="674.436" type="curve" smooth="yes"/>
      <point x="113.539" y="674.436" type="line"/>
      <point x="133" y="820.82" type="line"/>
      <point x="179.473" y="820.82" type="line"/>
      <point x="445.746" y="820.82"/>
      <point x="505.737" y="882.822"/>
      <point x="555.518" y="1209.46" type="curve" smooth="yes"/>
      <point x="612.658" y="1584.4"/>
      <point x="717.404" y="1693.34"/>
      <point x="1020.75" y="1693.34" type="curve" smooth="yes"/>
      <point x="1126" y="1693.34" type="line"/>
      <point x="1097" y="1550" type="line" name="sv01"/>
      <point x="1089.43" y="1550"/>
      <point x="1082.04" y="1550.14"/>
      <point x="1074.5" y="1550.28" type="curve" smooth="yes"/>
      <point x="1066.64" y="1550.42"/>
      <point x="1058.62" y="1550.57"/>
      <point x="1040.88" y="1550.57" type="curve" smooth="yes"/>
      <point x="828.319" y="1550.57"/>
      <point x="801.192" y="1529.17"/>
      <point x="759" y="1321" type="curve" smooth="yes"/>
      <point x="708" y="1069" type="line" smooth="yes"/>
      <point x="666.714" y="865.644"/>
      <point x="591.127" y="772.307"/>
      <point x="444" y="743" type="curve" name="ih01"/>
      <point x="546.517" y="717.478"/>
      <point x="597.556" y="646.351"/>
      <point x="597.556" y="529.008" type="curve" smooth="yes"/>
      <point x="597.556" y="456.444"/>
      <point x="578.054" y="377.99"/>
      <point x="559.272" y="302.43" type="curve" smooth="yes"/>
      <point x="541.825" y="232.245"/>
      <point x="525" y="164.557"/>
      <point x="525" y="108.178" type="curve" smooth="yes" name="sh01"/>
      <point x="525" y="-53.6761"/>
      <point x="663.668" y="-53.525"/>
      <point x="782.945" y="-53.525" type="curve" smooth="yes"/>
      <point x="786" y="-53.5241" type="line"/>
      <point x="757" y="-197" type="line" name="sv02"/>
    </contour>
  </outline>
</glyph>
<glyph name="bar" format="1">
  <advance width="1233"/>
  <unicode hex="007C"/>
  <outline>
    <contour>
      <point x="702" y="455" type="line" name="hr00"/>
      <point x="702" y="-483" type="line"/>
      <point x="530" y="-483" type="line"/>
      <point x="530" y="455" type="line"/>
    </contour>
    <contour>
      <point x="530" y="627" type="line"/>
      <point x="530" y="1565" type="line"/>
      <point x="702" y="1565" type="line"/>
      <point x="702" y="627" type="line"/>
    </contour>
  </outline>
</glyph>
<glyph name="braceright" format="1">
  <advance width="1233"/>
  <unicode hex="007D"/>
  <outline>
    <contour>
      <point x="64" y="-190" type="line" name="hr00"/>
      <point x="142" y="-190" type="line" name="dv02"/>
      <point x="279" y="-190"/>
      <point x="325" y="-150" type="qcurve"/>
      <point x="347" y="-131"/>
      <point x="385" y="-43"/>
      <point x="402" y="39" type="qcurve"/>
      <point x="453" y="291" type="line"/>
      <point x="468" y="366"/>
      <point x="512" y="483"/>
      <point x="546" y="524" type="qcurve"/>
      <point x="607" y="597"/>
      <point x="718" y="616" type="qcurve" name="ih01"/>
      <point x="644" y="636"/>
      <point x="604" y="686" type="qcurve"/>
      <point x="584" y="712"/>
      <point x="564" y="771"/>
      <point x="564" y="813" type="qcurve" name="dh01"/>
      <point x="564" y="825"/>
      <point x="566" y="852"/>
      <point x="568" y="870" type="qcurve" name="sh01"/>
      <point x="570" y="891"/>
      <point x="573" y="917"/>
      <point x="578" y="940" type="qcurve"/>
      <point x="625" y="1183" type="line" name="sh02"/>
      <point x="625" y="1185"/>
      <point x="628" y="1203"/>
      <point x="631" y="1224"/>
      <point x="634" y="1241"/>
      <point x="634" y="1243" type="qcurve" name="sh03"/>
      <point x="635" y="1255"/>
      <point x="636" y="1281"/>
      <point x="636" y="1290" type="qcurve" name="ih02"/>
      <point x="636" y="1356"/>
      <point x="594" y="1385" type="qcurve"/>
      <point x="551" y="1413"/>
      <point x="453" y="1413" type="qcurve" name="sv01"/>
      <point x="376" y="1413" type="line"/>
      <point x="402" y="1556" type="line" name="at01"/>
      <point x="476" y="1556" type="line" name="hr01"/>
      <point x="576" y="1556"/>
      <point x="706" y="1528"/>
      <point x="745" y="1502" type="qcurve"/>
      <point x="784" y="1476"/>
      <point x="826" y="1393"/>
      <point x="826" y="1320" type="qcurve" name="sh04"/>
      <point x="826" y="1306"/>
      <point x="824" y="1281"/>
      <point x="822" y="1259" type="qcurve" name="sh05"/>
      <point x="820" y="1240"/>
      <point x="817" y="1214"/>
      <point x="812" y="1188" type="qcurve"/>
      <point x="767" y="952" type="line"/>
      <point x="765" y="940" type="line"/>
      <point x="760" y="915"/>
      <point x="755" y="869"/>
      <point x="755" y="849" type="qcurve" name="dh02"/>
      <point x="755" y="760"/>
      <point x="804" y="723" type="qcurve"/>
      <point x="853" y="686"/>
      <point x="965" y="686" type="qcurve"/>
      <point x="1057" y="686" type="line" name="dv04"/>
      <point x="1028" y="539" type="line" name="dv03"/>
      <point x="937" y="539" type="line" name="hr02"/>
      <point x="794" y="539"/>
      <point x="730" y="484" type="qcurve"/>
      <point x="698" y="457"/>
      <point x="649" y="357"/>
      <point x="634" y="279" type="qcurve"/>
      <point x="587" y="35" type="line"/>
      <point x="575" y="-28"/>
      <point x="543" y="-125"/>
      <point x="525" y="-160" type="qcurve"/>
      <point x="489" y="-231"/>
      <point x="435" y="-270" type="qcurve"/>
      <point x="410" y="-288"/>
      <point x="354" y="-311"/>
      <point x="319" y="-319" type="qcurve"/>
      <point x="250" y="-334"/>
      <point x="118" y="-334" type="qcurve" name="dv01"/>
      <point x="36" y="-334" type="line"/>
    </contour>
  </outline>
</glyph>
<glyph name="exclamdown" format="1">
  <advance width="1233"/>
  <unicode hex="00A1"/>
  <outline>
    <contour>
      <point x="713" y="1170" type="qcurve" name="hr00"/>
      <point x="680" y="1170"/>
      <point x="630" y="1189"/>
      <point x="612" y="1211" type="qcurve"/>
      <point x="591" y="1236"/>
      <point x="577" y="1296"/>
      <point x="577" y="1319" type="qcurve" name="dh01"/>
      <point x="577" y="1360"/>
      <point x="609" y="1430"/>
      <point x="638" y="1459" type="qcurve"/>
      <point x="667" y="1487"/>
      <point x="735" y="1514"/>
      <point x="771" y="1514" type="qcurve" name="at01"/>
      <point x="802" y="1514"/>
      <point x="856" y="1494"/>
      <point x="875" y="1474" type="qcurve"/>
      <point x="897" y="1450"/>
      <point x="909" y="1393"/>
      <point x="909" y="1378" type="qcurve" name="dh02"/>
      <point x="909" y="1335"/>
      <point x="873" y="1250"/>
      <point x="838" y="1218" type="qcurve"/>
      <point x="814" y="1195"/>
      <point x="753" y="1170"/>
    </contour>
    <contour>
      <point x="498" y="655" type="line"/>
      <point x="606" y="1012" type="line"/>
      <point x="768" y="1012" type="line"/>
      <point x="729" y="655" type="line"/>
      <point x="602" y="0" type="line" name="ab01"/>
      <point x="369" y="0" type="line"/>
    </contour>
  </outline>
</glyph>
<glyph name="cent" format="1">
  <advance width="1233"/>
  <unicode hex="00A2"/>
  <note>
	cent
  </note>
  <outline>
    <contour>
      <point x="455" y="-313" type="line"/>
      <point x="557" y="-313" type="line"/>
      <point x="612" y="-27" type="line"/>
      <point x="655" y="-24"/>
      <point x="704" y="-18"/>
      <point x="744" y="-7" type="curve" smooth="yes"/>
      <point x="770" y="1"/>
      <point x="834" y="17"/>
      <point x="887" y="41" type="curve"/>
      <point x="920" y="213" type="line"/>
      <point x="869" y="186"/>
      <point x="823" y="166"/>
      <point x="776" y="151" type="curve" smooth="yes"/>
      <point x="729" y="136"/>
      <point x="684" y="126"/>
      <point x="641" y="123" type="curve"/>
      <point x="811" y="993" type="line"/>
      <point x="860" y="989"/>
      <point x="905" y="980"/>
      <point x="945" y="965" type="curve" smooth="yes"/>
      <point x="985" y="950"/>
      <point x="1022" y="930"/>
      <point x="1055" y="905" type="curve"/>
      <point x="1087" y="1077" type="line"/>
      <point x="1047" y="1098"/>
      <point x="1006" y="1114"/>
      <point x="963" y="1125" type="curve" smooth="yes"/>
      <point x="920" y="1136"/>
      <point x="879" y="1143"/>
      <point x="840" y="1145" type="curve"/>
      <point x="895" y="1432" type="line"/>
      <point x="793" y="1432" type="line"/>
      <point x="737" y="1145" type="line"/>
      <point x="679" y="1141"/>
      <point x="625" y="1130"/>
      <point x="574" y="1112" type="curve" smooth="yes"/>
      <point x="526" y="1095"/>
      <point x="476" y="1071"/>
      <point x="425" y="1036" type="curve" smooth="yes"/>
      <point x="341" y="979"/>
      <point x="263" y="895"/>
      <point x="204" y="778" type="curve" smooth="yes"/>
      <point x="149" y="670"/>
      <point x="123" y="551"/>
      <point x="123" y="434" type="curve" smooth="yes"/>
      <point x="123" y="301"/>
      <point x="157" y="193"/>
      <point x="225" y="113" type="curve" smooth="yes"/>
      <point x="293" y="33"/>
      <point x="393" y="-15"/>
      <point x="510" y="-27" type="curve"/>
    </contour>
    <contour>
      <point x="541" y="127" type="line"/>
      <point x="461" y="136"/>
      <point x="411" y="168"/>
      <point x="374" y="216" type="curve" smooth="yes"/>
      <point x="335" y="267"/>
      <point x="315" y="331"/>
      <point x="315" y="431" type="curve" smooth="yes"/>
      <point x="315" y="570"/>
      <point x="353" y="700"/>
      <point x="430" y="812" type="curve" smooth="yes"/>
      <point x="506" y="921"/>
      <point x="599" y="981"/>
      <point x="709" y="991" type="curve"/>
    </contour>
  </outline>
</glyph>
<glyph name="sterling" format="1">
  <advance width="1233"/>
  <unicode hex="00A3"/>
  <outline>
    <contour>
      <point x="25" y="170" type="line" name="hr00"/>
      <point x="262" y="170" type="line"/>
      <point x="352" y="635" type="line" name="dv01"/>
      <point x="154" y="635" type="line"/>
      <point x="180" y="778" type="line"/>
      <point x="379" y="778" type="line" name="dv02"/>
      <point x="426" y="1016" type="line"/>
      <point x="453" y="1153"/>
      <point x="543" y="1337"/>
      <point x="608" y="1397" type="qcurve"/>
      <point x="671" y="1456"/>
      <point x="845" y="1520"/>
      <point x="957" y="1520" type="qcurve" name="at01"/>
      <point x="1030" y="1520"/>
      <point x="1092" y="1506" type="qcurve" name="at02"/>
      <point x="1112" y="1501"/>
      <point x="1189" y="1478"/>
      <point x="1229" y="1462" type="qcurve"/>
      <point x="1192" y="1278" type="line" name="iv01"/>
      <point x="1138" y="1321"/>
      <point x="1078" y="1344" type="qcurve"/>
      <point x="1018" y="1366"/>
      <point x="952" y="1366" type="qcurve" name="sv01"/>
      <point x="881" y="1366"/>
      <point x="776" y="1323"/>
      <point x="738" y="1281" type="qcurve"/>
      <point x="700" y="1239"/>
      <point x="644" y="1102"/>
      <point x="623" y="995" type="qcurve"/>
      <point x="580" y="778" type="line" name="sv02"/>
      <point x="950" y="778" type="line"/>
      <point x="922" y="635" type="line" name="sv03"/>
      <point x="551" y="635" type="line"/>
      <point x="461" y="170" type="line" name="sv04"/>
      <point x="997" y="170" type="line" name="sv05"/>
      <point x="965" y="0" type="line" name="ab01"/>
      <point x="-8" y="0" type="line"/>
    </contour>
  </outline>
</glyph>
<glyph name="yen" format="1">
  <advance width="1233"/>
  <unicode hex="00A5"/>
  <outline>
    <contour>
      <point x="444" y="524" type="line" name="hr00"/>
      <point x="47" y="524" type="line"/>
      <point x="70" y="635" type="line"/>
      <point x="467" y="635" type="line" name="dv01"/>
      <point x="473" y="670" type="line"/>
      <point x="418" y="821" type="line" name="dv02"/>
      <point x="109" y="821" type="line"/>
      <point x="131" y="932" type="line"/>
      <point x="377" y="932" type="line" name="dv03"/>
      <point x="172" y="1493" type="line" name="at01"/>
      <point x="379" y="1493" type="line"/>
      <point x="602" y="829" type="line" name="iv01"/>
      <point x="1061" y="1493" type="line" name="at02"/>
      <point x="1272" y="1493" type="line"/>
      <point x="868" y="932" type="line" name="sv01"/>
      <point x="1120" y="932" type="line"/>
      <point x="1098" y="821" type="line" name="sv02"/>
      <point x="786" y="821" type="line"/>
      <point x="676" y="670" type="line"/>
      <point x="666" y="635" type="line" name="sv03"/>
      <point x="1059" y="635" type="line"/>
      <point x="1036" y="524" type="line" name="sv04"/>
      <point x="643" y="524" type="line"/>
      <point x="545" y="0" type="line" name="ab01"/>
      <point x="346" y="0" type="line"/>
    </contour>
  </outline>
</glyph>
<glyph name="section" format="1">
  <advance width="1233"/>
  <unicode hex="00A7"/>
  <outline>
    <contour>
      <point x="411" y="-201" type="qcurve" name="hr00"/>
      <point x="371" y="-201"/>
      <point x="292" y="-193"/>
      <point x="260" y="-187" type="qcurve"/>
      <point x="224" y="-180"/>
      <point x="139" y="-157"/>
      <point x="100" y="-143" type="qcurve"/>
      <point x="133" y="18" type="line"/>
      <point x="170" y="0"/>
      <point x="243" y="-27"/>
      <point x="279" y="-37" type="qcurve"/>
      <point x="315" y="-47"/>
      <point x="380" y="-57"/>
      <point x="415" y="-57" type="qcurve" name="dv01"/>
      <point x="467" y="-57"/>
      <point x="558" y="-33"/>
      <point x="591" y="-10" type="qcurve"/>
      <point x="624" y="13"/>
      <point x="657" y="76"/>
      <point x="657" y="110" type="qcurve" name="dh03"/>
      <point x="657" y="164"/>
      <point x="570" y="271"/>
      <point x="474" y="337" type="qcurve"/>
      <point x="387" y="397" type="line"/>
      <point x="262" y="483"/>
      <point x="222" y="538" type="qcurve"/>
      <point x="201" y="567"/>
      <point x="182" y="631"/>
      <point x="182" y="667" type="qcurve" name="dh01"/>
      <point x="182" y="712"/>
      <point x="212" y="803"/>
      <point x="246" y="848" type="qcurve"/>
      <point x="278" y="890"/>
      <point x="368" y="965"/>
      <point x="428" y="997" type="qcurve" name="ih01"/>
      <point x="386" y="1036"/>
      <point x="369" y="1074" type="qcurve"/>
      <point x="359" y="1095"/>
      <point x="350" y="1139"/>
      <point x="350" y="1167" type="qcurve" name="sh02"/>
      <point x="350" y="1241"/>
      <point x="411" y="1367"/>
      <point x="470" y="1415" type="qcurve"/>
      <point x="530" y="1463"/>
      <point x="688" y="1511"/>
      <point x="779" y="1511" type="qcurve" name="at01"/>
      <point x="814" y="1511"/>
      <point x="884" y="1504"/>
      <point x="921" y="1497" type="qcurve" name="at02"/>
      <point x="960" y="1489"/>
      <point x="1031" y="1468"/>
      <point x="1069" y="1454" type="qcurve"/>
      <point x="1036" y="1290" type="line"/>
      <point x="1002" y="1308"/>
      <point x="933" y="1337"/>
      <point x="897" y="1348" type="qcurve"/>
      <point x="861" y="1359"/>
      <point x="796" y="1368"/>
      <point x="767" y="1368" type="qcurve" name="sv01"/>
      <point x="719" y="1368"/>
      <point x="634" y="1344"/>
      <point x="601" y="1319" type="qcurve"/>
      <point x="568" y="1294"/>
      <point x="535" y="1234"/>
      <point x="535" y="1203" type="qcurve" name="sh01"/>
      <point x="535" y="1160"/>
      <point x="600" y="1074"/>
      <point x="669" y="1029" type="qcurve"/>
      <point x="717" y="997" type="line"/>
      <point x="803" y="938" type="line"/>
      <point x="866" y="895"/>
      <point x="948" y="823"/>
      <point x="970" y="794" type="qcurve"/>
      <point x="992" y="765"/>
      <point x="1012" y="698"/>
      <point x="1012" y="663" type="qcurve" name="sh03"/>
      <point x="1012" y="616"/>
      <point x="979" y="520"/>
      <point x="946" y="475" type="qcurve"/>
      <point x="911" y="427"/>
      <point x="820" y="357"/>
      <point x="766" y="332" type="qcurve" name="ih02"/>
      <point x="807" y="297"/>
      <point x="828" y="252" type="qcurve"/>
      <point x="837" y="232"/>
      <point x="848" y="180"/>
      <point x="848" y="148" type="qcurve" name="dh04"/>
      <point x="848" y="75"/>
      <point x="788" y="-54"/>
      <point x="728" y="-103" type="qcurve"/>
      <point x="667" y="-152"/>
      <point x="504" y="-201"/>
    </contour>
    <contour>
      <point x="678" y="401" type="line"/>
      <point x="762" y="452"/>
      <point x="806" y="508" type="qcurve"/>
      <point x="850" y="564"/>
      <point x="850" y="616" type="qcurve" name="sh04"/>
      <point x="850" y="646"/>
      <point x="821" y="702"/>
      <point x="797" y="727" type="qcurve"/>
      <point x="770" y="755"/>
      <point x="665" y="833"/>
      <point x="596" y="877" type="qcurve"/>
      <point x="516" y="928" type="line"/>
      <point x="435" y="876"/>
      <point x="391" y="820" type="qcurve"/>
      <point x="348" y="765"/>
      <point x="348" y="711" type="qcurve" name="dh02"/>
      <point x="348" y="657"/>
      <point x="391" y="610" type="qcurve"/>
      <point x="411" y="588"/>
      <point x="490" y="524"/>
      <point x="559" y="479" type="qcurve"/>
    </contour>
  </outline>
</glyph>
<glyph name="dieresis" format="1">
  <advance width="1233"/>
  <unicode hex="00A8"/>
  <outline>
    <contour>
      <point x="469" y="1350" type="line" name="hr00"/>
      <point x="454" y="1350"/>
      <point x="439" y="1368"/>
      <point x="442" y="1383" type="qcurve"/>
      <point x="470" y="1525" type="line"/>
      <point x="474" y="1552"/>
      <point x="502" y="1552" type="qcurve" name="dv01"/>
      <point x="645" y="1552" type="line"/>
      <point x="660" y="1552"/>
      <point x="675" y="1534"/>
      <point x="672" y="1519" type="qcurve"/>
      <point x="644" y="1377" type="line"/>
      <point x="639" y="1350"/>
      <point x="612" y="1350" type="qcurve"/>
    </contour>
    <contour>
      <point x="860" y="1350" type="line" name="sv01"/>
      <point x="845" y="1350"/>
      <point x="830" y="1368"/>
      <point x="833" y="1383" type="qcurve"/>
      <point x="861" y="1525" type="line"/>
      <point x="865" y="1552"/>
      <point x="893" y="1552" type="qcurve" name="sv02"/>
      <point x="1036" y="1552" type="line"/>
      <point x="1051" y="1552"/>
      <point x="1066" y="1534"/>
      <point x="1063" y="1519" type="qcurve"/>
      <point x="1035" y="1377" type="line"/>
      <point x="1030" y="1350"/>
      <point x="1003" y="1350" type="qcurve"/>
    </contour>
  </outline>
</glyph>
<glyph name="copyright" format="1">
  <advance width="1233"/>
  <unicode hex="00A9"/>
  <outline>
    <contour>
      <point x="616" y="125" type="qcurve" name="hr00"/>
      <point x="550" y="125"/>
      <point x="436" y="148"/>
      <point x="382" y="171" type="qcurve"/>
      <point x="327" y="194"/>
      <point x="225" y="263"/>
      <point x="181" y="307" type="qcurve"/>
      <point x="139" y="349"/>
      <point x="68" y="452"/>
      <point x="45" y="508" type="qcurve"/>
      <point x="0" y="614"/>
      <point x="0" y="741" type="qcurve" name="dh01"/>
      <point x="0" y="804"/>
      <point x="23" y="922"/>
      <point x="46" y="977" type="qcurve"/>
      <point x="69" y="1031"/>
      <point x="136" y="1131"/>
      <point x="182" y="1178" type="qcurve"/>
      <point x="229" y="1226"/>
      <point x="329" y="1292"/>
      <point x="381" y="1313" type="qcurve"/>
      <point x="490" y="1358"/>
      <point x="616" y="1358" type="qcurve" name="dv03"/>
      <point x="742" y="1358"/>
      <point x="852" y="1313" type="qcurve"/>
      <point x="909" y="1290"/>
      <point x="1009" y="1221"/>
      <point x="1051" y="1178" type="qcurve"/>
      <point x="1100" y="1128"/>
      <point x="1167" y="1025"/>
      <point x="1187" y="977" type="qcurve"/>
      <point x="1233" y="869"/>
      <point x="1233" y="742" type="qcurve" name="dh06"/>
      <point x="1233" y="614"/>
      <point x="1188" y="508" type="qcurve"/>
      <point x="1166" y="456"/>
      <point x="1097" y="352"/>
      <point x="1052" y="307" type="qcurve"/>
      <point x="1010" y="265"/>
      <point x="908" y="195"/>
      <point x="851" y="171" type="qcurve"/>
      <point x="743" y="125"/>
    </contour>
    <contour>
      <point x="617" y="227" type="qcurve" name="dv01"/>
      <point x="721" y="227"/>
      <point x="812" y="265" type="qcurve"/>
      <point x="859" y="285"/>
      <point x="944" y="343"/>
      <point x="979" y="378" type="qcurve"/>
      <point x="1013" y="412"/>
      <point x="1074" y="500"/>
      <point x="1093" y="546" type="qcurve"/>
      <point x="1130" y="635"/>
      <point x="1130" y="741" type="qcurve" name="dh05"/>
      <point x="1130" y="795"/>
      <point x="1111" y="893"/>
      <point x="1092" y="939" type="qcurve"/>
      <point x="1054" y="1031"/>
      <point x="979" y="1106" type="qcurve"/>
      <point x="905" y="1180"/>
      <point x="814" y="1218" type="qcurve"/>
      <point x="724" y="1255"/>
      <point x="616" y="1255" type="qcurve" name="dv02"/>
      <point x="509" y="1255"/>
      <point x="420" y="1218" type="qcurve"/>
      <point x="328" y="1180"/>
      <point x="254" y="1106" type="qcurve"/>
      <point x="178" y="1030"/>
      <point x="141" y="939" type="qcurve"/>
      <point x="102" y="846"/>
      <point x="102" y="742" type="qcurve" name="dh02"/>
      <point x="102" y="688"/>
      <point x="121" y="593"/>
      <point x="141" y="546" type="qcurve"/>
      <point x="165" y="489"/>
      <point x="225" y="408"/>
      <point x="254" y="379" type="qcurve"/>
      <point x="292" y="341"/>
      <point x="373" y="285"/>
      <point x="421" y="265" type="qcurve"/>
      <point x="466" y="246"/>
      <point x="563" y="227"/>
    </contour>
    <contour>
      <point x="638" y="369" type="qcurve" name="dv04"/>
      <point x="546" y="369"/>
      <point x="403" y="421"/>
      <point x="353" y="469" type="qcurve"/>
      <point x="303" y="517"/>
      <point x="250" y="655"/>
      <point x="250" y="741" type="qcurve" name="dh03"/>
      <point x="250" y="826"/>
      <point x="303" y="966"/>
      <point x="354" y="1016" type="qcurve"/>
      <point x="404" y="1064"/>
      <point x="548" y="1116"/>
      <point x="638" y="1116" type="qcurve" name="dv07"/>
      <point x="668" y="1116"/>
      <point x="726" y="1110"/>
      <point x="755" y="1105" type="qcurve"/>
      <point x="783" y="1100"/>
      <point x="834" y="1084"/>
      <point x="864" y="1071" type="qcurve"/>
      <point x="864" y="963" type="line" name="ih01"/>
      <point x="805" y="992"/>
      <point x="751" y="1005" type="qcurve"/>
      <point x="723" y="1012"/>
      <point x="666" y="1018"/>
      <point x="641" y="1018" type="qcurve" name="dv06"/>
      <point x="584" y="1018"/>
      <point x="488" y="983"/>
      <point x="453" y="945" type="qcurve"/>
      <point x="421" y="910"/>
      <point x="385" y="805"/>
      <point x="385" y="739" type="qcurve" name="dh04"/>
      <point x="385" y="676"/>
      <point x="420" y="573"/>
      <point x="455" y="538" type="qcurve"/>
      <point x="490" y="503"/>
      <point x="589" y="467"/>
      <point x="657" y="467" type="qcurve" name="dv05"/>
      <point x="688" y="467"/>
      <point x="738" y="474"/>
      <point x="763" y="480" type="qcurve"/>
      <point x="788" y="486"/>
      <point x="840" y="505"/>
      <point x="864" y="518" type="qcurve" name="ih02"/>
      <point x="864" y="414" type="line"/>
      <point x="838" y="403"/>
      <point x="784" y="385"/>
      <point x="755" y="380" type="qcurve"/>
      <point x="726" y="375"/>
      <point x="669" y="369"/>
    </contour>
  </outline>
</glyph>
<glyph name="ordfeminine" format="1">
  <advance width="1233"/>
  <unicode hex="00AA"/>
  <outline>
    <contour>
      <point x="534" y="698" type="qcurve" name="hr00"/>
      <point x="473" y="698"/>
      <point x="386" y="732"/>
      <point x="358" y="758" type="qcurve"/>
      <point x="295" y="818"/>
      <point x="295" y="921" type="qcurve" name="dh01"/>
      <point x="295" y="992"/>
      <point x="353" y="1102"/>
      <point x="406" y="1140" type="qcurve"/>
      <point x="518" y="1219"/>
      <point x="717" y="1219" type="qcurve"/>
      <point x="891" y="1219" type="line" name="dv06"/>
      <point x="891" y="1223"/>
      <point x="892" y="1228" type="qcurve"/>
      <point x="894" y="1239"/>
      <point x="895" y="1265"/>
      <point x="895" y="1273" type="qcurve"/>
      <point x="895" y="1301"/>
      <point x="876" y="1352"/>
      <point x="850" y="1372" type="qcurve"/>
      <point x="828" y="1389"/>
      <point x="762" y="1405"/>
      <point x="711" y="1405" type="qcurve" name="sv01"/>
      <point x="676" y="1405"/>
      <point x="608" y="1397"/>
      <point x="574" y="1389" type="qcurve"/>
      <point x="540" y="1381"/>
      <point x="470" y="1354"/>
      <point x="434" y="1337" type="qcurve" name="sh01"/>
      <point x="457" y="1464" type="line"/>
      <point x="532" y="1493"/>
      <point x="605" y="1506" type="qcurve" name="at01"/>
      <point x="642" y="1513"/>
      <point x="710" y="1520"/>
      <point x="745" y="1520" type="qcurve" name="at02"/>
      <point x="890" y="1520"/>
      <point x="963" y="1458" type="qcurve"/>
      <point x="1036" y="1396"/>
      <point x="1036" y="1272" type="qcurve"/>
      <point x="1036" y="1259"/>
      <point x="1035" y="1230"/>
      <point x="1034" y="1220" type="qcurve"/>
      <point x="1033" y="1213"/>
      <point x="1028" y="1175"/>
      <point x="1026" y="1165" type="qcurve"/>
      <point x="940" y="717" type="line"/>
      <point x="797" y="717" type="line" name="dv03"/>
      <point x="819" y="829" type="line"/>
      <point x="793" y="797"/>
      <point x="727" y="748"/>
      <point x="692" y="732" type="qcurve"/>
      <point x="653" y="714"/>
      <point x="573" y="698"/>
    </contour>
    <contour>
      <point x="581" y="817" type="qcurve" name="dv04"/>
      <point x="630" y="817"/>
      <point x="724" y="850"/>
      <point x="762" y="884" type="qcurve"/>
      <point x="803" y="920"/>
      <point x="853" y="1021"/>
      <point x="864" y="1075" type="qcurve"/>
      <point x="870" y="1104" type="line" name="dv05"/>
      <point x="729" y="1104" type="line"/>
      <point x="580" y="1104"/>
      <point x="512" y="1064" type="qcurve"/>
      <point x="477" y="1044"/>
      <point x="442" y="980"/>
      <point x="442" y="941" type="qcurve" name="dh02"/>
      <point x="442" y="882"/>
      <point x="479" y="849" type="qcurve"/>
      <point x="497" y="833"/>
      <point x="546" y="817"/>
    </contour>
    <contour>
      <point x="246" y="592" type="line"/>
      <point x="922" y="592" type="line" name="dv02"/>
      <point x="899" y="469" type="line" name="dv01"/>
      <point x="223" y="469" type="line"/>
    </contour>
  </outline>
</glyph>
<glyph name="guillemotleft" format="1">
  <advance width="1233"/>
  <unicode hex="00AB"/>
  <outline>
    <contour>
      <point x="74" y="559" type="line" name="hr00"/>
      <point x="90" y="641" type="line"/>
      <point x="639" y="1059" type="line" name="av03"/>
      <point x="596" y="848" type="line"/>
      <point x="246" y="584" type="line"/>
      <point x="496" y="317" type="line"/>
      <point x="461" y="141" type="line" name="av01"/>
    </contour>
    <contour>
      <point x="541" y="559" type="line"/>
      <point x="557" y="641" type="line"/>
      <point x="1106" y="1059" type="line" name="av04"/>
      <point x="1063" y="848" type="line"/>
      <point x="713" y="584" type="line"/>
      <point x="963" y="317" type="line"/>
      <point x="928" y="141" type="line" name="av02"/>
    </contour>
  </outline>
</glyph>
<glyph name="registered" format="1">
  <advance width="1233"/>
  <unicode hex="00AE"/>
  <outline>
    <contour>
      <point x="616" y="125" type="curve" name="hr00" smooth="yes"/>
      <point x="448" y="125"/>
      <point x="302" y="186"/>
      <point x="181" y="307" type="curve" smooth="yes"/>
      <point x="122" y="366"/>
      <point x="77" y="434"/>
      <point x="46" y="507" type="curve" smooth="yes"/>
      <point x="15" y="579"/>
      <point x="0" y="653"/>
      <point x="0" y="741" type="curve" name="dh01" smooth="yes"/>
      <point x="0" y="826"/>
      <point x="15" y="905"/>
      <point x="46" y="977" type="curve" smooth="yes"/>
      <point x="77" y="1049"/>
      <point x="122" y="1117"/>
      <point x="182" y="1178" type="curve" smooth="yes"/>
      <point x="239" y="1237"/>
      <point x="305" y="1282"/>
      <point x="381" y="1313" type="curve" smooth="yes"/>
      <point x="454" y="1343"/>
      <point x="532" y="1358"/>
      <point x="616" y="1358" type="curve" name="dv03" smooth="yes"/>
      <point x="700" y="1358"/>
      <point x="779" y="1343"/>
      <point x="852" y="1313" type="curve" smooth="yes"/>
      <point x="928" y="1282"/>
      <point x="995" y="1235"/>
      <point x="1051" y="1178" type="curve" smooth="yes"/>
      <point x="1116" y="1111"/>
      <point x="1160" y="1041"/>
      <point x="1187" y="977" type="curve" smooth="yes"/>
      <point x="1218" y="905"/>
      <point x="1233" y="827"/>
      <point x="1233" y="742" type="curve" name="dh08" smooth="yes"/>
      <point x="1233" y="657"/>
      <point x="1218" y="579"/>
      <point x="1188" y="508" type="curve" smooth="yes"/>
      <point x="1159" y="439"/>
      <point x="1112" y="367"/>
      <point x="1052" y="307" type="curve" smooth="yes"/>
      <point x="996" y="251"/>
      <point x="927" y="203"/>
      <point x="851" y="171" type="curve" smooth="yes"/>
      <point x="779" y="140"/>
      <point x="701" y="125"/>
    </contour>
    <contour>
      <point x="617" y="227" type="curve" name="dv01" smooth="yes"/>
      <point x="686" y="227"/>
      <point x="751" y="240"/>
      <point x="812" y="265" type="curve" smooth="yes"/>
      <point x="875" y="292"/>
      <point x="932" y="331"/>
      <point x="979" y="378" type="curve" smooth="yes"/>
      <point x="1024" y="423"/>
      <point x="1068" y="485"/>
      <point x="1093" y="546" type="curve" smooth="yes"/>
      <point x="1118" y="605"/>
      <point x="1130" y="670"/>
      <point x="1130" y="741" type="curve" name="dh07" smooth="yes"/>
      <point x="1130" y="813"/>
      <point x="1117" y="878"/>
      <point x="1092" y="939" type="curve" smooth="yes"/>
      <point x="1067" y="1000"/>
      <point x="1029" y="1056"/>
      <point x="979" y="1106" type="curve" smooth="yes"/>
      <point x="930" y="1155"/>
      <point x="875" y="1193"/>
      <point x="814" y="1218" type="curve" smooth="yes"/>
      <point x="754" y="1243"/>
      <point x="688" y="1255"/>
      <point x="616" y="1255" type="curve" name="dv02" smooth="yes"/>
      <point x="545" y="1255"/>
      <point x="479" y="1243"/>
      <point x="420" y="1218" type="curve" smooth="yes"/>
      <point x="359" y="1193"/>
      <point x="303" y="1155"/>
      <point x="254" y="1106" type="curve" smooth="yes"/>
      <point x="203" y="1055"/>
      <point x="166" y="1000"/>
      <point x="141" y="939" type="curve" smooth="yes"/>
      <point x="115" y="877"/>
      <point x="102" y="811"/>
      <point x="102" y="742" type="curve" name="dh02" smooth="yes"/>
      <point x="102" y="670"/>
      <point x="114" y="609"/>
      <point x="141" y="546" type="curve" smooth="yes"/>
      <point x="173" y="470"/>
      <point x="215" y="418"/>
      <point x="254" y="379" type="curve" smooth="yes"/>
      <point x="305" y="328"/>
      <point x="357" y="292"/>
      <point x="421" y="265" type="curve" smooth="yes"/>
      <point x="481" y="240"/>
      <point x="545" y="227"/>
    </contour>
    <contour>
      <point x="362" y="1100" type="line" name="dh03"/>
      <point x="600" y="1100" type="line" name="dv05" smooth="yes"/>
      <point x="699" y="1100"/>
      <point x="772" y="1084"/>
      <point x="819" y="1051" type="curve" smooth="yes"/>
      <point x="867" y="1018"/>
      <point x="891" y="968"/>
      <point x="891" y="903" type="curve" name="dh06" smooth="yes"/>
      <point x="891" y="852"/>
      <point x="876" y="815"/>
      <point x="847" y="784" type="curve" smooth="yes"/>
      <point x="818" y="753"/>
      <point x="776" y="732"/>
      <point x="723" y="723" type="curve" name="ih01"/>
      <point x="736" y="720"/>
      <point x="752" y="706"/>
      <point x="771" y="685" type="curve"/>
      <point x="787" y="664"/>
      <point x="819" y="622"/>
      <point x="838" y="592" type="curve" smooth="yes"/>
      <point x="952" y="406" type="line" name="ih02"/>
      <point x="809" y="406" type="line"/>
      <point x="702" y="580" type="line" smooth="yes"/>
      <point x="670" y="632"/>
      <point x="642" y="668"/>
      <point x="623" y="681" type="curve" smooth="yes"/>
      <point x="604" y="695"/>
      <point x="578" y="702"/>
      <point x="547" y="702" type="curve" smooth="yes"/>
      <point x="492" y="702" type="line" name="sh01"/>
      <point x="492" y="406" type="line"/>
      <point x="362" y="406" type="line"/>
    </contour>
    <contour>
      <point x="594" y="784" type="line" smooth="yes"/>
      <point x="653" y="784"/>
      <point x="696" y="793"/>
      <point x="721" y="811" type="curve" smooth="yes"/>
      <point x="746" y="829"/>
      <point x="758" y="859"/>
      <point x="758" y="900" type="curve" name="dh05" smooth="yes"/>
      <point x="758" y="939"/>
      <point x="748" y="971"/>
      <point x="721" y="990" type="curve" smooth="yes"/>
      <point x="696" y="1007"/>
      <point x="653" y="1016"/>
      <point x="594" y="1016" type="curve" name="dv04" smooth="yes"/>
      <point x="492" y="1016" type="line" name="dh04"/>
      <point x="492" y="784" type="line"/>
    </contour>
  </outline>
</glyph>
<glyph name="macron" format="1">
  <advance width="1233"/>
  <unicode hex="00AF"/>
  <outline>
    <contour>
      <point x="469" y="1526" type="line" name="hr00"/>
      <point x="1067" y="1526" type="line" name="dv02"/>
      <point x="1038" y="1378" type="line" name="dv01"/>
      <point x="440" y="1378" type="line"/>
    </contour>
  </outline>
</glyph>
<glyph name="degree" format="2">
  <advance width="1233"/>
  <unicode hex="00B0"/>
  <outline>
    <contour>
      <point x="612" y="885" type="curve" smooth="yes" name="hr00"/>
      <point x="528" y="885"/>
      <point x="448" y="915"/>
      <point x="388" y="975" type="curve" smooth="yes"/>
      <point x="335" y="1028"/>
      <point x="299" y="1106"/>
      <point x="299" y="1199" type="curve" smooth="yes" name="sh01"/>
      <point x="299" y="1288"/>
      <point x="331" y="1367"/>
      <point x="390" y="1427" type="curve" smooth="yes"/>
      <point x="447" y="1486"/>
      <point x="526" y="1520"/>
      <point x="615" y="1520" type="curve" smooth="yes" name="at01"/>
      <point x="655" y="1520"/>
      <point x="700" y="1513"/>
      <point x="740" y="1496" type="curve" smooth="yes"/>
      <point x="779" y="1480"/>
      <point x="816" y="1452"/>
      <point x="843" y="1425" type="curve" smooth="yes"/>
      <point x="875" y="1392"/>
      <point x="899" y="1351"/>
      <point x="911" y="1322" type="curve" smooth="yes"/>
      <point x="926" y="1285"/>
      <point x="934" y="1245"/>
      <point x="934" y="1202" type="curve" smooth="yes" name="sh02"/>
      <point x="934" y="1114"/>
      <point x="901" y="1033"/>
      <point x="842" y="976" type="curve" smooth="yes"/>
      <point x="785" y="920"/>
      <point x="703" y="885"/>
    </contour>
    <contour>
      <point x="614" y="1012" type="curve" smooth="yes" name="dv01"/>
      <point x="669" y="1012"/>
      <point x="719" y="1034"/>
      <point x="752" y="1067" type="curve" smooth="yes"/>
      <point x="791" y="1106"/>
      <point x="807" y="1154"/>
      <point x="807" y="1201" type="curve" smooth="yes" name="ah01"/>
      <point x="807" y="1252"/>
      <point x="787" y="1300"/>
      <point x="751" y="1336" type="curve" smooth="yes"/>
      <point x="720" y="1367"/>
      <point x="672" y="1391"/>
      <point x="616" y="1391" type="curve" smooth="yes" name="sv01"/>
      <point x="563" y="1391"/>
      <point x="515" y="1370"/>
      <point x="482" y="1337" type="curve" smooth="yes"/>
      <point x="446" y="1301"/>
      <point x="426" y="1251"/>
      <point x="426" y="1199" type="curve" smooth="yes" name="sh03"/>
      <point x="426" y="1144"/>
      <point x="446" y="1100"/>
      <point x="481" y="1065" type="curve" smooth="yes"/>
      <point x="517" y="1030"/>
      <point x="563" y="1012"/>
    </contour>
  </outline>
</glyph>
<glyph name="plusminus" format="1">
  <advance width="1233"/>
  <unicode hex="00B1"/>
  <outline>
    <contour>
      <point x="532" y="672" type="line" name="hr00"/>
      <point x="88" y="672" type="line"/>
      <point x="88" y="842" type="line"/>
      <point x="532" y="842" type="line" name="sh01"/>
      <point x="532" y="1171" type="line" name="av01"/>
      <point x="700" y="1171" type="line" name="sh02"/>
      <point x="700" y="842" type="line" name="sv01"/>
      <point x="1145" y="842" type="line"/>
      <point x="1145" y="672" type="line" name="sv02"/>
      <point x="700" y="672" type="line" name="dh01"/>
      <point x="700" y="340" type="line"/>
      <point x="532" y="340" type="line"/>
    </contour>
    <contour>
      <point x="88" y="170" type="line" name="sv03"/>
      <point x="1145" y="170" type="line"/>
      <point x="1145" y="0" type="line" name="ab01"/>
      <point x="88" y="0" type="line"/>
    </contour>
  </outline>
</glyph>
<glyph name="uni00B2" format="1">
  <advance width="1233"/>
  <unicode hex="00B2"/>
  <outline>
    <contour>
      <point x="328" y="1230" type="line" name="hr00"/>
      <point x="531" y="1397" type="line" smooth="yes"/>
      <point x="740" y="1568"/>
      <point x="844" y="1679"/>
      <point x="844" y="1760" type="curve" name="dh01" smooth="yes"/>
      <point x="844" y="1808"/>
      <point x="805" y="1867"/>
      <point x="704" y="1867" type="curve" name="dv03" smooth="yes"/>
      <point x="640" y="1867"/>
      <point x="562" y="1844"/>
      <point x="451" y="1789" type="curve"/>
      <point x="475" y="1916" type="line"/>
      <point x="588" y="1955"/>
      <point x="665" y="1972"/>
      <point x="737" y="1972" type="curve" name="dv04" smooth="yes"/>
      <point x="905" y="1972"/>
      <point x="991" y="1876"/>
      <point x="991" y="1781" type="curve" name="dh02" smooth="yes"/>
      <point x="991" y="1674"/>
      <point x="885" y="1537"/>
      <point x="682" y="1385" type="curve" smooth="yes"/>
      <point x="662" y="1370" type="line"/>
      <point x="492" y="1234" type="line"/>
      <point x="887" y="1234" type="line" name="dv02"/>
      <point x="864" y="1120" type="line" name="dv01"/>
      <point x="307" y="1120" type="line"/>
    </contour>
  </outline>
</glyph>
<glyph name="threesuperior" format="1">
  <advance width="1233"/>
  <unicode hex="00B3"/>
  <note>
	threesuperior
  </note>
  <outline>
    <contour>
      <point x="772" y="1103"/>
      <point x="922" y="1217"/>
      <point x="922" y="1388" type="curve" smooth="yes"/>
      <point x="922" y="1488"/>
      <point x="871" y="1549"/>
      <point x="772" y="1566" type="curve"/>
      <point x="904" y="1591"/>
      <point x="983" y="1672"/>
      <point x="983" y="1783" type="curve" smooth="yes"/>
      <point x="983" y="1900"/>
      <point x="895" y="1970"/>
      <point x="728" y="1970" type="curve" smooth="yes"/>
      <point x="661" y="1970"/>
      <point x="580" y="1958"/>
      <point x="483" y="1935" type="curve"/>
      <point x="461" y="1820" type="line"/>
      <point x="545" y="1851"/>
      <point x="604" y="1863"/>
      <point x="671" y="1863" type="curve" smooth="yes"/>
      <point x="778" y="1863"/>
      <point x="836" y="1829"/>
      <point x="836" y="1760" type="curve" smooth="yes"/>
      <point x="836" y="1676"/>
      <point x="751" y="1617"/>
      <point x="621" y="1617" type="curve" smooth="yes"/>
      <point x="549" y="1617" type="line"/>
      <point x="528" y="1511" type="line"/>
      <point x="600" y="1511" type="line" smooth="yes"/>
      <point x="716" y="1511"/>
      <point x="774" y="1469"/>
      <point x="774" y="1384" type="curve" smooth="yes"/>
      <point x="774" y="1276"/>
      <point x="680" y="1210"/>
      <point x="536" y="1210" type="curve" smooth="yes"/>
      <point x="464" y="1210"/>
      <point x="400" y="1226"/>
      <point x="311" y="1265" type="curve"/>
      <point x="287" y="1144" type="line"/>
      <point x="367" y="1117"/>
      <point x="452" y="1103"/>
      <point x="536" y="1103" type="curve" smooth="yes"/>
    </contour>
  </outline>
</glyph>
<glyph name="uni00B3" format="2">
  <advance width="1233"/>
  <unicode hex="00B3"/>
  <outline>
    <contour>
      <point x="536" y="1103" type="curve" smooth="yes" name="dv01"/>
      <point x="452" y="1103"/>
      <point x="367" y="1117"/>
      <point x="287" y="1144" type="curve"/>
      <point x="311" y="1265" type="line"/>
      <point x="400" y="1226"/>
      <point x="464" y="1210"/>
      <point x="536" y="1210" type="curve" smooth="yes" name="hr01"/>
      <point x="680" y="1210"/>
      <point x="774" y="1276"/>
      <point x="774" y="1384" type="curve" smooth="yes" name="dh01"/>
      <point x="774" y="1469"/>
      <point x="716" y="1511"/>
      <point x="600" y="1511" type="curve" smooth="yes" name="dv03"/>
      <point x="528" y="1511" type="line"/>
      <point x="549" y="1617" type="line"/>
      <point x="621" y="1617" type="line" smooth="yes" name="dv04"/>
      <point x="751" y="1617"/>
      <point x="836" y="1676"/>
      <point x="836" y="1760" type="curve" smooth="yes" name="sh01"/>
      <point x="836" y="1829"/>
      <point x="778" y="1863"/>
      <point x="671" y="1863" type="curve" smooth="yes" name="dv02"/>
      <point x="604" y="1863"/>
      <point x="545" y="1851"/>
      <point x="461" y="1820" type="curve"/>
      <point x="483" y="1935" type="line"/>
      <point x="580" y="1958"/>
      <point x="661" y="1970"/>
      <point x="728" y="1970" type="curve" smooth="yes" name="hr02"/>
      <point x="895" y="1970"/>
      <point x="983" y="1900"/>
      <point x="983" y="1783" type="curve" smooth="yes" name="sh02"/>
      <point x="983" y="1672"/>
      <point x="904" y="1591"/>
      <point x="772" y="1566" type="curve" name="iv01"/>
      <point x="871" y="1549"/>
      <point x="922" y="1488"/>
      <point x="922" y="1388" type="curve" smooth="yes" name="dh02"/>
      <point x="922" y="1217"/>
      <point x="772" y="1103"/>
    </contour>
  </outline>
</glyph>
<glyph name="acute" format="1">
  <advance width="1233"/>
  <unicode hex="00B4"/>
  <outline>
    <contour>
      <point x="907" y="1638" type="line" name="hr00"/>
      <point x="1126" y="1638" type="line"/>
      <point x="731" y="1262" type="line" name="av01"/>
      <point x="575" y="1262" type="line"/>
    </contour>
  </outline>
</glyph>
<glyph name="uni00B5" format="1">
  <advance width="1233"/>
  <unicode hex="00B5"/>
  <outline>
    <contour>
      <point x="252" y="1120" type="line" name="hr00"/>
      <point x="439" y="1120" type="line"/>
      <point x="303" y="424" type="line" smooth="yes"/>
      <point x="300" y="409"/>
      <point x="297" y="385"/>
      <point x="294" y="366" type="curve" smooth="yes"/>
      <point x="292" y="348"/>
      <point x="291" y="332"/>
      <point x="291" y="319" type="curve" smooth="yes"/>
      <point x="291" y="266"/>
      <point x="306" y="215"/>
      <point x="345" y="180" type="curve" smooth="yes"/>
      <point x="385" y="144"/>
      <point x="443" y="131"/>
      <point x="503" y="131" type="curve" name="dv02" smooth="yes"/>
      <point x="593" y="131"/>
      <point x="666" y="159"/>
      <point x="721" y="214" type="curve" smooth="yes"/>
      <point x="773" y="266"/>
      <point x="813" y="347"/>
      <point x="836" y="467" type="curve" smooth="yes"/>
      <point x="963" y="1120" type="line" name="at01"/>
      <point x="1149" y="1120" type="line"/>
      <point x="981" y="258" type="line" smooth="yes"/>
      <point x="980" y="253"/>
      <point x="977" y="230"/>
      <point x="977" y="227" type="curve"/>
      <point x="976" y="218"/>
      <point x="975" y="211"/>
      <point x="975" y="202" type="curve" smooth="yes"/>
      <point x="975" y="183"/>
      <point x="979" y="168"/>
      <point x="988" y="157" type="curve" smooth="yes"/>
      <point x="995" y="148"/>
      <point x="1006" y="141"/>
      <point x="1022" y="141" type="curve" name="sv01" smooth="yes"/>
      <point x="1029" y="141"/>
      <point x="1038" y="143"/>
      <point x="1049" y="146" type="curve" smooth="yes"/>
      <point x="1056" y="149"/>
      <point x="1076" y="155"/>
      <point x="1096" y="164" type="curve" name="iv01"/>
      <point x="1067" y="16" type="line"/>
      <point x="1042" y="1"/>
      <point x="1009" y="-13"/>
      <point x="990" y="-18" type="curve" smooth="yes"/>
      <point x="966" y="-25"/>
      <point x="942" y="-29"/>
      <point x="917" y="-29" type="curve" name="sv02" smooth="yes"/>
      <point x="876" y="-29"/>
      <point x="842" y="-17"/>
      <point x="814" y="14" type="curve" smooth="yes"/>
      <point x="789" y="41"/>
      <point x="774" y="74"/>
      <point x="774" y="129" type="curve" name="iv02"/>
      <point x="739" y="74"/>
      <point x="699" y="34"/>
      <point x="652" y="9" type="curve" smooth="yes"/>
      <point x="605" y="-16"/>
      <point x="549" y="-29"/>
      <point x="486" y="-29" type="curve" name="dv01" smooth="yes"/>
      <point x="423" y="-29"/>
      <point x="371" y="-15"/>
      <point x="330" y="13" type="curve" smooth="yes"/>
      <point x="288" y="41"/>
      <point x="257" y="82"/>
      <point x="236" y="137" type="curve" name="iv03"/>
      <point x="127" y="-426" type="line" name="av01"/>
      <point x="-49" y="-426" type="line"/>
    </contour>
  </outline>
</glyph>
<glyph name="paragraph" format="1">
  <advance width="1233"/>
  <unicode hex="00B6"/>
  <outline>
    <contour>
      <point x="506" y="649" type="line" name="hr00"/>
      <point x="388" y="652"/>
      <point x="295" y="685"/>
      <point x="227" y="748" type="curve" smooth="yes"/>
      <point x="159" y="811"/>
      <point x="125" y="896"/>
      <point x="125" y="1004" type="curve" smooth="yes"/>
      <point x="125" y="1143"/>
      <point x="183" y="1260"/>
      <point x="298" y="1353" type="curve" smooth="yes"/>
      <point x="413" y="1446"/>
      <point x="559" y="1493"/>
      <point x="735" y="1493" type="curve" name="at01" smooth="yes"/>
      <point x="1141" y="1493" type="line"/>
      <point x="813" y="-197" type="line" name="av01"/>
      <point x="674" y="-197" type="line"/>
      <point x="977" y="1370" type="line" name="sv01"/>
      <point x="786" y="1370" type="line"/>
      <point x="483" y="-197" type="line" name="av02"/>
      <point x="342" y="-197" type="line"/>
    </contour>
  </outline>
</glyph>
<glyph name="periodcentered" format="1">
  <advance width="1233"/>
  <unicode hex="00B7"/>
  <outline>
    <contour>
      <point x="616" y="576" type="qcurve" name="hr00"/>
      <point x="548" y="576"/>
      <point x="501" y="623" type="qcurve"/>
      <point x="454" y="670"/>
      <point x="454" y="745" type="qcurve"/>
      <point x="454" y="820"/>
      <point x="501" y="867" type="qcurve"/>
      <point x="548" y="914"/>
      <point x="616" y="914" type="qcurve"/>
      <point x="684" y="914"/>
      <point x="731" y="867" type="qcurve"/>
      <point x="778" y="820"/>
      <point x="778" y="745" type="qcurve"/>
      <point x="778" y="670"/>
      <point x="731" y="623" type="qcurve"/>
      <point x="684" y="576"/>
    </contour>
  </outline>
</glyph>
<glyph name="cedilla" format="1">
  <advance width="1233"/>
  <unicode hex="00B8"/>
  <outline>
    <contour>
      <point x="366" y="-395" type="curve" name="hr00" smooth="yes"/>
      <point x="339" y="-395"/>
      <point x="307" y="-393"/>
      <point x="276" y="-388" type="curve" smooth="yes"/>
      <point x="246" y="-383"/>
      <point x="215" y="-376"/>
      <point x="182" y="-365" type="curve"/>
      <point x="207" y="-236" type="line"/>
      <point x="234" y="-249"/>
      <point x="259" y="-258"/>
      <point x="284" y="-265" type="curve" smooth="yes"/>
      <point x="308" y="-271"/>
      <point x="331" y="-274"/>
      <point x="352" y="-274" type="curve" name="dv01" smooth="yes"/>
      <point x="397" y="-274"/>
      <point x="432" y="-264"/>
      <point x="457" y="-244" type="curve" smooth="yes"/>
      <point x="482" y="-224"/>
      <point x="494" y="-195"/>
      <point x="494" y="-163" type="curve" name="dh01" smooth="yes"/>
      <point x="494" y="-140"/>
      <point x="488" y="-114"/>
      <point x="480" y="-93" type="curve" smooth="yes"/>
      <point x="473" y="-77"/>
      <point x="456" y="-37"/>
      <point x="436" y="0" type="curve" name="ab01"/>
      <point x="555" y="0" type="line"/>
      <point x="580" y="-43"/>
      <point x="598" y="-80"/>
      <point x="610" y="-111" type="curve" smooth="yes"/>
      <point x="621" y="-141"/>
      <point x="627" y="-170"/>
      <point x="627" y="-198" type="curve" name="dh02" smooth="yes"/>
      <point x="627" y="-254"/>
      <point x="604" y="-304"/>
      <point x="557" y="-341" type="curve" smooth="yes"/>
      <point x="511" y="-377"/>
      <point x="447" y="-395"/>
    </contour>
  </outline>
</glyph>
<glyph name="uni00B9" format="1">
  <advance width="1233"/>
  <unicode hex="00B9"/>
  <outline>
    <contour>
      <point x="369" y="1230" type="line" name="hr00"/>
      <point x="575" y="1230" type="line"/>
      <point x="692" y="1841" type="line"/>
      <point x="461" y="1800" type="line"/>
      <point x="483" y="1916" type="line"/>
      <point x="721" y="1955" type="line" name="av01"/>
      <point x="858" y="1955" type="line"/>
      <point x="717" y="1230" type="line"/>
      <point x="922" y="1230" type="line" name="dv02"/>
      <point x="901" y="1120" type="line" name="dv01"/>
      <point x="348" y="1120" type="line"/>
    </contour>
  </outline>
</glyph>
<glyph name="ordmasculine" format="1">
  <advance width="1233"/>
  <unicode hex="00BA"/>
  <outline>
    <contour>
      <point x="630" y="698" type="qcurve" name="hr00"/>
      <point x="552" y="698"/>
      <point x="436" y="746"/>
      <point x="394" y="789" type="qcurve"/>
      <point x="350" y="834"/>
      <point x="307" y="958"/>
      <point x="307" y="1030" type="qcurve" name="sh01"/>
      <point x="307" y="1076"/>
      <point x="324" y="1170"/>
      <point x="339" y="1212" type="qcurve"/>
      <point x="357" y="1262"/>
      <point x="408" y="1344"/>
      <point x="428" y="1368" type="qcurve"/>
      <point x="457" y="1404"/>
      <point x="530" y="1461"/>
      <point x="570" y="1481" type="qcurve"/>
      <point x="611" y="1501"/>
      <point x="696" y="1520"/>
      <point x="744" y="1520" type="qcurve" name="at01"/>
      <point x="892" y="1520"/>
      <point x="979" y="1429" type="qcurve"/>
      <point x="1020" y="1386"/>
      <point x="1065" y="1262"/>
      <point x="1065" y="1184" type="qcurve" name="sh02"/>
      <point x="1065" y="1142"/>
      <point x="1050" y="1051"/>
      <point x="1033" y="1003" type="qcurve"/>
      <point x="1017" y="959"/>
      <point x="973" y="882"/>
      <point x="946" y="850" type="qcurve"/>
      <point x="916" y="814"/>
      <point x="845" y="757"/>
      <point x="805" y="737" type="qcurve"/>
      <point x="725" y="698"/>
    </contour>
    <contour>
      <point x="645" y="813" type="qcurve" name="dv01"/>
      <point x="698" y="813"/>
      <point x="796" y="866"/>
      <point x="834" y="920" type="qcurve"/>
      <point x="872" y="973"/>
      <point x="911" y="1109"/>
      <point x="911" y="1179" type="qcurve" name="ah01"/>
      <point x="911" y="1286"/>
      <point x="862" y="1345" type="qcurve"/>
      <point x="836" y="1377"/>
      <point x="766" y="1405"/>
      <point x="728" y="1405" type="qcurve" name="sv01"/>
      <point x="671" y="1405"/>
      <point x="576" y="1349"/>
      <point x="540" y="1298" type="qcurve"/>
      <point x="502" y="1244"/>
      <point x="463" y="1111"/>
      <point x="463" y="1041" type="qcurve" name="sh03"/>
      <point x="463" y="984"/>
      <point x="488" y="903"/>
      <point x="513" y="873" type="qcurve"/>
      <point x="538" y="843"/>
      <point x="606" y="813"/>
    </contour>
    <contour>
      <point x="246" y="592" type="line"/>
      <point x="922" y="592" type="line" name="sh04"/>
      <point x="899" y="469" type="line" name="sh05"/>
      <point x="223" y="469" type="line"/>
    </contour>
  </outline>
</glyph>
<glyph name="guillemotright" format="1">
  <advance width="1233"/>
  <unicode hex="00BB"/>
  <outline>
    <contour>
      <point x="145" y="352" type="line" name="hr00"/>
      <point x="495" y="614" type="line"/>
      <point x="245" y="883" type="line"/>
      <point x="280" y="1059" type="line" name="av03"/>
      <point x="667" y="641" type="line"/>
      <point x="653" y="559" type="line"/>
      <point x="102" y="141" type="line" name="av01"/>
    </contour>
    <contour>
      <point x="612" y="352" type="line"/>
      <point x="962" y="614" type="line"/>
      <point x="712" y="883" type="line"/>
      <point x="747" y="1059" type="line" name="av04"/>
      <point x="1134" y="641" type="line"/>
      <point x="1120" y="559" type="line"/>
      <point x="569" y="141" type="line" name="av02"/>
    </contour>
  </outline>
</glyph>
<glyph name="onequarter" format="1">
  <advance width="1233"/>
  <unicode hex="00BC"/>
  <outline>
    <contour>
      <point x="111" y="934" type="line" name="sv01"/>
      <point x="317" y="934" type="line"/>
      <point x="434" y="1545" type="line"/>
      <point x="203" y="1504" type="line"/>
      <point x="225" y="1620" type="line"/>
      <point x="463" y="1659" type="line" name="hr01"/>
      <point x="600" y="1659" type="line"/>
      <point x="459" y="934" type="line"/>
      <point x="664" y="934" type="line" name="dv04"/>
      <point x="643" y="824" type="line" name="dv03"/>
      <point x="90" y="824" type="line"/>
    </contour>
    <contour>
      <point x="47" y="612" type="line"/>
      <point x="1106" y="870" type="line" name="hr02"/>
      <point x="1133" y="762" type="line"/>
      <point x="70" y="504" type="line"/>
    </contour>
    <contour>
      <point x="799" y="-86" type="line" name="sv03"/>
      <point x="413" y="-86" type="line"/>
      <point x="436" y="35" type="line"/>
      <point x="901" y="565" type="line"/>
      <point x="1063" y="565" type="line"/>
      <point x="958" y="25" type="line" name="dv02"/>
      <point x="1075" y="25" type="line"/>
      <point x="1055" y="-86" type="line" name="sv04"/>
      <point x="936" y="-86" type="line"/>
      <point x="903" y="-270" type="line" name="dv01"/>
      <point x="764" y="-270" type="line"/>
    </contour>
    <contour>
      <point x="821" y="25" type="line" name="sv02"/>
      <point x="897" y="416" type="line"/>
      <point x="555" y="25" type="line"/>
    </contour>
  </outline>
</glyph>
<glyph name="onehalf" format="1">
  <advance width="1233"/>
  <unicode hex="00BD"/>
  <outline>
    <contour>
      <point x="111" y="934" type="line" name="hr00"/>
      <point x="317" y="934" type="line"/>
      <point x="434" y="1545" type="line"/>
      <point x="203" y="1504" type="line"/>
      <point x="225" y="1620" type="line"/>
      <point x="463" y="1659" type="line" name="av01"/>
      <point x="600" y="1659" type="line"/>
      <point x="459" y="934" type="line"/>
      <point x="664" y="934" type="line" name="dv06"/>
      <point x="643" y="824" type="line" name="dv05"/>
      <point x="90" y="824" type="line"/>
    </contour>
    <contour>
      <point x="47" y="612" type="line"/>
      <point x="1106" y="870" type="line"/>
      <point x="1133" y="762" type="line"/>
      <point x="70" y="504" type="line"/>
    </contour>
    <contour>
      <point x="482" y="-160" type="line"/>
      <point x="685" y="7" type="line" smooth="yes"/>
      <point x="889" y="174"/>
      <point x="998" y="287"/>
      <point x="998" y="370" type="curve" name="dh01" smooth="yes"/>
      <point x="998" y="397"/>
      <point x="986" y="426"/>
      <point x="961" y="447" type="curve" smooth="yes"/>
      <point x="937" y="467"/>
      <point x="904" y="477"/>
      <point x="861" y="477" type="curve" name="dv03" smooth="yes"/>
      <point x="830" y="477"/>
      <point x="788" y="471"/>
      <point x="749" y="459" type="curve" smooth="yes"/>
      <point x="713" y="448"/>
      <point x="661" y="426"/>
      <point x="605" y="399" type="curve"/>
      <point x="629" y="526" type="line"/>
      <point x="685" y="545"/>
      <point x="733" y="560"/>
      <point x="776" y="569" type="curve" smooth="yes"/>
      <point x="817" y="578"/>
      <point x="856" y="582"/>
      <point x="892" y="582" type="curve" name="dv04" smooth="yes"/>
      <point x="975" y="582"/>
      <point x="1034" y="562"/>
      <point x="1077" y="527" type="curve" smooth="yes"/>
      <point x="1122" y="490"/>
      <point x="1145" y="434"/>
      <point x="1145" y="387" type="curve" name="dh02" smooth="yes"/>
      <point x="1145" y="282"/>
      <point x="1028" y="139"/>
      <point x="836" y="-5" type="curve" smooth="yes"/>
      <point x="816" y="-20" type="line"/>
      <point x="646" y="-156" type="line"/>
      <point x="1041" y="-156" type="line" name="dv02"/>
      <point x="1018" y="-270" type="line" name="dv01"/>
      <point x="461" y="-270" type="line"/>
    </contour>
  </outline>
</glyph>
<glyph name="threequarters" format="1">
  <advance width="1233"/>
  <unicode hex="00BE"/>
  <outline>
    <contour>
      <point x="313" y="809" type="qcurve" name="dv06"/>
      <point x="279" y="809"/>
      <point x="215" y="815"/>
      <point x="183" y="820" type="qcurve"/>
      <point x="151" y="825"/>
      <point x="92" y="839"/>
      <point x="60" y="850" type="qcurve"/>
      <point x="84" y="971" type="line"/>
      <point x="153" y="942"/>
      <point x="203" y="929" type="qcurve"/>
      <point x="254" y="916"/>
      <point x="308" y="916" type="qcurve" name="hr01"/>
      <point x="362" y="916"/>
      <point x="450" y="939"/>
      <point x="482" y="962" type="qcurve"/>
      <point x="516" y="986"/>
      <point x="547" y="1049"/>
      <point x="547" y="1087" type="qcurve" name="dh01"/>
      <point x="547" y="1153"/>
      <point x="505" y="1185" type="qcurve"/>
      <point x="461" y="1217"/>
      <point x="373" y="1217" type="qcurve" name="dv05"/>
      <point x="301" y="1217" type="line"/>
      <point x="322" y="1323" type="line"/>
      <point x="394" y="1323" type="line" name="hr02"/>
      <point x="492" y="1323"/>
      <point x="550" y="1363" type="qcurve"/>
      <point x="609" y="1404"/>
      <point x="609" y="1466" type="qcurve" name="ih01"/>
      <point x="609" y="1519"/>
      <point x="566" y="1544" type="qcurve"/>
      <point x="544" y="1557"/>
      <point x="480" y="1569"/>
      <point x="440" y="1569" type="qcurve" name="dv03"/>
      <point x="392" y="1569"/>
      <point x="345" y="1559" type="qcurve"/>
      <point x="294" y="1548"/>
      <point x="234" y="1526" type="qcurve"/>
      <point x="256" y="1641" type="line"/>
      <point x="291" y="1649"/>
      <point x="357" y="1662"/>
      <point x="388" y="1667" type="qcurve" name="sv01"/>
      <point x="449" y="1676"/>
      <point x="503" y="1676" type="qcurve" name="dv04"/>
      <point x="561" y="1676"/>
      <point x="656" y="1652"/>
      <point x="691" y="1626" type="qcurve"/>
      <point x="756" y="1576"/>
      <point x="756" y="1486" type="qcurve" name="sh01"/>
      <point x="756" y="1406"/>
      <point x="699" y="1348" type="qcurve" name="hr03"/>
      <point x="672" y="1320"/>
      <point x="596" y="1281"/>
      <point x="545" y="1272" type="qcurve" name="iv01"/>
      <point x="617" y="1260"/>
      <point x="656" y="1215" type="qcurve"/>
      <point x="675" y="1193"/>
      <point x="695" y="1134"/>
      <point x="695" y="1095" type="qcurve" name="dh02"/>
      <point x="695" y="968"/>
      <point x="591" y="888" type="qcurve"/>
      <point x="488" y="809"/>
    </contour>
    <contour>
      <point x="47" y="612" type="line"/>
      <point x="1106" y="870" type="line"/>
      <point x="1133" y="762" type="line"/>
      <point x="70" y="504" type="line"/>
    </contour>
    <contour>
      <point x="799" y="-86" type="line" name="sv03"/>
      <point x="413" y="-86" type="line"/>
      <point x="436" y="35" type="line"/>
      <point x="901" y="565" type="line"/>
      <point x="1063" y="565" type="line"/>
      <point x="958" y="25" type="line" name="dv02"/>
      <point x="1075" y="25" type="line"/>
      <point x="1055" y="-86" type="line" name="hr04"/>
      <point x="936" y="-86" type="line"/>
      <point x="903" y="-270" type="line" name="dv01"/>
      <point x="764" y="-270" type="line" name="sh02"/>
    </contour>
    <contour>
      <point x="821" y="25" type="line" name="sv02"/>
      <point x="897" y="416" type="line"/>
      <point x="555" y="25" type="line" name="ih02"/>
    </contour>
  </outline>
</glyph>
<glyph name="questiondown" format="1">
  <advance width="1233"/>
  <unicode hex="00BF"/>
  <outline>
    <contour>
      <point x="752" y="1252" type="qcurve" name="hr00"/>
      <point x="726" y="1252"/>
      <point x="682" y="1269"/>
      <point x="664" y="1289" type="qcurve"/>
      <point x="645" y="1311"/>
      <point x="631" y="1359"/>
      <point x="631" y="1385" type="qcurve" name="ah01"/>
      <point x="631" y="1425"/>
      <point x="662" y="1486"/>
      <point x="686" y="1508" type="qcurve"/>
      <point x="710" y="1530"/>
      <point x="773" y="1556"/>
      <point x="806" y="1556" type="qcurve" name="at01"/>
      <point x="829" y="1556"/>
      <point x="879" y="1539"/>
      <point x="897" y="1519" type="qcurve"/>
      <point x="912" y="1502"/>
      <point x="928" y="1454"/>
      <point x="928" y="1426" type="qcurve" name="sh01"/>
      <point x="928" y="1392"/>
      <point x="902" y="1327"/>
      <point x="874" y="1301" type="qcurve"/>
      <point x="851" y="1280"/>
      <point x="788" y="1252"/>
    </contour>
    <contour>
      <point x="495" y="-27" type="qcurve" name="ab01"/>
      <point x="423" y="-27"/>
      <point x="290" y="11"/>
      <point x="239" y="54" type="qcurve"/>
      <point x="191" y="95"/>
      <point x="143" y="203"/>
      <point x="143" y="267" type="qcurve" name="sh02"/>
      <point x="143" y="356"/>
      <point x="192" y="436" type="qcurve"/>
      <point x="218" y="479"/>
      <point x="305" y="571"/>
      <point x="371" y="625" type="qcurve"/>
      <point x="475" y="711" type="line"/>
      <point x="514" y="743"/>
      <point x="574" y="806"/>
      <point x="590" y="832" type="qcurve"/>
      <point x="605" y="857"/>
      <point x="629" y="932"/>
      <point x="635" y="969" type="qcurve" name="sh03"/>
      <point x="655" y="1092" type="line"/>
      <point x="846" y="1092" type="line"/>
      <point x="817" y="938" type="line"/>
      <point x="808" y="890"/>
      <point x="777" y="809"/>
      <point x="759" y="780" type="qcurve"/>
      <point x="738" y="746"/>
      <point x="664" y="668"/>
      <point x="608" y="621" type="qcurve"/>
      <point x="502" y="532" type="line"/>
      <point x="417" y="461"/>
      <point x="382" y="405" type="qcurve"/>
      <point x="346" y="349"/>
      <point x="346" y="292" type="qcurve" name="sh04"/>
      <point x="346" y="219"/>
      <point x="402" y="178" type="qcurve"/>
      <point x="458" y="137"/>
      <point x="555" y="137" type="qcurve" name="sv01"/>
      <point x="597" y="137"/>
      <point x="682" y="154"/>
      <point x="734" y="173" type="qcurve"/>
      <point x="784" y="191"/>
      <point x="881" y="239"/>
      <point x="938" y="274" type="qcurve" name="sh05"/>
      <point x="901" y="86" type="line"/>
      <point x="842" y="55"/>
      <point x="735" y="13"/>
      <point x="692" y="1" type="qcurve"/>
      <point x="641" y="-13"/>
      <point x="539" y="-27"/>
    </contour>
  </outline>
</glyph>
<glyph name="Agrave" format="1">
  <advance width="1233"/>
  <unicode hex="00C0"/>
  <outline>
    <contour>
      <point x="551" y="1853" type="line" name="hr00"/>
      <point x="733" y="1853" type="line"/>
      <point x="880" y="1589" type="line" name="iv01"/>
      <point x="741" y="1589" type="line"/>
    </contour>
    <contour>
      <point x="639" y="1493" type="line" name="at01"/>
      <point x="885" y="1493" type="line"/>
      <point x="1051" y="0" type="line" name="ab01"/>
      <point x="850" y="0" type="line"/>
      <point x="815" y="389" type="line" name="dv01"/>
      <point x="295" y="389" type="line"/>
      <point x="111" y="0" type="line" name="ab02"/>
      <point x="-106" y="0" type="line"/>
    </contour>
    <contour>
      <point x="801" y="551" type="line" name="dv02"/>
      <point x="735" y="1325" type="line"/>
      <point x="371" y="551" type="line"/>
    </contour>
  </outline>
</glyph>
<glyph name="Acircumflex" format="1">
  <advance width="1233"/>
  <unicode hex="00C2"/>
  <outline>
    <contour>
      <point x="704" y="1854" type="line" name="hr00"/>
      <point x="917" y="1854" type="line"/>
      <point x="1075" y="1588" type="line" name="iv01"/>
      <point x="942" y="1588" type="line"/>
      <point x="803" y="1766" type="line"/>
      <point x="594" y="1588" type="line"/>
      <point x="442" y="1588" type="line" name="iv02"/>
    </contour>
    <contour>
      <point x="639" y="1493" type="line" name="at01"/>
      <point x="885" y="1493" type="line"/>
      <point x="1051" y="0" type="line" name="ab01"/>
      <point x="850" y="0" type="line"/>
      <point x="815" y="389" type="line" name="dv01"/>
      <point x="295" y="389" type="line"/>
      <point x="111" y="0" type="line" name="ab02"/>
      <point x="-106" y="0" type="line"/>
    </contour>
    <contour>
      <point x="801" y="551" type="line" name="dv02"/>
      <point x="735" y="1325" type="line"/>
      <point x="371" y="551" type="line"/>
    </contour>
  </outline>
</glyph>
<glyph name="Atilde" format="1">
  <advance width="1233"/>
  <unicode hex="00C3"/>
  <outline>
    <contour>
      <point x="442" y="1627" type="line" name="hr00"/>
      <point x="465" y="1698"/>
      <point x="497" y="1753"/>
      <point x="539" y="1791" type="curve" smooth="yes"/>
      <point x="580" y="1828"/>
      <point x="629" y="1846"/>
      <point x="684" y="1846" type="curve" name="dv02" smooth="yes"/>
      <point x="711" y="1846"/>
      <point x="730" y="1842"/>
      <point x="751" y="1835" type="curve" smooth="yes"/>
      <point x="773" y="1828"/>
      <point x="795" y="1816"/>
      <point x="817" y="1799" type="curve" smooth="yes"/>
      <point x="852" y="1773" type="line" smooth="yes"/>
      <point x="865" y="1764"/>
      <point x="877" y="1757"/>
      <point x="888" y="1753" type="curve" smooth="yes"/>
      <point x="899" y="1749"/>
      <point x="908" y="1746"/>
      <point x="924" y="1746" type="curve" smooth="yes"/>
      <point x="955" y="1746"/>
      <point x="974" y="1756"/>
      <point x="993" y="1773" type="curve" smooth="yes"/>
      <point x="1012" y="1791"/>
      <point x="1025" y="1815"/>
      <point x="1032" y="1846" type="curve" name="sv01"/>
      <point x="1157" y="1846" type="line"/>
      <point x="1136" y="1774"/>
      <point x="1105" y="1719"/>
      <point x="1062" y="1682" type="curve" smooth="yes"/>
      <point x="1023" y="1647"/>
      <point x="972" y="1627"/>
      <point x="911" y="1627" type="curve" name="sv02" smooth="yes"/>
      <point x="884" y="1627"/>
      <point x="868" y="1631"/>
      <point x="849" y="1638" type="curve" smooth="yes"/>
      <point x="828" y="1646"/>
      <point x="811" y="1655"/>
      <point x="790" y="1670" type="curve" smooth="yes"/>
      <point x="756" y="1695" type="line"/>
      <point x="754" y="1696" type="line" smooth="yes"/>
      <point x="725" y="1717"/>
      <point x="698" y="1728"/>
      <point x="673" y="1728" type="curve" smooth="yes"/>
      <point x="650" y="1728"/>
      <point x="630" y="1720"/>
      <point x="613" y="1703" type="curve" smooth="yes"/>
      <point x="596" y="1687"/>
      <point x="580" y="1662"/>
      <point x="567" y="1627" type="curve" name="dv01"/>
    </contour>
    <contour>
      <point x="639" y="1493" type="line" name="at01"/>
      <point x="885" y="1493" type="line"/>
      <point x="1051" y="0" type="line" name="ab01"/>
      <point x="850" y="0" type="line"/>
      <point x="815" y="389" type="line" name="dv03"/>
      <point x="295" y="389" type="line"/>
      <point x="111" y="0" type="line" name="ab02"/>
      <point x="-106" y="0" type="line"/>
    </contour>
    <contour>
      <point x="801" y="551" type="line" name="dv04"/>
      <point x="735" y="1325" type="line"/>
      <point x="371" y="551" type="line"/>
    </contour>
  </outline>
</glyph>
